0
SECTION
2
ENTITIES
0
LINE
8
BCrtYd
62
8
10
67.25
20
-68.89
11
59.75
21
-68.89
0
LINE
8
BCrtYd
62
8
10
67.25
20
-63.19
11
67.25
21
-68.89
0
LINE
8
BCrtYd
62
8
10
59.75
20
-63.19
11
67.25
21
-63.19
0
LINE
8
BCrtYd
62
8
10
59.75
20
-68.89
11
59.75
21
-63.19
0
LINE
8
BFab
62
6
10
66.0
20
-64.54
11
65.0
21
-63.54
0
LINE
8
BFab
62
6
10
61.0
20
-68.54
11
61.0
21
-63.54
0
LINE
8
BFab
62
6
10
61.0
20
-63.54
11
66.0
21
-63.54
0
LINE
8
BFab
62
6
10
66.0
20
-63.54
11
66.0
21
-68.54
0
LINE
8
BFab
62
6
10
66.0
20
-68.54
11
61.0
21
-68.54
0
CIRCLE
8
BFab
62
6
10
63.5
20
-66.04
40
2.0
0
LINE
8
BCrtYd
62
8
10
67.25
20
-104.45
11
59.75
21
-104.45
0
LINE
8
BCrtYd
62
8
10
67.25
20
-98.75
11
67.25
21
-104.45
0
LINE
8
BCrtYd
62
8
10
59.75
20
-98.75
11
67.25
21
-98.75
0
LINE
8
BCrtYd
62
8
10
59.75
20
-104.45
11
59.75
21
-98.75
0
LINE
8
BFab
62
6
10
66.0
20
-100.1
11
65.0
21
-99.1
0
LINE
8
BFab
62
6
10
61.0
20
-104.1
11
61.0
21
-99.1
0
LINE
8
BFab
62
6
10
61.0
20
-99.1
11
66.0
21
-99.1
0
LINE
8
BFab
62
6
10
66.0
20
-99.1
11
66.0
21
-104.1
0
LINE
8
BFab
62
6
10
66.0
20
-104.1
11
61.0
21
-104.1
0
CIRCLE
8
BFab
62
6
10
63.5
20
-101.6
40
2.0
0
LINE
8
BCrtYd
62
8
10
67.25
20
-140.01
11
59.75
21
-140.01
0
LINE
8
BCrtYd
62
8
10
67.25
20
-134.31
11
67.25
21
-140.01
0
LINE
8
BCrtYd
62
8
10
59.75
20
-134.31
11
67.25
21
-134.31
0
LINE
8
BCrtYd
62
8
10
59.75
20
-140.01
11
59.75
21
-134.31
0
LINE
8
BFab
62
6
10
66.0
20
-135.66
11
65.0
21
-134.66
0
LINE
8
BFab
62
6
10
61.0
20
-139.66
11
61.0
21
-134.66
0
LINE
8
BFab
62
6
10
61.0
20
-134.66
11
66.0
21
-134.66
0
LINE
8
BFab
62
6
10
66.0
20
-134.66
11
66.0
21
-139.66
0
LINE
8
BFab
62
6
10
66.0
20
-139.66
11
61.0
21
-139.66
0
CIRCLE
8
BFab
62
6
10
63.5
20
-137.16
40
2.0
0
LINE
8
BCrtYd
62
8
10
105.35
20
-140.01
11
97.85
21
-140.01
0
LINE
8
BCrtYd
62
8
10
105.35
20
-134.31
11
105.35
21
-140.01
0
LINE
8
BCrtYd
62
8
10
97.85
20
-134.31
11
105.35
21
-134.31
0
LINE
8
BCrtYd
62
8
10
97.85
20
-140.01
11
97.85
21
-134.31
0
LINE
8
BFab
62
6
10
104.1
20
-135.66
11
103.1
21
-134.66
0
LINE
8
BFab
62
6
10
99.1
20
-139.66
11
99.1
21
-134.66
0
LINE
8
BFab
62
6
10
99.1
20
-134.66
11
104.1
21
-134.66
0
LINE
8
BFab
62
6
10
104.1
20
-134.66
11
104.1
21
-139.66
0
LINE
8
BFab
62
6
10
104.1
20
-139.66
11
99.1
21
-139.66
0
CIRCLE
8
BFab
62
6
10
101.6
20
-137.16
40
2.0
0
LINE
8
BCrtYd
62
8
10
143.45
20
-140.01
11
135.95
21
-140.01
0
LINE
8
BCrtYd
62
8
10
143.45
20
-134.31
11
143.45
21
-140.01
0
LINE
8
BCrtYd
62
8
10
135.95
20
-134.31
11
143.45
21
-134.31
0
LINE
8
BCrtYd
62
8
10
135.95
20
-140.01
11
135.95
21
-134.31
0
LINE
8
BFab
62
6
10
142.2
20
-135.66
11
141.2
21
-134.66
0
LINE
8
BFab
62
6
10
137.2
20
-139.66
11
137.2
21
-134.66
0
LINE
8
BFab
62
6
10
137.2
20
-134.66
11
142.2
21
-134.66
0
LINE
8
BFab
62
6
10
142.2
20
-134.66
11
142.2
21
-139.66
0
LINE
8
BFab
62
6
10
142.2
20
-139.66
11
137.2
21
-139.66
0
CIRCLE
8
BFab
62
6
10
139.7
20
-137.16
40
2.0
0
LINE
8
BCrtYd
62
8
10
143.45
20
-104.45
11
135.95
21
-104.45
0
LINE
8
BCrtYd
62
8
10
143.45
20
-98.75
11
143.45
21
-104.45
0
LINE
8
BCrtYd
62
8
10
135.95
20
-98.75
11
143.45
21
-98.75
0
LINE
8
BCrtYd
62
8
10
135.95
20
-104.45
11
135.95
21
-98.75
0
LINE
8
BFab
62
6
10
142.2
20
-100.1
11
141.2
21
-99.1
0
LINE
8
BFab
62
6
10
137.2
20
-104.1
11
137.2
21
-99.1
0
LINE
8
BFab
62
6
10
137.2
20
-99.1
11
142.2
21
-99.1
0
LINE
8
BFab
62
6
10
142.2
20
-99.1
11
142.2
21
-104.1
0
LINE
8
BFab
62
6
10
142.2
20
-104.1
11
137.2
21
-104.1
0
CIRCLE
8
BFab
62
6
10
139.7
20
-101.6
40
2.0
0
LINE
8
BCrtYd
62
8
10
143.45
20
-68.89
11
135.95
21
-68.89
0
LINE
8
BCrtYd
62
8
10
143.45
20
-63.19
11
143.45
21
-68.89
0
LINE
8
BCrtYd
62
8
10
135.95
20
-63.19
11
143.45
21
-63.19
0
LINE
8
BCrtYd
62
8
10
135.95
20
-68.89
11
135.95
21
-63.19
0
LINE
8
BFab
62
6
10
142.2
20
-64.54
11
141.2
21
-63.54
0
LINE
8
BFab
62
6
10
137.2
20
-68.54
11
137.2
21
-63.54
0
LINE
8
BFab
62
6
10
137.2
20
-63.54
11
142.2
21
-63.54
0
LINE
8
BFab
62
6
10
142.2
20
-63.54
11
142.2
21
-68.54
0
LINE
8
BFab
62
6
10
142.2
20
-68.54
11
137.2
21
-68.54
0
CIRCLE
8
BFab
62
6
10
139.7
20
-66.04
40
2.0
0
CIRCLE
8
Cmts
62
1
10
139.7
20
-130.175
40
3.0
0
CIRCLE
8
FCrtYd
62
7
10
139.7
20
-130.175
40
4.25
0
CIRCLE
8
Cmts
62
1
10
139.7
20
-73.025
40
3.0
0
CIRCLE
8
FCrtYd
62
7
10
139.7
20
-73.025
40
4.25
0
CIRCLE
8
Cmts
62
1
10
63.5
20
-130.175
40
3.0
0
CIRCLE
8
FCrtYd
62
7
10
63.5
20
-130.175
40
4.25
0
CIRCLE
8
Cmts
62
1
10
63.5
20
-73.025
40
3.0
0
CIRCLE
8
FCrtYd
62
7
10
63.5
20
-73.025
40
4.25
0
LINE
8
Cmts
62
1
10
123.825
20
-123.825
11
136.525
21
-123.825
0
LINE
8
Cmts
62
1
10
136.525
20
-123.825
11
136.525
21
-136.525
0
LINE
8
Cmts
62
1
10
136.525
20
-136.525
11
123.825
21
-136.525
0
LINE
8
Cmts
62
1
10
123.825
20
-136.525
11
123.825
21
-123.825
0
LINE
8
0
10
120.777
20
-120.777
11
139.573
21
-120.777
0
LINE
8
0
10
139.573
20
-120.777
11
139.573
21
-139.573
0
LINE
8
0
10
139.573
20
-139.573
11
120.777
21
-139.573
0
LINE
8
0
10
120.777
20
-139.573
11
120.777
21
-120.777
0
LINE
8
Eco2
62
4
10
123.19
20
-123.19
11
137.16
21
-123.19
0
LINE
8
Eco2
62
4
10
137.16
20
-123.19
11
137.16
21
-137.16
0
LINE
8
Eco2
62
4
10
137.16
20
-137.16
11
123.19
21
-137.16
0
LINE
8
Eco2
62
4
10
123.19
20
-137.16
11
123.19
21
-123.19
0
CIRCLE
8
FFab
62
5
10
130.175
20
-92.075
40
3.0
0
LINE
8
FCrtYd
62
7
10
137.275
20
-83.575
11
137.275
21
-101.075
0
LINE
8
FCrtYd
62
7
10
137.275
20
-83.575
11
123.075
21
-83.575
0
LINE
8
FCrtYd
62
7
10
123.075
20
-101.075
11
137.275
21
-101.075
0
LINE
8
FCrtYd
62
7
10
123.075
20
-101.075
11
123.075
21
-83.575
0
LINE
8
FFab
62
5
10
124.375
20
-97.075
11
124.375
21
-86.075
0
LINE
8
FFab
62
5
10
124.375
20
-86.075
11
135.975
21
-86.075
0
LINE
8
FFab
62
5
10
135.975
20
-86.075
11
135.975
21
-98.075
0
LINE
8
FFab
62
5
10
135.975
20
-98.075
11
125.475
21
-98.075
0
LINE
8
FFab
62
5
10
125.475
20
-98.075
11
124.375
21
-97.075
0
LINE
8
FFab
62
5
10
127.175
20
-92.075
11
133.175
21
-92.075
0
LINE
8
FFab
62
5
10
130.175
20
-95.075
11
130.175
21
-89.075
0
LINE
8
Cmts
62
1
10
104.775
20
-123.825
11
117.475
21
-123.825
0
LINE
8
Cmts
62
1
10
117.475
20
-123.825
11
117.475
21
-136.525
0
LINE
8
Cmts
62
1
10
117.475
20
-136.525
11
104.775
21
-136.525
0
LINE
8
Cmts
62
1
10
104.775
20
-136.525
11
104.775
21
-123.825
0
LINE
8
0
10
101.727
20
-120.777
11
120.523
21
-120.777
0
LINE
8
0
10
120.523
20
-120.777
11
120.523
21
-139.573
0
LINE
8
0
10
120.523
20
-139.573
11
101.727
21
-139.573
0
LINE
8
0
10
101.727
20
-139.573
11
101.727
21
-120.777
0
LINE
8
Eco2
62
4
10
104.14
20
-123.19
11
118.11
21
-123.19
0
LINE
8
Eco2
62
4
10
118.11
20
-123.19
11
118.11
21
-137.16
0
LINE
8
Eco2
62
4
10
118.11
20
-137.16
11
104.14
21
-137.16
0
LINE
8
Eco2
62
4
10
104.14
20
-137.16
11
104.14
21
-123.19
0
LINE
8
Cmts
62
1
10
142.875
20
-123.825
11
155.575
21
-123.825
0
LINE
8
Cmts
62
1
10
155.575
20
-123.825
11
155.575
21
-136.525
0
LINE
8
Cmts
62
1
10
155.575
20
-136.525
11
142.875
21
-136.525
0
LINE
8
Cmts
62
1
10
142.875
20
-136.525
11
142.875
21
-123.825
0
LINE
8
0
10
139.827
20
-120.777
11
158.623
21
-120.777
0
LINE
8
0
10
158.623
20
-120.777
11
158.623
21
-139.573
0
LINE
8
0
10
158.623
20
-139.573
11
139.827
21
-139.573
0
LINE
8
0
10
139.827
20
-139.573
11
139.827
21
-120.777
0
LINE
8
Eco2
62
4
10
142.24
20
-123.19
11
156.21
21
-123.19
0
LINE
8
Eco2
62
4
10
156.21
20
-123.19
11
156.21
21
-137.16
0
LINE
8
Eco2
62
4
10
156.21
20
-137.16
11
142.24
21
-137.16
0
LINE
8
Eco2
62
4
10
142.24
20
-137.16
11
142.24
21
-123.19
0
LINE
8
Cmts
62
1
10
85.725
20
-123.825
11
98.425
21
-123.825
0
LINE
8
Cmts
62
1
10
98.425
20
-123.825
11
98.425
21
-136.525
0
LINE
8
Cmts
62
1
10
98.425
20
-136.525
11
85.725
21
-136.525
0
LINE
8
Cmts
62
1
10
85.725
20
-136.525
11
85.725
21
-123.825
0
LINE
8
0
10
82.677
20
-120.777
11
101.473
21
-120.777
0
LINE
8
0
10
101.473
20
-120.777
11
101.473
21
-139.573
0
LINE
8
0
10
101.473
20
-139.573
11
82.677
21
-139.573
0
LINE
8
0
10
82.677
20
-139.573
11
82.677
21
-120.777
0
LINE
8
Eco2
62
4
10
85.09
20
-123.19
11
99.06
21
-123.19
0
LINE
8
Eco2
62
4
10
99.06
20
-123.19
11
99.06
21
-137.16
0
LINE
8
Eco2
62
4
10
99.06
20
-137.16
11
85.09
21
-137.16
0
LINE
8
Eco2
62
4
10
85.09
20
-137.16
11
85.09
21
-123.19
0
LINE
8
Cmts
62
1
10
85.725
20
-104.775
11
98.425
21
-104.775
0
LINE
8
Cmts
62
1
10
98.425
20
-104.775
11
98.425
21
-117.475
0
LINE
8
Cmts
62
1
10
98.425
20
-117.475
11
85.725
21
-117.475
0
LINE
8
Cmts
62
1
10
85.725
20
-117.475
11
85.725
21
-104.775
0
LINE
8
0
10
82.677
20
-101.727
11
101.473
21
-101.727
0
LINE
8
0
10
101.473
20
-101.727
11
101.473
21
-120.523
0
LINE
8
0
10
101.473
20
-120.523
11
82.677
21
-120.523
0
LINE
8
0
10
82.677
20
-120.523
11
82.677
21
-101.727
0
LINE
8
Eco2
62
4
10
85.09
20
-104.14
11
99.06
21
-104.14
0
LINE
8
Eco2
62
4
10
99.06
20
-104.14
11
99.06
21
-118.11
0
LINE
8
Eco2
62
4
10
99.06
20
-118.11
11
85.09
21
-118.11
0
LINE
8
Eco2
62
4
10
85.09
20
-118.11
11
85.09
21
-104.14
0
LINE
8
Cmts
62
1
10
85.725
20
-85.725
11
98.425
21
-85.725
0
LINE
8
Cmts
62
1
10
98.425
20
-85.725
11
98.425
21
-98.425
0
LINE
8
Cmts
62
1
10
98.425
20
-98.425
11
85.725
21
-98.425
0
LINE
8
Cmts
62
1
10
85.725
20
-98.425
11
85.725
21
-85.725
0
LINE
8
0
10
82.677
20
-82.677
11
101.473
21
-82.677
0
LINE
8
0
10
101.473
20
-82.677
11
101.473
21
-101.473
0
LINE
8
0
10
101.473
20
-101.473
11
82.677
21
-101.473
0
LINE
8
0
10
82.677
20
-101.473
11
82.677
21
-82.677
0
LINE
8
Eco2
62
4
10
85.09
20
-85.09
11
99.06
21
-85.09
0
LINE
8
Eco2
62
4
10
99.06
20
-85.09
11
99.06
21
-99.06
0
LINE
8
Eco2
62
4
10
99.06
20
-99.06
11
85.09
21
-99.06
0
LINE
8
Eco2
62
4
10
85.09
20
-99.06
11
85.09
21
-85.09
0
LINE
8
Eco2
62
4
10
85.09
20
-80.01
11
85.09
21
-66.04
0
LINE
8
Eco2
62
4
10
99.06
20
-80.01
11
85.09
21
-80.01
0
LINE
8
Eco2
62
4
10
99.06
20
-66.04
11
99.06
21
-80.01
0
LINE
8
Eco2
62
4
10
85.09
20
-66.04
11
99.06
21
-66.04
0
LINE
8
0
10
82.677
20
-82.423
11
82.677
21
-63.627
0
LINE
8
0
10
101.473
20
-82.423
11
82.677
21
-82.423
0
LINE
8
0
10
101.473
20
-63.627
11
101.473
21
-82.423
0
LINE
8
0
10
82.677
20
-63.627
11
101.473
21
-63.627
0
LINE
8
Cmts
62
1
10
85.725
20
-79.375
11
85.725
21
-66.675
0
LINE
8
Cmts
62
1
10
98.425
20
-79.375
11
85.725
21
-79.375
0
LINE
8
Cmts
62
1
10
98.425
20
-66.675
11
98.425
21
-79.375
0
LINE
8
Cmts
62
1
10
85.725
20
-66.675
11
98.425
21
-66.675
0
LINE
8
Cmts
62
1
10
66.675
20
-123.825
11
79.375
21
-123.825
0
LINE
8
Cmts
62
1
10
79.375
20
-123.825
11
79.375
21
-136.525
0
LINE
8
Cmts
62
1
10
79.375
20
-136.525
11
66.675
21
-136.525
0
LINE
8
Cmts
62
1
10
66.675
20
-136.525
11
66.675
21
-123.825
0
LINE
8
0
10
63.627
20
-120.777
11
82.423
21
-120.777
0
LINE
8
0
10
82.423
20
-120.777
11
82.423
21
-139.573
0
LINE
8
0
10
82.423
20
-139.573
11
63.627
21
-139.573
0
LINE
8
0
10
63.627
20
-139.573
11
63.627
21
-120.777
0
LINE
8
Eco2
62
4
10
66.04
20
-123.19
11
80.01
21
-123.19
0
LINE
8
Eco2
62
4
10
80.01
20
-123.19
11
80.01
21
-137.16
0
LINE
8
Eco2
62
4
10
80.01
20
-137.16
11
66.04
21
-137.16
0
LINE
8
Eco2
62
4
10
66.04
20
-137.16
11
66.04
21
-123.19
0
LINE
8
Cmts
62
1
10
66.675
20
-104.775
11
79.375
21
-104.775
0
LINE
8
Cmts
62
1
10
79.375
20
-104.775
11
79.375
21
-117.475
0
LINE
8
Cmts
62
1
10
79.375
20
-117.475
11
66.675
21
-117.475
0
LINE
8
Cmts
62
1
10
66.675
20
-117.475
11
66.675
21
-104.775
0
LINE
8
0
10
63.627
20
-101.727
11
82.423
21
-101.727
0
LINE
8
0
10
82.423
20
-101.727
11
82.423
21
-120.523
0
LINE
8
0
10
82.423
20
-120.523
11
63.627
21
-120.523
0
LINE
8
0
10
63.627
20
-120.523
11
63.627
21
-101.727
0
LINE
8
Eco2
62
4
10
66.04
20
-104.14
11
80.01
21
-104.14
0
LINE
8
Eco2
62
4
10
80.01
20
-104.14
11
80.01
21
-118.11
0
LINE
8
Eco2
62
4
10
80.01
20
-118.11
11
66.04
21
-118.11
0
LINE
8
Eco2
62
4
10
66.04
20
-118.11
11
66.04
21
-104.14
0
LINE
8
Cmts
62
1
10
66.675
20
-85.725
11
79.375
21
-85.725
0
LINE
8
Cmts
62
1
10
79.375
20
-85.725
11
79.375
21
-98.425
0
LINE
8
Cmts
62
1
10
79.375
20
-98.425
11
66.675
21
-98.425
0
LINE
8
Cmts
62
1
10
66.675
20
-98.425
11
66.675
21
-85.725
0
LINE
8
0
10
63.627
20
-82.677
11
82.423
21
-82.677
0
LINE
8
0
10
82.423
20
-82.677
11
82.423
21
-101.473
0
LINE
8
0
10
82.423
20
-101.473
11
63.627
21
-101.473
0
LINE
8
0
10
63.627
20
-101.473
11
63.627
21
-82.677
0
LINE
8
Eco2
62
4
10
66.04
20
-85.09
11
80.01
21
-85.09
0
LINE
8
Eco2
62
4
10
80.01
20
-85.09
11
80.01
21
-99.06
0
LINE
8
Eco2
62
4
10
80.01
20
-99.06
11
66.04
21
-99.06
0
LINE
8
Eco2
62
4
10
66.04
20
-99.06
11
66.04
21
-85.09
0
LINE
8
Cmts
62
1
10
66.675
20
-66.675
11
79.375
21
-66.675
0
LINE
8
Cmts
62
1
10
79.375
20
-66.675
11
79.375
21
-79.375
0
LINE
8
Cmts
62
1
10
79.375
20
-79.375
11
66.675
21
-79.375
0
LINE
8
Cmts
62
1
10
66.675
20
-79.375
11
66.675
21
-66.675
0
LINE
8
0
10
63.627
20
-63.627
11
82.423
21
-63.627
0
LINE
8
0
10
82.423
20
-63.627
11
82.423
21
-82.423
0
LINE
8
0
10
82.423
20
-82.423
11
63.627
21
-82.423
0
LINE
8
0
10
63.627
20
-82.423
11
63.627
21
-63.627
0
LINE
8
Eco2
62
4
10
66.04
20
-66.04
11
80.01
21
-66.04
0
LINE
8
Eco2
62
4
10
80.01
20
-66.04
11
80.01
21
-80.01
0
LINE
8
Eco2
62
4
10
80.01
20
-80.01
11
66.04
21
-80.01
0
LINE
8
Eco2
62
4
10
66.04
20
-80.01
11
66.04
21
-66.04
0
LINE
8
Cmts
62
1
10
47.625
20
-123.825
11
60.325
21
-123.825
0
LINE
8
Cmts
62
1
10
60.325
20
-123.825
11
60.325
21
-136.525
0
LINE
8
Cmts
62
1
10
60.325
20
-136.525
11
47.625
21
-136.525
0
LINE
8
Cmts
62
1
10
47.625
20
-136.525
11
47.625
21
-123.825
0
LINE
8
0
10
44.577
20
-120.777
11
63.373
21
-120.777
0
LINE
8
0
10
63.373
20
-120.777
11
63.373
21
-139.573
0
LINE
8
0
10
63.373
20
-139.573
11
44.577
21
-139.573
0
LINE
8
0
10
44.577
20
-139.573
11
44.577
21
-120.777
0
LINE
8
Eco2
62
4
10
46.99
20
-123.19
11
60.96
21
-123.19
0
LINE
8
Eco2
62
4
10
60.96
20
-123.19
11
60.96
21
-137.16
0
LINE
8
Eco2
62
4
10
60.96
20
-137.16
11
46.99
21
-137.16
0
LINE
8
Eco2
62
4
10
46.99
20
-137.16
11
46.99
21
-123.19
0
LINE
8
Cmts
62
1
10
47.625
20
-104.775
11
60.325
21
-104.775
0
LINE
8
Cmts
62
1
10
60.325
20
-104.775
11
60.325
21
-117.475
0
LINE
8
Cmts
62
1
10
60.325
20
-117.475
11
47.625
21
-117.475
0
LINE
8
Cmts
62
1
10
47.625
20
-117.475
11
47.625
21
-104.775
0
LINE
8
0
10
44.577
20
-101.727
11
63.373
21
-101.727
0
LINE
8
0
10
63.373
20
-101.727
11
63.373
21
-120.523
0
LINE
8
0
10
63.373
20
-120.523
11
44.577
21
-120.523
0
LINE
8
0
10
44.577
20
-120.523
11
44.577
21
-101.727
0
LINE
8
Eco2
62
4
10
46.99
20
-104.14
11
60.96
21
-104.14
0
LINE
8
Eco2
62
4
10
60.96
20
-104.14
11
60.96
21
-118.11
0
LINE
8
Eco2
62
4
10
60.96
20
-118.11
11
46.99
21
-118.11
0
LINE
8
Eco2
62
4
10
46.99
20
-118.11
11
46.99
21
-104.14
0
LINE
8
Cmts
62
1
10
47.625
20
-85.725
11
60.325
21
-85.725
0
LINE
8
Cmts
62
1
10
60.325
20
-85.725
11
60.325
21
-98.425
0
LINE
8
Cmts
62
1
10
60.325
20
-98.425
11
47.625
21
-98.425
0
LINE
8
Cmts
62
1
10
47.625
20
-98.425
11
47.625
21
-85.725
0
LINE
8
0
10
44.577
20
-82.677
11
63.373
21
-82.677
0
LINE
8
0
10
63.373
20
-82.677
11
63.373
21
-101.473
0
LINE
8
0
10
63.373
20
-101.473
11
44.577
21
-101.473
0
LINE
8
0
10
44.577
20
-101.473
11
44.577
21
-82.677
0
LINE
8
Eco2
62
4
10
46.99
20
-85.09
11
60.96
21
-85.09
0
LINE
8
Eco2
62
4
10
60.96
20
-85.09
11
60.96
21
-99.06
0
LINE
8
Eco2
62
4
10
60.96
20
-99.06
11
46.99
21
-99.06
0
LINE
8
Eco2
62
4
10
46.99
20
-99.06
11
46.99
21
-85.09
0
LINE
8
Cmts
62
1
10
47.625
20
-66.675
11
60.325
21
-66.675
0
LINE
8
Cmts
62
1
10
60.325
20
-66.675
11
60.325
21
-79.375
0
LINE
8
Cmts
62
1
10
60.325
20
-79.375
11
47.625
21
-79.375
0
LINE
8
Cmts
62
1
10
47.625
20
-79.375
11
47.625
21
-66.675
0
LINE
8
0
10
44.577
20
-63.627
11
63.373
21
-63.627
0
LINE
8
0
10
63.373
20
-63.627
11
63.373
21
-82.423
0
LINE
8
0
10
63.373
20
-82.423
11
44.577
21
-82.423
0
LINE
8
0
10
44.577
20
-82.423
11
44.577
21
-63.627
0
LINE
8
Eco2
62
4
10
46.99
20
-66.04
11
60.96
21
-66.04
0
LINE
8
Eco2
62
4
10
60.96
20
-66.04
11
60.96
21
-80.01
0
LINE
8
Eco2
62
4
10
60.96
20
-80.01
11
46.99
21
-80.01
0
LINE
8
Eco2
62
4
10
46.99
20
-80.01
11
46.99
21
-66.04
0
LINE
8
FFab
62
5
10
130.25
20
-65.29
11
133.25
21
-65.29
0
LINE
8
FFab
62
5
10
133.25
20
-65.29
11
133.25
21
-71.29
0
LINE
8
FFab
62
5
10
133.25
20
-71.29
11
127.25
21
-71.29
0
LINE
8
FFab
62
5
10
127.25
20
-71.29
11
127.25
21
-65.29
0
LINE
8
FFab
62
5
10
127.25
20
-65.29
11
130.25
21
-65.29
0
LINE
8
FCrtYd
62
7
10
134.75
20
-72.04
11
135.0
21
-72.04
0
LINE
8
FCrtYd
62
7
10
135.0
20
-72.04
11
135.0
21
-71.79
0
LINE
8
FCrtYd
62
7
10
134.75
20
-64.54
11
135.0
21
-64.54
0
LINE
8
FCrtYd
62
7
10
135.0
20
-64.54
11
135.0
21
-64.79
0
LINE
8
FCrtYd
62
7
10
125.5
20
-64.79
11
125.5
21
-64.54
0
LINE
8
FCrtYd
62
7
10
125.5
20
-64.54
11
125.75
21
-64.54
0
LINE
8
FCrtYd
62
7
10
125.5
20
-71.79
11
125.5
21
-72.04
0
LINE
8
FCrtYd
62
7
10
125.5
20
-72.04
11
125.75
21
-72.04
0
LINE
8
FCrtYd
62
7
10
125.75
20
-64.54
11
134.75
21
-64.54
0
LINE
8
FCrtYd
62
7
10
125.5
20
-71.79
11
125.5
21
-64.79
0
LINE
8
FCrtYd
62
7
10
134.75
20
-72.04
11
125.75
21
-72.04
0
LINE
8
FCrtYd
62
7
10
135.0
20
-64.79
11
135.0
21
-71.79
0
CIRCLE
8
FFab
62
5
10
130.25
20
-68.29
40
2.015564
0
LINE
8
FFab
62
5
10
67.945
20
-65.405
11
67.945
21
-63.5
0
LINE
8
FFab
62
5
10
67.945
20
-63.5
11
78.105
21
-63.5
0
LINE
8
FFab
62
5
10
78.105
20
-63.5
11
78.105
21
-66.04
0
LINE
8
FFab
62
5
10
78.105
20
-66.04
11
68.58
21
-66.04
0
LINE
8
FFab
62
5
10
68.58
20
-66.04
11
67.945
21
-65.405
0
LINE
8
FCrtYd
62
7
10
67.415
20
-66.57
11
78.615
21
-66.57
0
LINE
8
FCrtYd
62
7
10
78.615
20
-66.57
11
78.615
21
-62.97
0
LINE
8
FCrtYd
62
7
10
78.615
20
-62.97
11
67.415
21
-62.97
0
LINE
8
FCrtYd
62
7
10
67.415
20
-62.97
11
67.415
21
-66.57
0
LINE
8
Edge
62
2
10
46.355
20
-140.335
11
156.845
21
-140.335
0
LINE
8
Edge
62
2
10
43.815
20
-65.405
11
43.815
21
-137.795
0
LINE
8
Edge
62
2
10
156.845
20
-62.865
11
46.355
21
-62.865
0
LINE
8
Edge
62
2
10
159.385
20
-137.795
11
159.385
21
-65.405
0
ARC
8
Edge
62
2
10
156.845
20
-137.795
30
0.0
40
2.54
50
-90.0
51
0.0
0
ARC
8
Edge
62
2
10
46.355
20
-137.795
30
0.0
40
2.54
50
180.0
51
270.0
0
ARC
8
Edge
62
2
10
46.355
20
-65.405
30
0.0
40
2.54
50
90.0
51
180.0
0
ARC
8
Edge
62
2
10
156.845
20
-65.405
30
0.0
40
2.54
50
0.0
51
90.0
0
ENDSEC
0
EOF
