G04 #@! TF.GenerationSoftware,KiCad,Pcbnew,(5.1.5)-3*
G04 #@! TF.CreationDate,2020-09-11T21:59:55+03:00*
G04 #@! TF.ProjectId,taro,7461726f-2e6b-4696-9361-645f70636258,rev?*
G04 #@! TF.SameCoordinates,Original*
G04 #@! TF.FileFunction,Legend,Bot*
G04 #@! TF.FilePolarity,Positive*
%FSLAX46Y46*%
G04 Gerber Fmt 4.6, Leading zero omitted, Abs format (unit mm)*
G04 Created by KiCad (PCBNEW (5.1.5)-3) date 2020-09-11 21:59:55*
%MOMM*%
%LPD*%
G04 APERTURE LIST*
%ADD10C,0.381000*%
%ADD11C,0.150000*%
G04 APERTURE END LIST*
D10*
G04 #@! TO.C,U1*
X85725000Y-68580000D02*
X83185000Y-68580000D01*
X85725000Y-66040000D02*
X85725000Y-68580000D01*
D11*
G36*
X98119635Y-72329030D02*
G01*
X98119635Y-72429030D01*
X98219635Y-72429030D01*
X98219635Y-72329030D01*
X98119635Y-72329030D01*
G37*
X98119635Y-72329030D02*
X98119635Y-72429030D01*
X98219635Y-72429030D01*
X98219635Y-72329030D01*
X98119635Y-72329030D01*
G36*
X98319635Y-71929030D02*
G01*
X98319635Y-72729030D01*
X98419635Y-72729030D01*
X98419635Y-71929030D01*
X98319635Y-71929030D01*
G37*
X98319635Y-71929030D02*
X98319635Y-72729030D01*
X98419635Y-72729030D01*
X98419635Y-71929030D01*
X98319635Y-71929030D01*
G36*
X97919635Y-72529030D02*
G01*
X97919635Y-72729030D01*
X98019635Y-72729030D01*
X98019635Y-72529030D01*
X97919635Y-72529030D01*
G37*
X97919635Y-72529030D02*
X97919635Y-72729030D01*
X98019635Y-72729030D01*
X98019635Y-72529030D01*
X97919635Y-72529030D01*
G36*
X97919635Y-71929030D02*
G01*
X97919635Y-72229030D01*
X98019635Y-72229030D01*
X98019635Y-71929030D01*
X97919635Y-71929030D01*
G37*
X97919635Y-71929030D02*
X97919635Y-72229030D01*
X98019635Y-72229030D01*
X98019635Y-71929030D01*
X97919635Y-71929030D01*
G36*
X97919635Y-71929030D02*
G01*
X97919635Y-72029030D01*
X98419635Y-72029030D01*
X98419635Y-71929030D01*
X97919635Y-71929030D01*
G37*
X97919635Y-71929030D02*
X97919635Y-72029030D01*
X98419635Y-72029030D01*
X98419635Y-71929030D01*
X97919635Y-71929030D01*
D10*
X100965000Y-96520000D02*
X100965000Y-63500000D01*
X83185000Y-96520000D02*
X100965000Y-96520000D01*
X83185000Y-63500000D02*
X83185000Y-96520000D01*
X100965000Y-63500000D02*
X83185000Y-63500000D01*
X85725000Y-66040000D02*
X83185000Y-66040000D01*
D11*
X87204476Y-70211904D02*
X87204476Y-69411904D01*
X87014000Y-69411904D01*
X86899714Y-69450000D01*
X86823523Y-69526190D01*
X86785428Y-69602380D01*
X86747333Y-69754761D01*
X86747333Y-69869047D01*
X86785428Y-70021428D01*
X86823523Y-70097619D01*
X86899714Y-70173809D01*
X87014000Y-70211904D01*
X87204476Y-70211904D01*
X86442571Y-69488095D02*
X86404476Y-69450000D01*
X86328285Y-69411904D01*
X86137809Y-69411904D01*
X86061619Y-69450000D01*
X86023523Y-69488095D01*
X85985428Y-69564285D01*
X85985428Y-69640476D01*
X86023523Y-69754761D01*
X86480666Y-70211904D01*
X85985428Y-70211904D01*
X87204476Y-80371904D02*
X87204476Y-79571904D01*
X87014000Y-79571904D01*
X86899714Y-79610000D01*
X86823523Y-79686190D01*
X86785428Y-79762380D01*
X86747333Y-79914761D01*
X86747333Y-80029047D01*
X86785428Y-80181428D01*
X86823523Y-80257619D01*
X86899714Y-80333809D01*
X87014000Y-80371904D01*
X87204476Y-80371904D01*
X86252095Y-79571904D02*
X86175904Y-79571904D01*
X86099714Y-79610000D01*
X86061619Y-79648095D01*
X86023523Y-79724285D01*
X85985428Y-79876666D01*
X85985428Y-80067142D01*
X86023523Y-80219523D01*
X86061619Y-80295714D01*
X86099714Y-80333809D01*
X86175904Y-80371904D01*
X86252095Y-80371904D01*
X86328285Y-80333809D01*
X86366380Y-80295714D01*
X86404476Y-80219523D01*
X86442571Y-80067142D01*
X86442571Y-79876666D01*
X86404476Y-79724285D01*
X86366380Y-79648095D01*
X86328285Y-79610000D01*
X86252095Y-79571904D01*
X87204476Y-77831904D02*
X87204476Y-77031904D01*
X87014000Y-77031904D01*
X86899714Y-77070000D01*
X86823523Y-77146190D01*
X86785428Y-77222380D01*
X86747333Y-77374761D01*
X86747333Y-77489047D01*
X86785428Y-77641428D01*
X86823523Y-77717619D01*
X86899714Y-77793809D01*
X87014000Y-77831904D01*
X87204476Y-77831904D01*
X85985428Y-77831904D02*
X86442571Y-77831904D01*
X86214000Y-77831904D02*
X86214000Y-77031904D01*
X86290190Y-77146190D01*
X86366380Y-77222380D01*
X86442571Y-77260476D01*
X87223523Y-74530000D02*
X87299714Y-74491904D01*
X87414000Y-74491904D01*
X87528285Y-74530000D01*
X87604476Y-74606190D01*
X87642571Y-74682380D01*
X87680666Y-74834761D01*
X87680666Y-74949047D01*
X87642571Y-75101428D01*
X87604476Y-75177619D01*
X87528285Y-75253809D01*
X87414000Y-75291904D01*
X87337809Y-75291904D01*
X87223523Y-75253809D01*
X87185428Y-75215714D01*
X87185428Y-74949047D01*
X87337809Y-74949047D01*
X86842571Y-75291904D02*
X86842571Y-74491904D01*
X86385428Y-75291904D01*
X86385428Y-74491904D01*
X86004476Y-75291904D02*
X86004476Y-74491904D01*
X85814000Y-74491904D01*
X85699714Y-74530000D01*
X85623523Y-74606190D01*
X85585428Y-74682380D01*
X85547333Y-74834761D01*
X85547333Y-74949047D01*
X85585428Y-75101428D01*
X85623523Y-75177619D01*
X85699714Y-75253809D01*
X85814000Y-75291904D01*
X86004476Y-75291904D01*
X87223523Y-71990000D02*
X87299714Y-71951904D01*
X87414000Y-71951904D01*
X87528285Y-71990000D01*
X87604476Y-72066190D01*
X87642571Y-72142380D01*
X87680666Y-72294761D01*
X87680666Y-72409047D01*
X87642571Y-72561428D01*
X87604476Y-72637619D01*
X87528285Y-72713809D01*
X87414000Y-72751904D01*
X87337809Y-72751904D01*
X87223523Y-72713809D01*
X87185428Y-72675714D01*
X87185428Y-72409047D01*
X87337809Y-72409047D01*
X86842571Y-72751904D02*
X86842571Y-71951904D01*
X86385428Y-72751904D01*
X86385428Y-71951904D01*
X86004476Y-72751904D02*
X86004476Y-71951904D01*
X85814000Y-71951904D01*
X85699714Y-71990000D01*
X85623523Y-72066190D01*
X85585428Y-72142380D01*
X85547333Y-72294761D01*
X85547333Y-72409047D01*
X85585428Y-72561428D01*
X85623523Y-72637619D01*
X85699714Y-72713809D01*
X85814000Y-72751904D01*
X86004476Y-72751904D01*
X87204476Y-82911904D02*
X87204476Y-82111904D01*
X87014000Y-82111904D01*
X86899714Y-82150000D01*
X86823523Y-82226190D01*
X86785428Y-82302380D01*
X86747333Y-82454761D01*
X86747333Y-82569047D01*
X86785428Y-82721428D01*
X86823523Y-82797619D01*
X86899714Y-82873809D01*
X87014000Y-82911904D01*
X87204476Y-82911904D01*
X86061619Y-82378571D02*
X86061619Y-82911904D01*
X86252095Y-82073809D02*
X86442571Y-82645238D01*
X85947333Y-82645238D01*
X86747333Y-85375714D02*
X86785428Y-85413809D01*
X86899714Y-85451904D01*
X86975904Y-85451904D01*
X87090190Y-85413809D01*
X87166380Y-85337619D01*
X87204476Y-85261428D01*
X87242571Y-85109047D01*
X87242571Y-84994761D01*
X87204476Y-84842380D01*
X87166380Y-84766190D01*
X87090190Y-84690000D01*
X86975904Y-84651904D01*
X86899714Y-84651904D01*
X86785428Y-84690000D01*
X86747333Y-84728095D01*
X86061619Y-84651904D02*
X86214000Y-84651904D01*
X86290190Y-84690000D01*
X86328285Y-84728095D01*
X86404476Y-84842380D01*
X86442571Y-84994761D01*
X86442571Y-85299523D01*
X86404476Y-85375714D01*
X86366380Y-85413809D01*
X86290190Y-85451904D01*
X86137809Y-85451904D01*
X86061619Y-85413809D01*
X86023523Y-85375714D01*
X85985428Y-85299523D01*
X85985428Y-85109047D01*
X86023523Y-85032857D01*
X86061619Y-84994761D01*
X86137809Y-84956666D01*
X86290190Y-84956666D01*
X86366380Y-84994761D01*
X86404476Y-85032857D01*
X86442571Y-85109047D01*
X87204476Y-87991904D02*
X87204476Y-87191904D01*
X87014000Y-87191904D01*
X86899714Y-87230000D01*
X86823523Y-87306190D01*
X86785428Y-87382380D01*
X86747333Y-87534761D01*
X86747333Y-87649047D01*
X86785428Y-87801428D01*
X86823523Y-87877619D01*
X86899714Y-87953809D01*
X87014000Y-87991904D01*
X87204476Y-87991904D01*
X86480666Y-87191904D02*
X85947333Y-87191904D01*
X86290190Y-87991904D01*
X87166380Y-90112857D02*
X86899714Y-90112857D01*
X86785428Y-90531904D02*
X87166380Y-90531904D01*
X87166380Y-89731904D01*
X86785428Y-89731904D01*
X86099714Y-89731904D02*
X86252095Y-89731904D01*
X86328285Y-89770000D01*
X86366380Y-89808095D01*
X86442571Y-89922380D01*
X86480666Y-90074761D01*
X86480666Y-90379523D01*
X86442571Y-90455714D01*
X86404476Y-90493809D01*
X86328285Y-90531904D01*
X86175904Y-90531904D01*
X86099714Y-90493809D01*
X86061619Y-90455714D01*
X86023523Y-90379523D01*
X86023523Y-90189047D01*
X86061619Y-90112857D01*
X86099714Y-90074761D01*
X86175904Y-90036666D01*
X86328285Y-90036666D01*
X86404476Y-90074761D01*
X86442571Y-90112857D01*
X86480666Y-90189047D01*
X86937809Y-92652857D02*
X86823523Y-92690952D01*
X86785428Y-92729047D01*
X86747333Y-92805238D01*
X86747333Y-92919523D01*
X86785428Y-92995714D01*
X86823523Y-93033809D01*
X86899714Y-93071904D01*
X87204476Y-93071904D01*
X87204476Y-92271904D01*
X86937809Y-92271904D01*
X86861619Y-92310000D01*
X86823523Y-92348095D01*
X86785428Y-92424285D01*
X86785428Y-92500476D01*
X86823523Y-92576666D01*
X86861619Y-92614761D01*
X86937809Y-92652857D01*
X87204476Y-92652857D01*
X86061619Y-92538571D02*
X86061619Y-93071904D01*
X86252095Y-92233809D02*
X86442571Y-92805238D01*
X85947333Y-92805238D01*
X86937809Y-95192857D02*
X86823523Y-95230952D01*
X86785428Y-95269047D01*
X86747333Y-95345238D01*
X86747333Y-95459523D01*
X86785428Y-95535714D01*
X86823523Y-95573809D01*
X86899714Y-95611904D01*
X87204476Y-95611904D01*
X87204476Y-94811904D01*
X86937809Y-94811904D01*
X86861619Y-94850000D01*
X86823523Y-94888095D01*
X86785428Y-94964285D01*
X86785428Y-95040476D01*
X86823523Y-95116666D01*
X86861619Y-95154761D01*
X86937809Y-95192857D01*
X87204476Y-95192857D01*
X86023523Y-94811904D02*
X86404476Y-94811904D01*
X86442571Y-95192857D01*
X86404476Y-95154761D01*
X86328285Y-95116666D01*
X86137809Y-95116666D01*
X86061619Y-95154761D01*
X86023523Y-95192857D01*
X85985428Y-95269047D01*
X85985428Y-95459523D01*
X86023523Y-95535714D01*
X86061619Y-95573809D01*
X86137809Y-95611904D01*
X86328285Y-95611904D01*
X86404476Y-95573809D01*
X86442571Y-95535714D01*
X97859809Y-95192857D02*
X97745523Y-95230952D01*
X97707428Y-95269047D01*
X97669333Y-95345238D01*
X97669333Y-95459523D01*
X97707428Y-95535714D01*
X97745523Y-95573809D01*
X97821714Y-95611904D01*
X98126476Y-95611904D01*
X98126476Y-94811904D01*
X97859809Y-94811904D01*
X97783619Y-94850000D01*
X97745523Y-94888095D01*
X97707428Y-94964285D01*
X97707428Y-95040476D01*
X97745523Y-95116666D01*
X97783619Y-95154761D01*
X97859809Y-95192857D01*
X98126476Y-95192857D01*
X96983619Y-94811904D02*
X97136000Y-94811904D01*
X97212190Y-94850000D01*
X97250285Y-94888095D01*
X97326476Y-95002380D01*
X97364571Y-95154761D01*
X97364571Y-95459523D01*
X97326476Y-95535714D01*
X97288380Y-95573809D01*
X97212190Y-95611904D01*
X97059809Y-95611904D01*
X96983619Y-95573809D01*
X96945523Y-95535714D01*
X96907428Y-95459523D01*
X96907428Y-95269047D01*
X96945523Y-95192857D01*
X96983619Y-95154761D01*
X97059809Y-95116666D01*
X97212190Y-95116666D01*
X97288380Y-95154761D01*
X97326476Y-95192857D01*
X97364571Y-95269047D01*
X97859809Y-90112857D02*
X97745523Y-90150952D01*
X97707428Y-90189047D01*
X97669333Y-90265238D01*
X97669333Y-90379523D01*
X97707428Y-90455714D01*
X97745523Y-90493809D01*
X97821714Y-90531904D01*
X98126476Y-90531904D01*
X98126476Y-89731904D01*
X97859809Y-89731904D01*
X97783619Y-89770000D01*
X97745523Y-89808095D01*
X97707428Y-89884285D01*
X97707428Y-89960476D01*
X97745523Y-90036666D01*
X97783619Y-90074761D01*
X97859809Y-90112857D01*
X98126476Y-90112857D01*
X97402666Y-89731904D02*
X96907428Y-89731904D01*
X97174095Y-90036666D01*
X97059809Y-90036666D01*
X96983619Y-90074761D01*
X96945523Y-90112857D01*
X96907428Y-90189047D01*
X96907428Y-90379523D01*
X96945523Y-90455714D01*
X96983619Y-90493809D01*
X97059809Y-90531904D01*
X97288380Y-90531904D01*
X97364571Y-90493809D01*
X97402666Y-90455714D01*
X97859809Y-87572857D02*
X97745523Y-87610952D01*
X97707428Y-87649047D01*
X97669333Y-87725238D01*
X97669333Y-87839523D01*
X97707428Y-87915714D01*
X97745523Y-87953809D01*
X97821714Y-87991904D01*
X98126476Y-87991904D01*
X98126476Y-87191904D01*
X97859809Y-87191904D01*
X97783619Y-87230000D01*
X97745523Y-87268095D01*
X97707428Y-87344285D01*
X97707428Y-87420476D01*
X97745523Y-87496666D01*
X97783619Y-87534761D01*
X97859809Y-87572857D01*
X98126476Y-87572857D01*
X96907428Y-87991904D02*
X97364571Y-87991904D01*
X97136000Y-87991904D02*
X97136000Y-87191904D01*
X97212190Y-87306190D01*
X97288380Y-87382380D01*
X97364571Y-87420476D01*
X97802666Y-77412857D02*
X98069333Y-77412857D01*
X98069333Y-77831904D02*
X98069333Y-77031904D01*
X97688380Y-77031904D01*
X97040761Y-77298571D02*
X97040761Y-77831904D01*
X97231238Y-76993809D02*
X97421714Y-77565238D01*
X96926476Y-77565238D01*
X98602666Y-74491904D02*
X98336000Y-75291904D01*
X98069333Y-74491904D01*
X97345523Y-75215714D02*
X97383619Y-75253809D01*
X97497904Y-75291904D01*
X97574095Y-75291904D01*
X97688380Y-75253809D01*
X97764571Y-75177619D01*
X97802666Y-75101428D01*
X97840761Y-74949047D01*
X97840761Y-74834761D01*
X97802666Y-74682380D01*
X97764571Y-74606190D01*
X97688380Y-74530000D01*
X97574095Y-74491904D01*
X97497904Y-74491904D01*
X97383619Y-74530000D01*
X97345523Y-74568095D01*
X96545523Y-75215714D02*
X96583619Y-75253809D01*
X96697904Y-75291904D01*
X96774095Y-75291904D01*
X96888380Y-75253809D01*
X96964571Y-75177619D01*
X97002666Y-75101428D01*
X97040761Y-74949047D01*
X97040761Y-74834761D01*
X97002666Y-74682380D01*
X96964571Y-74606190D01*
X96888380Y-74530000D01*
X96774095Y-74491904D01*
X96697904Y-74491904D01*
X96583619Y-74530000D01*
X96545523Y-74568095D01*
X98145523Y-69450000D02*
X98221714Y-69411904D01*
X98336000Y-69411904D01*
X98450285Y-69450000D01*
X98526476Y-69526190D01*
X98564571Y-69602380D01*
X98602666Y-69754761D01*
X98602666Y-69869047D01*
X98564571Y-70021428D01*
X98526476Y-70097619D01*
X98450285Y-70173809D01*
X98336000Y-70211904D01*
X98259809Y-70211904D01*
X98145523Y-70173809D01*
X98107428Y-70135714D01*
X98107428Y-69869047D01*
X98259809Y-69869047D01*
X97764571Y-70211904D02*
X97764571Y-69411904D01*
X97307428Y-70211904D01*
X97307428Y-69411904D01*
X96926476Y-70211904D02*
X96926476Y-69411904D01*
X96736000Y-69411904D01*
X96621714Y-69450000D01*
X96545523Y-69526190D01*
X96507428Y-69602380D01*
X96469333Y-69754761D01*
X96469333Y-69869047D01*
X96507428Y-70021428D01*
X96545523Y-70097619D01*
X96621714Y-70173809D01*
X96736000Y-70211904D01*
X96926476Y-70211904D01*
X98088380Y-67671904D02*
X98355047Y-67290952D01*
X98545523Y-67671904D02*
X98545523Y-66871904D01*
X98240761Y-66871904D01*
X98164571Y-66910000D01*
X98126476Y-66948095D01*
X98088380Y-67024285D01*
X98088380Y-67138571D01*
X98126476Y-67214761D01*
X98164571Y-67252857D01*
X98240761Y-67290952D01*
X98545523Y-67290952D01*
X97783619Y-67443333D02*
X97402666Y-67443333D01*
X97859809Y-67671904D02*
X97593142Y-66871904D01*
X97326476Y-67671904D01*
X97136000Y-66871904D02*
X96945523Y-67671904D01*
X96793142Y-67100476D01*
X96640761Y-67671904D01*
X96450285Y-66871904D01*
X97802666Y-79952857D02*
X98069333Y-79952857D01*
X98069333Y-80371904D02*
X98069333Y-79571904D01*
X97688380Y-79571904D01*
X97002666Y-79571904D02*
X97383619Y-79571904D01*
X97421714Y-79952857D01*
X97383619Y-79914761D01*
X97307428Y-79876666D01*
X97116952Y-79876666D01*
X97040761Y-79914761D01*
X97002666Y-79952857D01*
X96964571Y-80029047D01*
X96964571Y-80219523D01*
X97002666Y-80295714D01*
X97040761Y-80333809D01*
X97116952Y-80371904D01*
X97307428Y-80371904D01*
X97383619Y-80333809D01*
X97421714Y-80295714D01*
X97802666Y-82492857D02*
X98069333Y-82492857D01*
X98069333Y-82911904D02*
X98069333Y-82111904D01*
X97688380Y-82111904D01*
X97040761Y-82111904D02*
X97193142Y-82111904D01*
X97269333Y-82150000D01*
X97307428Y-82188095D01*
X97383619Y-82302380D01*
X97421714Y-82454761D01*
X97421714Y-82759523D01*
X97383619Y-82835714D01*
X97345523Y-82873809D01*
X97269333Y-82911904D01*
X97116952Y-82911904D01*
X97040761Y-82873809D01*
X97002666Y-82835714D01*
X96964571Y-82759523D01*
X96964571Y-82569047D01*
X97002666Y-82492857D01*
X97040761Y-82454761D01*
X97116952Y-82416666D01*
X97269333Y-82416666D01*
X97345523Y-82454761D01*
X97383619Y-82492857D01*
X97421714Y-82569047D01*
X97802666Y-85032857D02*
X98069333Y-85032857D01*
X98069333Y-85451904D02*
X98069333Y-84651904D01*
X97688380Y-84651904D01*
X97459809Y-84651904D02*
X96926476Y-84651904D01*
X97269333Y-85451904D01*
X97859809Y-92652857D02*
X97745523Y-92690952D01*
X97707428Y-92729047D01*
X97669333Y-92805238D01*
X97669333Y-92919523D01*
X97707428Y-92995714D01*
X97745523Y-93033809D01*
X97821714Y-93071904D01*
X98126476Y-93071904D01*
X98126476Y-92271904D01*
X97859809Y-92271904D01*
X97783619Y-92310000D01*
X97745523Y-92348095D01*
X97707428Y-92424285D01*
X97707428Y-92500476D01*
X97745523Y-92576666D01*
X97783619Y-92614761D01*
X97859809Y-92652857D01*
X98126476Y-92652857D01*
X97364571Y-92348095D02*
X97326476Y-92310000D01*
X97250285Y-92271904D01*
X97059809Y-92271904D01*
X96983619Y-92310000D01*
X96945523Y-92348095D01*
X96907428Y-92424285D01*
X96907428Y-92500476D01*
X96945523Y-92614761D01*
X97402666Y-93071904D01*
X96907428Y-93071904D01*
X90693604Y-66871904D02*
X90236461Y-66871904D01*
X90465032Y-67671904D02*
X90465032Y-66871904D01*
X90045985Y-66871904D02*
X89512651Y-67671904D01*
X89512651Y-66871904D02*
X90045985Y-67671904D01*
X89055508Y-66871904D02*
X88979318Y-66871904D01*
X88903128Y-66910000D01*
X88865032Y-66948095D01*
X88826937Y-67024285D01*
X88788842Y-67176666D01*
X88788842Y-67367142D01*
X88826937Y-67519523D01*
X88865032Y-67595714D01*
X88903128Y-67633809D01*
X88979318Y-67671904D01*
X89055508Y-67671904D01*
X89131699Y-67633809D01*
X89169794Y-67595714D01*
X89207889Y-67519523D01*
X89245985Y-67367142D01*
X89245985Y-67176666D01*
X89207889Y-67024285D01*
X89169794Y-66948095D01*
X89131699Y-66910000D01*
X89055508Y-66871904D01*
X87874556Y-66833809D02*
X88560270Y-67862380D01*
X87607889Y-67671904D02*
X87607889Y-66871904D01*
X87417413Y-66871904D01*
X87303128Y-66910000D01*
X87226937Y-66986190D01*
X87188842Y-67062380D01*
X87150747Y-67214761D01*
X87150747Y-67329047D01*
X87188842Y-67481428D01*
X87226937Y-67557619D01*
X87303128Y-67633809D01*
X87417413Y-67671904D01*
X87607889Y-67671904D01*
X86884080Y-66871904D02*
X86388842Y-66871904D01*
X86655508Y-67176666D01*
X86541223Y-67176666D01*
X86465032Y-67214761D01*
X86426937Y-67252857D01*
X86388842Y-67329047D01*
X86388842Y-67519523D01*
X86426937Y-67595714D01*
X86465032Y-67633809D01*
X86541223Y-67671904D01*
X86769794Y-67671904D01*
X86845985Y-67633809D01*
X86884080Y-67595714D01*
X97648333Y-72693809D02*
X97534047Y-72731904D01*
X97343571Y-72731904D01*
X97267380Y-72693809D01*
X97229285Y-72655714D01*
X97191190Y-72579523D01*
X97191190Y-72503333D01*
X97229285Y-72427142D01*
X97267380Y-72389047D01*
X97343571Y-72350952D01*
X97495952Y-72312857D01*
X97572142Y-72274761D01*
X97610238Y-72236666D01*
X97648333Y-72160476D01*
X97648333Y-72084285D01*
X97610238Y-72008095D01*
X97572142Y-71970000D01*
X97495952Y-71931904D01*
X97305476Y-71931904D01*
X97191190Y-71970000D01*
X96962619Y-71931904D02*
X96505476Y-71931904D01*
X96734047Y-72731904D02*
X96734047Y-71931904D01*
G04 #@! TD*
M02*
