G04 #@! TF.GenerationSoftware,KiCad,Pcbnew,(5.1.5)-3*
G04 #@! TF.CreationDate,2020-09-13T03:10:47+03:00*
G04 #@! TF.ProjectId,taro,7461726f-2e6b-4696-9361-645f70636258,rev?*
G04 #@! TF.SameCoordinates,Original*
G04 #@! TF.FileFunction,Soldermask,Top*
G04 #@! TF.FilePolarity,Negative*
%FSLAX46Y46*%
G04 Gerber Fmt 4.6, Leading zero omitted, Abs format (unit mm)*
G04 Created by KiCad (PCBNEW (5.1.5)-3) date 2020-09-13 03:10:47*
%MOMM*%
%LPD*%
G04 APERTURE LIST*
%ADD10C,0.150000*%
G04 APERTURE END LIST*
D10*
G36*
X153205997Y-137570342D02*
G01*
X153290666Y-137587183D01*
X153356738Y-137614551D01*
X153450177Y-137653255D01*
X153593736Y-137749178D01*
X153715822Y-137871264D01*
X153811745Y-138014823D01*
X153877817Y-138174335D01*
X153911500Y-138343671D01*
X153911500Y-138516329D01*
X153877817Y-138685665D01*
X153811745Y-138845177D01*
X153715822Y-138988736D01*
X153593736Y-139110822D01*
X153450177Y-139206745D01*
X153356738Y-139245449D01*
X153290666Y-139272817D01*
X153205997Y-139289659D01*
X153121329Y-139306500D01*
X152948671Y-139306500D01*
X152864003Y-139289659D01*
X152779334Y-139272817D01*
X152713262Y-139245449D01*
X152619823Y-139206745D01*
X152476264Y-139110822D01*
X152354178Y-138988736D01*
X152258255Y-138845177D01*
X152192183Y-138685665D01*
X152158500Y-138516329D01*
X152158500Y-138343671D01*
X152192183Y-138174335D01*
X152258255Y-138014823D01*
X152354178Y-137871264D01*
X152476264Y-137749178D01*
X152619823Y-137653255D01*
X152713262Y-137614551D01*
X152779334Y-137587183D01*
X152864003Y-137570342D01*
X152948671Y-137553500D01*
X153121329Y-137553500D01*
X153205997Y-137570342D01*
G37*
G36*
X146291500Y-139306500D02*
G01*
X144538500Y-139306500D01*
X144538500Y-137553500D01*
X146291500Y-137553500D01*
X146291500Y-139306500D01*
G37*
G36*
X51041500Y-139306500D02*
G01*
X49288500Y-139306500D01*
X49288500Y-137553500D01*
X51041500Y-137553500D01*
X51041500Y-139306500D01*
G37*
G36*
X57955997Y-137570342D02*
G01*
X58040666Y-137587183D01*
X58106738Y-137614551D01*
X58200177Y-137653255D01*
X58343736Y-137749178D01*
X58465822Y-137871264D01*
X58561745Y-138014823D01*
X58627817Y-138174335D01*
X58661500Y-138343671D01*
X58661500Y-138516329D01*
X58627817Y-138685665D01*
X58561745Y-138845177D01*
X58465822Y-138988736D01*
X58343736Y-139110822D01*
X58200177Y-139206745D01*
X58106738Y-139245449D01*
X58040666Y-139272817D01*
X57955997Y-139289659D01*
X57871329Y-139306500D01*
X57698671Y-139306500D01*
X57614003Y-139289659D01*
X57529334Y-139272817D01*
X57463262Y-139245449D01*
X57369823Y-139206745D01*
X57226264Y-139110822D01*
X57104178Y-138988736D01*
X57008255Y-138845177D01*
X56942183Y-138685665D01*
X56908500Y-138516329D01*
X56908500Y-138343671D01*
X56942183Y-138174335D01*
X57008255Y-138014823D01*
X57104178Y-137871264D01*
X57226264Y-137749178D01*
X57369823Y-137653255D01*
X57463262Y-137614551D01*
X57529334Y-137587183D01*
X57614003Y-137570342D01*
X57698671Y-137553500D01*
X57871329Y-137553500D01*
X57955997Y-137570342D01*
G37*
G36*
X70091500Y-139306500D02*
G01*
X68338500Y-139306500D01*
X68338500Y-137553500D01*
X70091500Y-137553500D01*
X70091500Y-139306500D01*
G37*
G36*
X77005997Y-137570342D02*
G01*
X77090666Y-137587183D01*
X77156738Y-137614551D01*
X77250177Y-137653255D01*
X77393736Y-137749178D01*
X77515822Y-137871264D01*
X77611745Y-138014823D01*
X77677817Y-138174335D01*
X77711500Y-138343671D01*
X77711500Y-138516329D01*
X77677817Y-138685665D01*
X77611745Y-138845177D01*
X77515822Y-138988736D01*
X77393736Y-139110822D01*
X77250177Y-139206745D01*
X77156738Y-139245449D01*
X77090666Y-139272817D01*
X77005997Y-139289659D01*
X76921329Y-139306500D01*
X76748671Y-139306500D01*
X76664003Y-139289659D01*
X76579334Y-139272817D01*
X76513262Y-139245449D01*
X76419823Y-139206745D01*
X76276264Y-139110822D01*
X76154178Y-138988736D01*
X76058255Y-138845177D01*
X75992183Y-138685665D01*
X75958500Y-138516329D01*
X75958500Y-138343671D01*
X75992183Y-138174335D01*
X76058255Y-138014823D01*
X76154178Y-137871264D01*
X76276264Y-137749178D01*
X76419823Y-137653255D01*
X76513262Y-137614551D01*
X76579334Y-137587183D01*
X76664003Y-137570342D01*
X76748671Y-137553500D01*
X76921329Y-137553500D01*
X77005997Y-137570342D01*
G37*
G36*
X89141500Y-139306500D02*
G01*
X87388500Y-139306500D01*
X87388500Y-137553500D01*
X89141500Y-137553500D01*
X89141500Y-139306500D01*
G37*
G36*
X108191500Y-139306500D02*
G01*
X106438500Y-139306500D01*
X106438500Y-137553500D01*
X108191500Y-137553500D01*
X108191500Y-139306500D01*
G37*
G36*
X115105997Y-137570342D02*
G01*
X115190666Y-137587183D01*
X115256738Y-137614551D01*
X115350177Y-137653255D01*
X115493736Y-137749178D01*
X115615822Y-137871264D01*
X115711745Y-138014823D01*
X115777817Y-138174335D01*
X115811500Y-138343671D01*
X115811500Y-138516329D01*
X115777817Y-138685665D01*
X115711745Y-138845177D01*
X115615822Y-138988736D01*
X115493736Y-139110822D01*
X115350177Y-139206745D01*
X115256738Y-139245449D01*
X115190666Y-139272817D01*
X115105997Y-139289659D01*
X115021329Y-139306500D01*
X114848671Y-139306500D01*
X114764003Y-139289659D01*
X114679334Y-139272817D01*
X114613262Y-139245449D01*
X114519823Y-139206745D01*
X114376264Y-139110822D01*
X114254178Y-138988736D01*
X114158255Y-138845177D01*
X114092183Y-138685665D01*
X114058500Y-138516329D01*
X114058500Y-138343671D01*
X114092183Y-138174335D01*
X114158255Y-138014823D01*
X114254178Y-137871264D01*
X114376264Y-137749178D01*
X114519823Y-137653255D01*
X114613262Y-137614551D01*
X114679334Y-137587183D01*
X114764003Y-137570342D01*
X114848671Y-137553500D01*
X115021329Y-137553500D01*
X115105997Y-137570342D01*
G37*
G36*
X127241500Y-139306500D02*
G01*
X125488500Y-139306500D01*
X125488500Y-137553500D01*
X127241500Y-137553500D01*
X127241500Y-139306500D01*
G37*
G36*
X134155997Y-137570342D02*
G01*
X134240666Y-137587183D01*
X134306738Y-137614551D01*
X134400177Y-137653255D01*
X134543736Y-137749178D01*
X134665822Y-137871264D01*
X134761745Y-138014823D01*
X134827817Y-138174335D01*
X134861500Y-138343671D01*
X134861500Y-138516329D01*
X134827817Y-138685665D01*
X134761745Y-138845177D01*
X134665822Y-138988736D01*
X134543736Y-139110822D01*
X134400177Y-139206745D01*
X134306738Y-139245449D01*
X134240666Y-139272817D01*
X134155997Y-139289659D01*
X134071329Y-139306500D01*
X133898671Y-139306500D01*
X133814003Y-139289659D01*
X133729334Y-139272817D01*
X133663262Y-139245449D01*
X133569823Y-139206745D01*
X133426264Y-139110822D01*
X133304178Y-138988736D01*
X133208255Y-138845177D01*
X133142183Y-138685665D01*
X133108500Y-138516329D01*
X133108500Y-138343671D01*
X133142183Y-138174335D01*
X133208255Y-138014823D01*
X133304178Y-137871264D01*
X133426264Y-137749178D01*
X133569823Y-137653255D01*
X133663262Y-137614551D01*
X133729334Y-137587183D01*
X133814003Y-137570342D01*
X133898671Y-137553500D01*
X134071329Y-137553500D01*
X134155997Y-137570342D01*
G37*
G36*
X96055997Y-137570342D02*
G01*
X96140666Y-137587183D01*
X96206738Y-137614551D01*
X96300177Y-137653255D01*
X96443736Y-137749178D01*
X96565822Y-137871264D01*
X96661745Y-138014823D01*
X96727817Y-138174335D01*
X96761500Y-138343671D01*
X96761500Y-138516329D01*
X96727817Y-138685665D01*
X96661745Y-138845177D01*
X96565822Y-138988736D01*
X96443736Y-139110822D01*
X96300177Y-139206745D01*
X96206738Y-139245449D01*
X96140666Y-139272817D01*
X96055997Y-139289659D01*
X95971329Y-139306500D01*
X95798671Y-139306500D01*
X95714003Y-139289659D01*
X95629334Y-139272817D01*
X95563262Y-139245449D01*
X95469823Y-139206745D01*
X95326264Y-139110822D01*
X95204178Y-138988736D01*
X95108255Y-138845177D01*
X95042183Y-138685665D01*
X95008500Y-138516329D01*
X95008500Y-138343671D01*
X95042183Y-138174335D01*
X95108255Y-138014823D01*
X95204178Y-137871264D01*
X95326264Y-137749178D01*
X95469823Y-137653255D01*
X95563262Y-137614551D01*
X95629334Y-137587183D01*
X95714003Y-137570342D01*
X95798671Y-137553500D01*
X95971329Y-137553500D01*
X96055997Y-137570342D01*
G37*
G36*
X127324575Y-124876286D02*
G01*
X127575086Y-124930333D01*
X127708357Y-124988074D01*
X127810239Y-125032215D01*
X127921688Y-125109314D01*
X128020996Y-125178014D01*
X128020998Y-125178016D01*
X128199262Y-125362130D01*
X128338180Y-125577483D01*
X128432419Y-125815804D01*
X128465019Y-125994753D01*
X128478351Y-126067928D01*
X128474213Y-126324169D01*
X128420166Y-126574680D01*
X128343813Y-126750911D01*
X127470846Y-128322549D01*
X127361579Y-128480497D01*
X127361577Y-128480499D01*
X127177463Y-128658763D01*
X126992953Y-128777785D01*
X126962108Y-128797682D01*
X126939546Y-128806603D01*
X126723789Y-128891920D01*
X126544840Y-128924520D01*
X126471665Y-128937852D01*
X126215425Y-128933714D01*
X125964914Y-128879667D01*
X125831643Y-128821926D01*
X125729761Y-128777785D01*
X125618312Y-128700686D01*
X125519004Y-128631986D01*
X125519002Y-128631984D01*
X125340738Y-128447870D01*
X125201820Y-128232517D01*
X125107581Y-127994196D01*
X125074981Y-127815247D01*
X125061649Y-127742072D01*
X125065787Y-127485832D01*
X125119834Y-127235321D01*
X125196187Y-127059090D01*
X126069154Y-125487451D01*
X126178421Y-125329503D01*
X126178423Y-125329501D01*
X126362537Y-125151237D01*
X126577889Y-125012318D01*
X126816210Y-124918080D01*
X126995159Y-124885480D01*
X127068334Y-124872148D01*
X127324575Y-124876286D01*
G37*
G36*
X108274575Y-124876286D02*
G01*
X108525086Y-124930333D01*
X108658357Y-124988074D01*
X108760239Y-125032215D01*
X108871688Y-125109314D01*
X108970996Y-125178014D01*
X108970998Y-125178016D01*
X109149262Y-125362130D01*
X109288180Y-125577483D01*
X109382419Y-125815804D01*
X109415019Y-125994753D01*
X109428351Y-126067928D01*
X109424213Y-126324169D01*
X109370166Y-126574680D01*
X109293813Y-126750911D01*
X108420846Y-128322549D01*
X108311579Y-128480497D01*
X108311577Y-128480499D01*
X108127463Y-128658763D01*
X107942953Y-128777785D01*
X107912108Y-128797682D01*
X107889546Y-128806603D01*
X107673789Y-128891920D01*
X107494840Y-128924520D01*
X107421665Y-128937852D01*
X107165425Y-128933714D01*
X106914914Y-128879667D01*
X106781643Y-128821926D01*
X106679761Y-128777785D01*
X106568312Y-128700686D01*
X106469004Y-128631986D01*
X106469002Y-128631984D01*
X106290738Y-128447870D01*
X106151820Y-128232517D01*
X106057581Y-127994196D01*
X106024981Y-127815247D01*
X106011649Y-127742072D01*
X106015787Y-127485832D01*
X106069834Y-127235321D01*
X106146187Y-127059090D01*
X107019154Y-125487451D01*
X107128421Y-125329503D01*
X107128423Y-125329501D01*
X107312537Y-125151237D01*
X107527889Y-125012318D01*
X107766210Y-124918080D01*
X107945159Y-124885480D01*
X108018334Y-124872148D01*
X108274575Y-124876286D01*
G37*
G36*
X89224575Y-124876286D02*
G01*
X89475086Y-124930333D01*
X89608357Y-124988074D01*
X89710239Y-125032215D01*
X89821688Y-125109314D01*
X89920996Y-125178014D01*
X89920998Y-125178016D01*
X90099262Y-125362130D01*
X90238180Y-125577483D01*
X90332419Y-125815804D01*
X90365019Y-125994753D01*
X90378351Y-126067928D01*
X90374213Y-126324169D01*
X90320166Y-126574680D01*
X90243813Y-126750911D01*
X89370846Y-128322549D01*
X89261579Y-128480497D01*
X89261577Y-128480499D01*
X89077463Y-128658763D01*
X88892953Y-128777785D01*
X88862108Y-128797682D01*
X88839546Y-128806603D01*
X88623789Y-128891920D01*
X88444840Y-128924520D01*
X88371665Y-128937852D01*
X88115425Y-128933714D01*
X87864914Y-128879667D01*
X87731643Y-128821926D01*
X87629761Y-128777785D01*
X87518312Y-128700686D01*
X87419004Y-128631986D01*
X87419002Y-128631984D01*
X87240738Y-128447870D01*
X87101820Y-128232517D01*
X87007581Y-127994196D01*
X86974981Y-127815247D01*
X86961649Y-127742072D01*
X86965787Y-127485832D01*
X87019834Y-127235321D01*
X87096187Y-127059090D01*
X87969154Y-125487451D01*
X88078421Y-125329503D01*
X88078423Y-125329501D01*
X88262537Y-125151237D01*
X88477889Y-125012318D01*
X88716210Y-124918080D01*
X88895159Y-124885480D01*
X88968334Y-124872148D01*
X89224575Y-124876286D01*
G37*
G36*
X70174575Y-124876286D02*
G01*
X70425086Y-124930333D01*
X70558357Y-124988074D01*
X70660239Y-125032215D01*
X70771688Y-125109314D01*
X70870996Y-125178014D01*
X70870998Y-125178016D01*
X71049262Y-125362130D01*
X71188180Y-125577483D01*
X71282419Y-125815804D01*
X71315019Y-125994753D01*
X71328351Y-126067928D01*
X71324213Y-126324169D01*
X71270166Y-126574680D01*
X71193813Y-126750911D01*
X70320846Y-128322549D01*
X70211579Y-128480497D01*
X70211577Y-128480499D01*
X70027463Y-128658763D01*
X69842953Y-128777785D01*
X69812108Y-128797682D01*
X69789546Y-128806603D01*
X69573789Y-128891920D01*
X69394840Y-128924520D01*
X69321665Y-128937852D01*
X69065425Y-128933714D01*
X68814914Y-128879667D01*
X68681643Y-128821926D01*
X68579761Y-128777785D01*
X68468312Y-128700686D01*
X68369004Y-128631986D01*
X68369002Y-128631984D01*
X68190738Y-128447870D01*
X68051820Y-128232517D01*
X67957581Y-127994196D01*
X67924981Y-127815247D01*
X67911649Y-127742072D01*
X67915787Y-127485832D01*
X67969834Y-127235321D01*
X68046187Y-127059090D01*
X68919154Y-125487451D01*
X69028421Y-125329503D01*
X69028423Y-125329501D01*
X69212537Y-125151237D01*
X69427889Y-125012318D01*
X69666210Y-124918080D01*
X69845159Y-124885480D01*
X69918334Y-124872148D01*
X70174575Y-124876286D01*
G37*
G36*
X51124575Y-124876286D02*
G01*
X51375086Y-124930333D01*
X51508357Y-124988074D01*
X51610239Y-125032215D01*
X51721688Y-125109314D01*
X51820996Y-125178014D01*
X51820998Y-125178016D01*
X51999262Y-125362130D01*
X52138180Y-125577483D01*
X52232419Y-125815804D01*
X52265019Y-125994753D01*
X52278351Y-126067928D01*
X52274213Y-126324169D01*
X52220166Y-126574680D01*
X52143813Y-126750911D01*
X51270846Y-128322549D01*
X51161579Y-128480497D01*
X51161577Y-128480499D01*
X50977463Y-128658763D01*
X50792953Y-128777785D01*
X50762108Y-128797682D01*
X50739546Y-128806603D01*
X50523789Y-128891920D01*
X50344840Y-128924520D01*
X50271665Y-128937852D01*
X50015425Y-128933714D01*
X49764914Y-128879667D01*
X49631643Y-128821926D01*
X49529761Y-128777785D01*
X49418312Y-128700686D01*
X49319004Y-128631986D01*
X49319002Y-128631984D01*
X49140738Y-128447870D01*
X49001820Y-128232517D01*
X48907581Y-127994196D01*
X48874981Y-127815247D01*
X48861649Y-127742072D01*
X48865787Y-127485832D01*
X48919834Y-127235321D01*
X48996187Y-127059090D01*
X49869154Y-125487451D01*
X49978421Y-125329503D01*
X49978423Y-125329501D01*
X50162537Y-125151237D01*
X50377889Y-125012318D01*
X50616210Y-124918080D01*
X50795159Y-124885480D01*
X50868334Y-124872148D01*
X51124575Y-124876286D01*
G37*
G36*
X146374575Y-124876286D02*
G01*
X146625086Y-124930333D01*
X146758357Y-124988074D01*
X146860239Y-125032215D01*
X146971688Y-125109314D01*
X147070996Y-125178014D01*
X147070998Y-125178016D01*
X147249262Y-125362130D01*
X147388180Y-125577483D01*
X147482419Y-125815804D01*
X147515019Y-125994753D01*
X147528351Y-126067928D01*
X147524213Y-126324169D01*
X147470166Y-126574680D01*
X147393813Y-126750911D01*
X146520846Y-128322549D01*
X146411579Y-128480497D01*
X146411577Y-128480499D01*
X146227463Y-128658763D01*
X146042953Y-128777785D01*
X146012108Y-128797682D01*
X145989546Y-128806603D01*
X145773789Y-128891920D01*
X145594840Y-128924520D01*
X145521665Y-128937852D01*
X145265425Y-128933714D01*
X145014914Y-128879667D01*
X144881643Y-128821926D01*
X144779761Y-128777785D01*
X144668312Y-128700686D01*
X144569004Y-128631986D01*
X144569002Y-128631984D01*
X144390738Y-128447870D01*
X144251820Y-128232517D01*
X144157581Y-127994196D01*
X144124981Y-127815247D01*
X144111649Y-127742072D01*
X144115787Y-127485832D01*
X144169834Y-127235321D01*
X144246187Y-127059090D01*
X145119154Y-125487451D01*
X145228421Y-125329503D01*
X145228423Y-125329501D01*
X145412537Y-125151237D01*
X145627889Y-125012318D01*
X145866210Y-124918080D01*
X146045159Y-124885480D01*
X146118334Y-124872148D01*
X146374575Y-124876286D01*
G37*
G36*
X56856379Y-123833813D02*
G01*
X57095991Y-123924713D01*
X57313265Y-124060613D01*
X57499852Y-124236288D01*
X57611209Y-124392550D01*
X57648580Y-124444990D01*
X57753735Y-124678697D01*
X57753736Y-124678701D01*
X57811276Y-124928428D01*
X57817058Y-125120394D01*
X57802802Y-125329501D01*
X57768916Y-125826571D01*
X57737135Y-126015983D01*
X57646235Y-126255595D01*
X57602817Y-126325010D01*
X57510335Y-126472869D01*
X57334660Y-126659456D01*
X57178398Y-126770813D01*
X57125958Y-126808184D01*
X56892251Y-126913339D01*
X56892247Y-126913340D01*
X56642521Y-126970880D01*
X56386366Y-126978594D01*
X56386362Y-126978594D01*
X56133621Y-126936187D01*
X55894009Y-126845287D01*
X55676735Y-126709387D01*
X55623703Y-126659456D01*
X55490148Y-126533712D01*
X55378791Y-126377450D01*
X55341420Y-126325010D01*
X55236265Y-126091303D01*
X55178724Y-125841571D01*
X55177948Y-125815804D01*
X55172942Y-125649608D01*
X55221084Y-124943428D01*
X55233044Y-124872148D01*
X55252865Y-124754017D01*
X55343765Y-124514405D01*
X55479665Y-124297131D01*
X55536950Y-124236288D01*
X55655340Y-124110544D01*
X55811602Y-123999187D01*
X55864042Y-123961816D01*
X56097749Y-123856661D01*
X56097753Y-123856660D01*
X56347479Y-123799120D01*
X56603634Y-123791406D01*
X56603638Y-123791406D01*
X56856379Y-123833813D01*
G37*
G36*
X75906379Y-123833813D02*
G01*
X76145991Y-123924713D01*
X76363265Y-124060613D01*
X76549852Y-124236288D01*
X76661209Y-124392550D01*
X76698580Y-124444990D01*
X76803735Y-124678697D01*
X76803736Y-124678701D01*
X76861276Y-124928428D01*
X76867058Y-125120394D01*
X76852802Y-125329501D01*
X76818916Y-125826571D01*
X76787135Y-126015983D01*
X76696235Y-126255595D01*
X76652817Y-126325010D01*
X76560335Y-126472869D01*
X76384660Y-126659456D01*
X76228398Y-126770813D01*
X76175958Y-126808184D01*
X75942251Y-126913339D01*
X75942247Y-126913340D01*
X75692521Y-126970880D01*
X75436366Y-126978594D01*
X75436362Y-126978594D01*
X75183621Y-126936187D01*
X74944009Y-126845287D01*
X74726735Y-126709387D01*
X74673703Y-126659456D01*
X74540148Y-126533712D01*
X74428791Y-126377450D01*
X74391420Y-126325010D01*
X74286265Y-126091303D01*
X74228724Y-125841571D01*
X74227948Y-125815804D01*
X74222942Y-125649608D01*
X74271084Y-124943428D01*
X74283044Y-124872148D01*
X74302865Y-124754017D01*
X74393765Y-124514405D01*
X74529665Y-124297131D01*
X74586950Y-124236288D01*
X74705340Y-124110544D01*
X74861602Y-123999187D01*
X74914042Y-123961816D01*
X75147749Y-123856661D01*
X75147753Y-123856660D01*
X75397479Y-123799120D01*
X75653634Y-123791406D01*
X75653638Y-123791406D01*
X75906379Y-123833813D01*
G37*
G36*
X94956379Y-123833813D02*
G01*
X95195991Y-123924713D01*
X95413265Y-124060613D01*
X95599852Y-124236288D01*
X95711209Y-124392550D01*
X95748580Y-124444990D01*
X95853735Y-124678697D01*
X95853736Y-124678701D01*
X95911276Y-124928428D01*
X95917058Y-125120394D01*
X95902802Y-125329501D01*
X95868916Y-125826571D01*
X95837135Y-126015983D01*
X95746235Y-126255595D01*
X95702817Y-126325010D01*
X95610335Y-126472869D01*
X95434660Y-126659456D01*
X95278398Y-126770813D01*
X95225958Y-126808184D01*
X94992251Y-126913339D01*
X94992247Y-126913340D01*
X94742521Y-126970880D01*
X94486366Y-126978594D01*
X94486362Y-126978594D01*
X94233621Y-126936187D01*
X93994009Y-126845287D01*
X93776735Y-126709387D01*
X93723703Y-126659456D01*
X93590148Y-126533712D01*
X93478791Y-126377450D01*
X93441420Y-126325010D01*
X93336265Y-126091303D01*
X93278724Y-125841571D01*
X93277948Y-125815804D01*
X93272942Y-125649608D01*
X93321084Y-124943428D01*
X93333044Y-124872148D01*
X93352865Y-124754017D01*
X93443765Y-124514405D01*
X93579665Y-124297131D01*
X93636950Y-124236288D01*
X93755340Y-124110544D01*
X93911602Y-123999187D01*
X93964042Y-123961816D01*
X94197749Y-123856661D01*
X94197753Y-123856660D01*
X94447479Y-123799120D01*
X94703634Y-123791406D01*
X94703638Y-123791406D01*
X94956379Y-123833813D01*
G37*
G36*
X114006379Y-123833813D02*
G01*
X114245991Y-123924713D01*
X114463265Y-124060613D01*
X114649852Y-124236288D01*
X114761209Y-124392550D01*
X114798580Y-124444990D01*
X114903735Y-124678697D01*
X114903736Y-124678701D01*
X114961276Y-124928428D01*
X114967058Y-125120394D01*
X114952802Y-125329501D01*
X114918916Y-125826571D01*
X114887135Y-126015983D01*
X114796235Y-126255595D01*
X114752817Y-126325010D01*
X114660335Y-126472869D01*
X114484660Y-126659456D01*
X114328398Y-126770813D01*
X114275958Y-126808184D01*
X114042251Y-126913339D01*
X114042247Y-126913340D01*
X113792521Y-126970880D01*
X113536366Y-126978594D01*
X113536362Y-126978594D01*
X113283621Y-126936187D01*
X113044009Y-126845287D01*
X112826735Y-126709387D01*
X112773703Y-126659456D01*
X112640148Y-126533712D01*
X112528791Y-126377450D01*
X112491420Y-126325010D01*
X112386265Y-126091303D01*
X112328724Y-125841571D01*
X112327948Y-125815804D01*
X112322942Y-125649608D01*
X112371084Y-124943428D01*
X112383044Y-124872148D01*
X112402865Y-124754017D01*
X112493765Y-124514405D01*
X112629665Y-124297131D01*
X112686950Y-124236288D01*
X112805340Y-124110544D01*
X112961602Y-123999187D01*
X113014042Y-123961816D01*
X113247749Y-123856661D01*
X113247753Y-123856660D01*
X113497479Y-123799120D01*
X113753634Y-123791406D01*
X113753638Y-123791406D01*
X114006379Y-123833813D01*
G37*
G36*
X133056379Y-123833813D02*
G01*
X133295991Y-123924713D01*
X133513265Y-124060613D01*
X133699852Y-124236288D01*
X133811209Y-124392550D01*
X133848580Y-124444990D01*
X133953735Y-124678697D01*
X133953736Y-124678701D01*
X134011276Y-124928428D01*
X134017058Y-125120394D01*
X134002802Y-125329501D01*
X133968916Y-125826571D01*
X133937135Y-126015983D01*
X133846235Y-126255595D01*
X133802817Y-126325010D01*
X133710335Y-126472869D01*
X133534660Y-126659456D01*
X133378398Y-126770813D01*
X133325958Y-126808184D01*
X133092251Y-126913339D01*
X133092247Y-126913340D01*
X132842521Y-126970880D01*
X132586366Y-126978594D01*
X132586362Y-126978594D01*
X132333621Y-126936187D01*
X132094009Y-126845287D01*
X131876735Y-126709387D01*
X131823703Y-126659456D01*
X131690148Y-126533712D01*
X131578791Y-126377450D01*
X131541420Y-126325010D01*
X131436265Y-126091303D01*
X131378724Y-125841571D01*
X131377948Y-125815804D01*
X131372942Y-125649608D01*
X131421084Y-124943428D01*
X131433044Y-124872148D01*
X131452865Y-124754017D01*
X131543765Y-124514405D01*
X131679665Y-124297131D01*
X131736950Y-124236288D01*
X131855340Y-124110544D01*
X132011602Y-123999187D01*
X132064042Y-123961816D01*
X132297749Y-123856661D01*
X132297753Y-123856660D01*
X132547479Y-123799120D01*
X132803634Y-123791406D01*
X132803638Y-123791406D01*
X133056379Y-123833813D01*
G37*
G36*
X152106379Y-123833813D02*
G01*
X152345991Y-123924713D01*
X152563265Y-124060613D01*
X152749852Y-124236288D01*
X152861209Y-124392550D01*
X152898580Y-124444990D01*
X153003735Y-124678697D01*
X153003736Y-124678701D01*
X153061276Y-124928428D01*
X153067058Y-125120394D01*
X153052802Y-125329501D01*
X153018916Y-125826571D01*
X152987135Y-126015983D01*
X152896235Y-126255595D01*
X152852817Y-126325010D01*
X152760335Y-126472869D01*
X152584660Y-126659456D01*
X152428398Y-126770813D01*
X152375958Y-126808184D01*
X152142251Y-126913339D01*
X152142247Y-126913340D01*
X151892521Y-126970880D01*
X151636366Y-126978594D01*
X151636362Y-126978594D01*
X151383621Y-126936187D01*
X151144009Y-126845287D01*
X150926735Y-126709387D01*
X150873703Y-126659456D01*
X150740148Y-126533712D01*
X150628791Y-126377450D01*
X150591420Y-126325010D01*
X150486265Y-126091303D01*
X150428724Y-125841571D01*
X150427948Y-125815804D01*
X150422942Y-125649608D01*
X150471084Y-124943428D01*
X150483044Y-124872148D01*
X150502865Y-124754017D01*
X150593765Y-124514405D01*
X150729665Y-124297131D01*
X150786950Y-124236288D01*
X150905340Y-124110544D01*
X151061602Y-123999187D01*
X151114042Y-123961816D01*
X151347749Y-123856661D01*
X151347753Y-123856660D01*
X151597479Y-123799120D01*
X151853634Y-123791406D01*
X151853638Y-123791406D01*
X152106379Y-123833813D01*
G37*
G36*
X51041500Y-120256500D02*
G01*
X49288500Y-120256500D01*
X49288500Y-118503500D01*
X51041500Y-118503500D01*
X51041500Y-120256500D01*
G37*
G36*
X57955997Y-118520342D02*
G01*
X58040666Y-118537183D01*
X58106738Y-118564551D01*
X58200177Y-118603255D01*
X58343736Y-118699178D01*
X58465822Y-118821264D01*
X58561745Y-118964823D01*
X58627817Y-119124335D01*
X58661500Y-119293671D01*
X58661500Y-119466329D01*
X58627817Y-119635665D01*
X58561745Y-119795177D01*
X58465822Y-119938736D01*
X58343736Y-120060822D01*
X58200177Y-120156745D01*
X58106738Y-120195449D01*
X58040666Y-120222817D01*
X57955997Y-120239659D01*
X57871329Y-120256500D01*
X57698671Y-120256500D01*
X57614003Y-120239659D01*
X57529334Y-120222817D01*
X57463262Y-120195449D01*
X57369823Y-120156745D01*
X57226264Y-120060822D01*
X57104178Y-119938736D01*
X57008255Y-119795177D01*
X56942183Y-119635665D01*
X56908500Y-119466329D01*
X56908500Y-119293671D01*
X56942183Y-119124335D01*
X57008255Y-118964823D01*
X57104178Y-118821264D01*
X57226264Y-118699178D01*
X57369823Y-118603255D01*
X57463262Y-118564551D01*
X57529334Y-118537183D01*
X57614003Y-118520342D01*
X57698671Y-118503500D01*
X57871329Y-118503500D01*
X57955997Y-118520342D01*
G37*
G36*
X70091500Y-120256500D02*
G01*
X68338500Y-120256500D01*
X68338500Y-118503500D01*
X70091500Y-118503500D01*
X70091500Y-120256500D01*
G37*
G36*
X89141500Y-120256500D02*
G01*
X87388500Y-120256500D01*
X87388500Y-118503500D01*
X89141500Y-118503500D01*
X89141500Y-120256500D01*
G37*
G36*
X96055997Y-118520342D02*
G01*
X96140666Y-118537183D01*
X96206738Y-118564551D01*
X96300177Y-118603255D01*
X96443736Y-118699178D01*
X96565822Y-118821264D01*
X96661745Y-118964823D01*
X96727817Y-119124335D01*
X96761500Y-119293671D01*
X96761500Y-119466329D01*
X96727817Y-119635665D01*
X96661745Y-119795177D01*
X96565822Y-119938736D01*
X96443736Y-120060822D01*
X96300177Y-120156745D01*
X96206738Y-120195449D01*
X96140666Y-120222817D01*
X96055997Y-120239659D01*
X95971329Y-120256500D01*
X95798671Y-120256500D01*
X95714003Y-120239659D01*
X95629334Y-120222817D01*
X95563262Y-120195449D01*
X95469823Y-120156745D01*
X95326264Y-120060822D01*
X95204178Y-119938736D01*
X95108255Y-119795177D01*
X95042183Y-119635665D01*
X95008500Y-119466329D01*
X95008500Y-119293671D01*
X95042183Y-119124335D01*
X95108255Y-118964823D01*
X95204178Y-118821264D01*
X95326264Y-118699178D01*
X95469823Y-118603255D01*
X95563262Y-118564551D01*
X95629334Y-118537183D01*
X95714003Y-118520342D01*
X95798671Y-118503500D01*
X95971329Y-118503500D01*
X96055997Y-118520342D01*
G37*
G36*
X77005997Y-118520342D02*
G01*
X77090666Y-118537183D01*
X77156738Y-118564551D01*
X77250177Y-118603255D01*
X77393736Y-118699178D01*
X77515822Y-118821264D01*
X77611745Y-118964823D01*
X77677817Y-119124335D01*
X77711500Y-119293671D01*
X77711500Y-119466329D01*
X77677817Y-119635665D01*
X77611745Y-119795177D01*
X77515822Y-119938736D01*
X77393736Y-120060822D01*
X77250177Y-120156745D01*
X77156738Y-120195449D01*
X77090666Y-120222817D01*
X77005997Y-120239659D01*
X76921329Y-120256500D01*
X76748671Y-120256500D01*
X76664003Y-120239659D01*
X76579334Y-120222817D01*
X76513262Y-120195449D01*
X76419823Y-120156745D01*
X76276264Y-120060822D01*
X76154178Y-119938736D01*
X76058255Y-119795177D01*
X75992183Y-119635665D01*
X75958500Y-119466329D01*
X75958500Y-119293671D01*
X75992183Y-119124335D01*
X76058255Y-118964823D01*
X76154178Y-118821264D01*
X76276264Y-118699178D01*
X76419823Y-118603255D01*
X76513262Y-118564551D01*
X76579334Y-118537183D01*
X76664003Y-118520342D01*
X76748671Y-118503500D01*
X76921329Y-118503500D01*
X77005997Y-118520342D01*
G37*
G36*
X89224575Y-105826286D02*
G01*
X89475086Y-105880333D01*
X89608357Y-105938074D01*
X89710239Y-105982215D01*
X89821688Y-106059314D01*
X89920996Y-106128014D01*
X89920998Y-106128016D01*
X90099262Y-106312130D01*
X90238180Y-106527483D01*
X90332419Y-106765804D01*
X90365019Y-106944753D01*
X90378351Y-107017928D01*
X90374213Y-107274169D01*
X90320166Y-107524680D01*
X90243813Y-107700911D01*
X89370846Y-109272549D01*
X89261579Y-109430497D01*
X89261577Y-109430499D01*
X89077463Y-109608763D01*
X88892953Y-109727785D01*
X88862108Y-109747682D01*
X88839546Y-109756603D01*
X88623789Y-109841920D01*
X88444840Y-109874520D01*
X88371665Y-109887852D01*
X88115425Y-109883714D01*
X87864914Y-109829667D01*
X87731643Y-109771926D01*
X87629761Y-109727785D01*
X87518312Y-109650686D01*
X87419004Y-109581986D01*
X87419002Y-109581984D01*
X87240738Y-109397870D01*
X87101820Y-109182517D01*
X87007581Y-108944196D01*
X86974981Y-108765247D01*
X86961649Y-108692072D01*
X86965787Y-108435832D01*
X87019834Y-108185321D01*
X87096187Y-108009090D01*
X87969154Y-106437451D01*
X88078421Y-106279503D01*
X88078423Y-106279501D01*
X88262537Y-106101237D01*
X88477889Y-105962318D01*
X88716210Y-105868080D01*
X88895159Y-105835480D01*
X88968334Y-105822148D01*
X89224575Y-105826286D01*
G37*
G36*
X51124575Y-105826286D02*
G01*
X51375086Y-105880333D01*
X51508357Y-105938074D01*
X51610239Y-105982215D01*
X51721688Y-106059314D01*
X51820996Y-106128014D01*
X51820998Y-106128016D01*
X51999262Y-106312130D01*
X52138180Y-106527483D01*
X52232419Y-106765804D01*
X52265019Y-106944753D01*
X52278351Y-107017928D01*
X52274213Y-107274169D01*
X52220166Y-107524680D01*
X52143813Y-107700911D01*
X51270846Y-109272549D01*
X51161579Y-109430497D01*
X51161577Y-109430499D01*
X50977463Y-109608763D01*
X50792953Y-109727785D01*
X50762108Y-109747682D01*
X50739546Y-109756603D01*
X50523789Y-109841920D01*
X50344840Y-109874520D01*
X50271665Y-109887852D01*
X50015425Y-109883714D01*
X49764914Y-109829667D01*
X49631643Y-109771926D01*
X49529761Y-109727785D01*
X49418312Y-109650686D01*
X49319004Y-109581986D01*
X49319002Y-109581984D01*
X49140738Y-109397870D01*
X49001820Y-109182517D01*
X48907581Y-108944196D01*
X48874981Y-108765247D01*
X48861649Y-108692072D01*
X48865787Y-108435832D01*
X48919834Y-108185321D01*
X48996187Y-108009090D01*
X49869154Y-106437451D01*
X49978421Y-106279503D01*
X49978423Y-106279501D01*
X50162537Y-106101237D01*
X50377889Y-105962318D01*
X50616210Y-105868080D01*
X50795159Y-105835480D01*
X50868334Y-105822148D01*
X51124575Y-105826286D01*
G37*
G36*
X70174575Y-105826286D02*
G01*
X70425086Y-105880333D01*
X70558357Y-105938074D01*
X70660239Y-105982215D01*
X70771688Y-106059314D01*
X70870996Y-106128014D01*
X70870998Y-106128016D01*
X71049262Y-106312130D01*
X71188180Y-106527483D01*
X71282419Y-106765804D01*
X71315019Y-106944753D01*
X71328351Y-107017928D01*
X71324213Y-107274169D01*
X71270166Y-107524680D01*
X71193813Y-107700911D01*
X70320846Y-109272549D01*
X70211579Y-109430497D01*
X70211577Y-109430499D01*
X70027463Y-109608763D01*
X69842953Y-109727785D01*
X69812108Y-109747682D01*
X69789546Y-109756603D01*
X69573789Y-109841920D01*
X69394840Y-109874520D01*
X69321665Y-109887852D01*
X69065425Y-109883714D01*
X68814914Y-109829667D01*
X68681643Y-109771926D01*
X68579761Y-109727785D01*
X68468312Y-109650686D01*
X68369004Y-109581986D01*
X68369002Y-109581984D01*
X68190738Y-109397870D01*
X68051820Y-109182517D01*
X67957581Y-108944196D01*
X67924981Y-108765247D01*
X67911649Y-108692072D01*
X67915787Y-108435832D01*
X67969834Y-108185321D01*
X68046187Y-108009090D01*
X68919154Y-106437451D01*
X69028421Y-106279503D01*
X69028423Y-106279501D01*
X69212537Y-106101237D01*
X69427889Y-105962318D01*
X69666210Y-105868080D01*
X69845159Y-105835480D01*
X69918334Y-105822148D01*
X70174575Y-105826286D01*
G37*
G36*
X94956379Y-104783813D02*
G01*
X95195991Y-104874713D01*
X95413265Y-105010613D01*
X95599852Y-105186288D01*
X95711209Y-105342550D01*
X95748580Y-105394990D01*
X95853735Y-105628697D01*
X95853736Y-105628701D01*
X95911276Y-105878428D01*
X95917058Y-106070394D01*
X95902802Y-106279501D01*
X95868916Y-106776571D01*
X95837135Y-106965983D01*
X95746235Y-107205595D01*
X95702817Y-107275010D01*
X95610335Y-107422869D01*
X95434660Y-107609456D01*
X95278398Y-107720813D01*
X95225958Y-107758184D01*
X94992251Y-107863339D01*
X94992247Y-107863340D01*
X94742521Y-107920880D01*
X94486366Y-107928594D01*
X94486362Y-107928594D01*
X94233621Y-107886187D01*
X93994009Y-107795287D01*
X93776735Y-107659387D01*
X93723703Y-107609456D01*
X93590148Y-107483712D01*
X93478791Y-107327450D01*
X93441420Y-107275010D01*
X93336265Y-107041303D01*
X93278724Y-106791571D01*
X93277948Y-106765804D01*
X93272942Y-106599608D01*
X93321084Y-105893428D01*
X93333044Y-105822148D01*
X93352865Y-105704017D01*
X93443765Y-105464405D01*
X93579665Y-105247131D01*
X93636950Y-105186288D01*
X93755340Y-105060544D01*
X93911602Y-104949187D01*
X93964042Y-104911816D01*
X94197749Y-104806661D01*
X94197753Y-104806660D01*
X94447479Y-104749120D01*
X94703634Y-104741406D01*
X94703638Y-104741406D01*
X94956379Y-104783813D01*
G37*
G36*
X56856379Y-104783813D02*
G01*
X57095991Y-104874713D01*
X57313265Y-105010613D01*
X57499852Y-105186288D01*
X57611209Y-105342550D01*
X57648580Y-105394990D01*
X57753735Y-105628697D01*
X57753736Y-105628701D01*
X57811276Y-105878428D01*
X57817058Y-106070394D01*
X57802802Y-106279501D01*
X57768916Y-106776571D01*
X57737135Y-106965983D01*
X57646235Y-107205595D01*
X57602817Y-107275010D01*
X57510335Y-107422869D01*
X57334660Y-107609456D01*
X57178398Y-107720813D01*
X57125958Y-107758184D01*
X56892251Y-107863339D01*
X56892247Y-107863340D01*
X56642521Y-107920880D01*
X56386366Y-107928594D01*
X56386362Y-107928594D01*
X56133621Y-107886187D01*
X55894009Y-107795287D01*
X55676735Y-107659387D01*
X55623703Y-107609456D01*
X55490148Y-107483712D01*
X55378791Y-107327450D01*
X55341420Y-107275010D01*
X55236265Y-107041303D01*
X55178724Y-106791571D01*
X55177948Y-106765804D01*
X55172942Y-106599608D01*
X55221084Y-105893428D01*
X55233044Y-105822148D01*
X55252865Y-105704017D01*
X55343765Y-105464405D01*
X55479665Y-105247131D01*
X55536950Y-105186288D01*
X55655340Y-105060544D01*
X55811602Y-104949187D01*
X55864042Y-104911816D01*
X56097749Y-104806661D01*
X56097753Y-104806660D01*
X56347479Y-104749120D01*
X56603634Y-104741406D01*
X56603638Y-104741406D01*
X56856379Y-104783813D01*
G37*
G36*
X75906379Y-104783813D02*
G01*
X76145991Y-104874713D01*
X76363265Y-105010613D01*
X76549852Y-105186288D01*
X76661209Y-105342550D01*
X76698580Y-105394990D01*
X76803735Y-105628697D01*
X76803736Y-105628701D01*
X76861276Y-105878428D01*
X76867058Y-106070394D01*
X76852802Y-106279501D01*
X76818916Y-106776571D01*
X76787135Y-106965983D01*
X76696235Y-107205595D01*
X76652817Y-107275010D01*
X76560335Y-107422869D01*
X76384660Y-107609456D01*
X76228398Y-107720813D01*
X76175958Y-107758184D01*
X75942251Y-107863339D01*
X75942247Y-107863340D01*
X75692521Y-107920880D01*
X75436366Y-107928594D01*
X75436362Y-107928594D01*
X75183621Y-107886187D01*
X74944009Y-107795287D01*
X74726735Y-107659387D01*
X74673703Y-107609456D01*
X74540148Y-107483712D01*
X74428791Y-107327450D01*
X74391420Y-107275010D01*
X74286265Y-107041303D01*
X74228724Y-106791571D01*
X74227948Y-106765804D01*
X74222942Y-106599608D01*
X74271084Y-105893428D01*
X74283044Y-105822148D01*
X74302865Y-105704017D01*
X74393765Y-105464405D01*
X74529665Y-105247131D01*
X74586950Y-105186288D01*
X74705340Y-105060544D01*
X74861602Y-104949187D01*
X74914042Y-104911816D01*
X75147749Y-104806661D01*
X75147753Y-104806660D01*
X75397479Y-104749120D01*
X75653634Y-104741406D01*
X75653638Y-104741406D01*
X75906379Y-104783813D01*
G37*
G36*
X135481564Y-101564389D02*
G01*
X135672833Y-101643615D01*
X135672835Y-101643616D01*
X135844973Y-101758635D01*
X135991365Y-101905027D01*
X136106385Y-102077167D01*
X136185611Y-102268436D01*
X136226000Y-102471484D01*
X136226000Y-102678516D01*
X136185611Y-102881564D01*
X136106385Y-103072833D01*
X136106384Y-103072835D01*
X135991365Y-103244973D01*
X135844973Y-103391365D01*
X135672835Y-103506384D01*
X135672834Y-103506385D01*
X135672833Y-103506385D01*
X135481564Y-103585611D01*
X135278516Y-103626000D01*
X135071484Y-103626000D01*
X134868436Y-103585611D01*
X134677167Y-103506385D01*
X134677166Y-103506385D01*
X134677165Y-103506384D01*
X134505027Y-103391365D01*
X134358635Y-103244973D01*
X134243616Y-103072835D01*
X134243615Y-103072833D01*
X134164389Y-102881564D01*
X134124000Y-102678516D01*
X134124000Y-102471484D01*
X134164389Y-102268436D01*
X134243615Y-102077167D01*
X134358635Y-101905027D01*
X134505027Y-101758635D01*
X134677165Y-101643616D01*
X134677167Y-101643615D01*
X134868436Y-101564389D01*
X135071484Y-101524000D01*
X135278516Y-101524000D01*
X135481564Y-101564389D01*
G37*
G36*
X125481564Y-101564389D02*
G01*
X125672833Y-101643615D01*
X125672835Y-101643616D01*
X125844973Y-101758635D01*
X125991365Y-101905027D01*
X126106385Y-102077167D01*
X126185611Y-102268436D01*
X126226000Y-102471484D01*
X126226000Y-102678516D01*
X126185611Y-102881564D01*
X126106385Y-103072833D01*
X126106384Y-103072835D01*
X125991365Y-103244973D01*
X125844973Y-103391365D01*
X125672835Y-103506384D01*
X125672834Y-103506385D01*
X125672833Y-103506385D01*
X125481564Y-103585611D01*
X125278516Y-103626000D01*
X125071484Y-103626000D01*
X124868436Y-103585611D01*
X124677167Y-103506385D01*
X124677166Y-103506385D01*
X124677165Y-103506384D01*
X124505027Y-103391365D01*
X124358635Y-103244973D01*
X124243616Y-103072835D01*
X124243615Y-103072833D01*
X124164389Y-102881564D01*
X124124000Y-102678516D01*
X124124000Y-102471484D01*
X124164389Y-102268436D01*
X124243615Y-102077167D01*
X124358635Y-101905027D01*
X124505027Y-101758635D01*
X124677165Y-101643616D01*
X124677167Y-101643615D01*
X124868436Y-101564389D01*
X125071484Y-101524000D01*
X125278516Y-101524000D01*
X125481564Y-101564389D01*
G37*
G36*
X130481564Y-101564389D02*
G01*
X130672833Y-101643615D01*
X130672835Y-101643616D01*
X130844973Y-101758635D01*
X130991365Y-101905027D01*
X131106385Y-102077167D01*
X131185611Y-102268436D01*
X131226000Y-102471484D01*
X131226000Y-102678516D01*
X131185611Y-102881564D01*
X131106385Y-103072833D01*
X131106384Y-103072835D01*
X130991365Y-103244973D01*
X130844973Y-103391365D01*
X130672835Y-103506384D01*
X130672834Y-103506385D01*
X130672833Y-103506385D01*
X130481564Y-103585611D01*
X130278516Y-103626000D01*
X130071484Y-103626000D01*
X129868436Y-103585611D01*
X129677167Y-103506385D01*
X129677166Y-103506385D01*
X129677165Y-103506384D01*
X129505027Y-103391365D01*
X129358635Y-103244973D01*
X129243616Y-103072835D01*
X129243615Y-103072833D01*
X129164389Y-102881564D01*
X129124000Y-102678516D01*
X129124000Y-102471484D01*
X129164389Y-102268436D01*
X129243615Y-102077167D01*
X129358635Y-101905027D01*
X129505027Y-101758635D01*
X129677165Y-101643616D01*
X129677167Y-101643615D01*
X129868436Y-101564389D01*
X130071484Y-101524000D01*
X130278516Y-101524000D01*
X130481564Y-101564389D01*
G37*
G36*
X70091500Y-101206500D02*
G01*
X68338500Y-101206500D01*
X68338500Y-99453500D01*
X70091500Y-99453500D01*
X70091500Y-101206500D01*
G37*
G36*
X57955997Y-99470342D02*
G01*
X58040666Y-99487183D01*
X58106738Y-99514551D01*
X58200177Y-99553255D01*
X58343736Y-99649178D01*
X58465822Y-99771264D01*
X58561745Y-99914823D01*
X58627817Y-100074335D01*
X58661500Y-100243671D01*
X58661500Y-100416329D01*
X58627817Y-100585665D01*
X58561745Y-100745177D01*
X58465822Y-100888736D01*
X58343736Y-101010822D01*
X58200177Y-101106745D01*
X58106738Y-101145449D01*
X58040666Y-101172817D01*
X57955997Y-101189659D01*
X57871329Y-101206500D01*
X57698671Y-101206500D01*
X57614003Y-101189659D01*
X57529334Y-101172817D01*
X57463262Y-101145449D01*
X57369823Y-101106745D01*
X57226264Y-101010822D01*
X57104178Y-100888736D01*
X57008255Y-100745177D01*
X56942183Y-100585665D01*
X56908500Y-100416329D01*
X56908500Y-100243671D01*
X56942183Y-100074335D01*
X57008255Y-99914823D01*
X57104178Y-99771264D01*
X57226264Y-99649178D01*
X57369823Y-99553255D01*
X57463262Y-99514551D01*
X57529334Y-99487183D01*
X57614003Y-99470341D01*
X57698671Y-99453500D01*
X57871329Y-99453500D01*
X57955997Y-99470342D01*
G37*
G36*
X77005997Y-99470342D02*
G01*
X77090666Y-99487183D01*
X77156738Y-99514551D01*
X77250177Y-99553255D01*
X77393736Y-99649178D01*
X77515822Y-99771264D01*
X77611745Y-99914823D01*
X77677817Y-100074335D01*
X77711500Y-100243671D01*
X77711500Y-100416329D01*
X77677817Y-100585665D01*
X77611745Y-100745177D01*
X77515822Y-100888736D01*
X77393736Y-101010822D01*
X77250177Y-101106745D01*
X77156738Y-101145449D01*
X77090666Y-101172817D01*
X77005997Y-101189659D01*
X76921329Y-101206500D01*
X76748671Y-101206500D01*
X76664003Y-101189659D01*
X76579334Y-101172817D01*
X76513262Y-101145449D01*
X76419823Y-101106745D01*
X76276264Y-101010822D01*
X76154178Y-100888736D01*
X76058255Y-100745177D01*
X75992183Y-100585665D01*
X75958500Y-100416329D01*
X75958500Y-100243671D01*
X75992183Y-100074335D01*
X76058255Y-99914823D01*
X76154178Y-99771264D01*
X76276264Y-99649178D01*
X76419823Y-99553255D01*
X76513262Y-99514551D01*
X76579334Y-99487183D01*
X76664003Y-99470341D01*
X76748671Y-99453500D01*
X76921329Y-99453500D01*
X77005997Y-99470342D01*
G37*
G36*
X51041500Y-101206500D02*
G01*
X49288500Y-101206500D01*
X49288500Y-99453500D01*
X51041500Y-99453500D01*
X51041500Y-101206500D01*
G37*
G36*
X96055997Y-99470342D02*
G01*
X96140666Y-99487183D01*
X96206738Y-99514551D01*
X96300177Y-99553255D01*
X96443736Y-99649178D01*
X96565822Y-99771264D01*
X96661745Y-99914823D01*
X96727817Y-100074335D01*
X96761500Y-100243671D01*
X96761500Y-100416329D01*
X96727817Y-100585665D01*
X96661745Y-100745177D01*
X96565822Y-100888736D01*
X96443736Y-101010822D01*
X96300177Y-101106745D01*
X96206738Y-101145449D01*
X96140666Y-101172817D01*
X96055997Y-101189659D01*
X95971329Y-101206500D01*
X95798671Y-101206500D01*
X95714003Y-101189659D01*
X95629334Y-101172817D01*
X95563262Y-101145449D01*
X95469823Y-101106745D01*
X95326264Y-101010822D01*
X95204178Y-100888736D01*
X95108255Y-100745177D01*
X95042183Y-100585665D01*
X95008500Y-100416329D01*
X95008500Y-100243671D01*
X95042183Y-100074335D01*
X95108255Y-99914823D01*
X95204178Y-99771264D01*
X95326264Y-99649178D01*
X95469823Y-99553255D01*
X95563262Y-99514551D01*
X95629334Y-99487183D01*
X95714003Y-99470341D01*
X95798671Y-99453500D01*
X95971329Y-99453500D01*
X96055997Y-99470342D01*
G37*
G36*
X89141500Y-101206500D02*
G01*
X87388500Y-101206500D01*
X87388500Y-99453500D01*
X89141500Y-99453500D01*
X89141500Y-101206500D01*
G37*
G36*
X84725483Y-94358335D02*
G01*
X84894240Y-94428236D01*
X85046118Y-94529718D01*
X85175282Y-94658882D01*
X85276764Y-94810760D01*
X85346665Y-94979517D01*
X85382300Y-95158668D01*
X85382300Y-95341332D01*
X85346665Y-95520483D01*
X85276764Y-95689240D01*
X85175282Y-95841118D01*
X85046118Y-95970282D01*
X84894240Y-96071764D01*
X84725483Y-96141665D01*
X84546332Y-96177300D01*
X84363668Y-96177300D01*
X84184517Y-96141665D01*
X84015760Y-96071764D01*
X83863882Y-95970282D01*
X83734718Y-95841118D01*
X83633236Y-95689240D01*
X83563335Y-95520483D01*
X83527700Y-95341332D01*
X83527700Y-95158668D01*
X83563335Y-94979517D01*
X83633236Y-94810760D01*
X83734718Y-94658882D01*
X83863882Y-94529718D01*
X84015760Y-94428236D01*
X84184517Y-94358335D01*
X84363668Y-94322700D01*
X84546332Y-94322700D01*
X84725483Y-94358335D01*
G37*
G36*
X99965483Y-94358335D02*
G01*
X100134240Y-94428236D01*
X100286118Y-94529718D01*
X100415282Y-94658882D01*
X100516764Y-94810760D01*
X100586665Y-94979517D01*
X100622300Y-95158668D01*
X100622300Y-95341332D01*
X100586665Y-95520483D01*
X100516764Y-95689240D01*
X100415282Y-95841118D01*
X100286118Y-95970282D01*
X100134240Y-96071764D01*
X99965483Y-96141665D01*
X99786332Y-96177300D01*
X99603668Y-96177300D01*
X99424517Y-96141665D01*
X99255760Y-96071764D01*
X99103882Y-95970282D01*
X98974718Y-95841118D01*
X98873236Y-95689240D01*
X98803335Y-95520483D01*
X98767700Y-95341332D01*
X98767700Y-95158668D01*
X98803335Y-94979517D01*
X98873236Y-94810760D01*
X98974718Y-94658882D01*
X99103882Y-94529718D01*
X99255760Y-94428236D01*
X99424517Y-94358335D01*
X99603668Y-94322700D01*
X99786332Y-94322700D01*
X99965483Y-94358335D01*
G37*
G36*
X84725483Y-91818335D02*
G01*
X84894240Y-91888236D01*
X85046118Y-91989718D01*
X85175282Y-92118882D01*
X85276764Y-92270760D01*
X85346665Y-92439517D01*
X85382300Y-92618668D01*
X85382300Y-92801332D01*
X85346665Y-92980483D01*
X85276764Y-93149240D01*
X85175282Y-93301118D01*
X85046118Y-93430282D01*
X84894240Y-93531764D01*
X84725483Y-93601665D01*
X84546332Y-93637300D01*
X84363668Y-93637300D01*
X84184517Y-93601665D01*
X84015760Y-93531764D01*
X83863882Y-93430282D01*
X83734718Y-93301118D01*
X83633236Y-93149240D01*
X83563335Y-92980483D01*
X83527700Y-92801332D01*
X83527700Y-92618668D01*
X83563335Y-92439517D01*
X83633236Y-92270760D01*
X83734718Y-92118882D01*
X83863882Y-91989718D01*
X84015760Y-91888236D01*
X84184517Y-91818335D01*
X84363668Y-91782700D01*
X84546332Y-91782700D01*
X84725483Y-91818335D01*
G37*
G36*
X99965483Y-91818335D02*
G01*
X100134240Y-91888236D01*
X100286118Y-91989718D01*
X100415282Y-92118882D01*
X100516764Y-92270760D01*
X100586665Y-92439517D01*
X100622300Y-92618668D01*
X100622300Y-92801332D01*
X100586665Y-92980483D01*
X100516764Y-93149240D01*
X100415282Y-93301118D01*
X100286118Y-93430282D01*
X100134240Y-93531764D01*
X99965483Y-93601665D01*
X99786332Y-93637300D01*
X99603668Y-93637300D01*
X99424517Y-93601665D01*
X99255760Y-93531764D01*
X99103882Y-93430282D01*
X98974718Y-93301118D01*
X98873236Y-93149240D01*
X98803335Y-92980483D01*
X98767700Y-92801332D01*
X98767700Y-92618668D01*
X98803335Y-92439517D01*
X98873236Y-92270760D01*
X98974718Y-92118882D01*
X99103882Y-91989718D01*
X99255760Y-91888236D01*
X99424517Y-91818335D01*
X99603668Y-91782700D01*
X99786332Y-91782700D01*
X99965483Y-91818335D01*
G37*
G36*
X123077585Y-90553802D02*
G01*
X123227410Y-90583604D01*
X123509674Y-90700521D01*
X123763705Y-90870259D01*
X123979741Y-91086295D01*
X124149479Y-91340326D01*
X124266396Y-91622590D01*
X124266396Y-91622591D01*
X124319237Y-91888237D01*
X124326000Y-91922240D01*
X124326000Y-92227760D01*
X124266396Y-92527410D01*
X124149479Y-92809674D01*
X123979741Y-93063705D01*
X123763705Y-93279741D01*
X123509674Y-93449479D01*
X123227410Y-93566396D01*
X123077585Y-93596198D01*
X122927761Y-93626000D01*
X122622239Y-93626000D01*
X122472415Y-93596198D01*
X122322590Y-93566396D01*
X122040326Y-93449479D01*
X121786295Y-93279741D01*
X121570259Y-93063705D01*
X121400521Y-92809674D01*
X121283604Y-92527410D01*
X121224000Y-92227760D01*
X121224000Y-91922240D01*
X121230764Y-91888237D01*
X121283604Y-91622591D01*
X121283604Y-91622590D01*
X121400521Y-91340326D01*
X121570259Y-91086295D01*
X121786295Y-90870259D01*
X122040326Y-90700521D01*
X122322590Y-90583604D01*
X122472415Y-90553802D01*
X122622239Y-90524000D01*
X122927761Y-90524000D01*
X123077585Y-90553802D01*
G37*
G36*
X137877585Y-90553802D02*
G01*
X138027410Y-90583604D01*
X138309674Y-90700521D01*
X138563705Y-90870259D01*
X138779741Y-91086295D01*
X138949479Y-91340326D01*
X139066396Y-91622590D01*
X139066396Y-91622591D01*
X139119237Y-91888237D01*
X139126000Y-91922240D01*
X139126000Y-92227760D01*
X139066396Y-92527410D01*
X138949479Y-92809674D01*
X138779741Y-93063705D01*
X138563705Y-93279741D01*
X138309674Y-93449479D01*
X138027410Y-93566396D01*
X137877585Y-93596198D01*
X137727761Y-93626000D01*
X137422239Y-93626000D01*
X137272415Y-93596198D01*
X137122590Y-93566396D01*
X136840326Y-93449479D01*
X136586295Y-93279741D01*
X136370259Y-93063705D01*
X136200521Y-92809674D01*
X136083604Y-92527410D01*
X136024000Y-92227760D01*
X136024000Y-91922240D01*
X136030764Y-91888237D01*
X136083604Y-91622591D01*
X136083604Y-91622590D01*
X136200521Y-91340326D01*
X136370259Y-91086295D01*
X136586295Y-90870259D01*
X136840326Y-90700521D01*
X137122590Y-90583604D01*
X137272415Y-90553802D01*
X137422239Y-90524000D01*
X137727761Y-90524000D01*
X137877585Y-90553802D01*
G37*
G36*
X99965483Y-89278335D02*
G01*
X100134240Y-89348236D01*
X100286118Y-89449718D01*
X100415282Y-89578882D01*
X100516764Y-89730760D01*
X100586665Y-89899517D01*
X100622300Y-90078668D01*
X100622300Y-90261332D01*
X100586665Y-90440483D01*
X100516764Y-90609240D01*
X100415282Y-90761118D01*
X100286118Y-90890282D01*
X100134240Y-90991764D01*
X99965483Y-91061665D01*
X99786332Y-91097300D01*
X99603668Y-91097300D01*
X99424517Y-91061665D01*
X99255760Y-90991764D01*
X99103882Y-90890282D01*
X98974718Y-90761118D01*
X98873236Y-90609240D01*
X98803335Y-90440483D01*
X98767700Y-90261332D01*
X98767700Y-90078668D01*
X98803335Y-89899517D01*
X98873236Y-89730760D01*
X98974718Y-89578882D01*
X99103882Y-89449718D01*
X99255760Y-89348236D01*
X99424517Y-89278335D01*
X99603668Y-89242700D01*
X99786332Y-89242700D01*
X99965483Y-89278335D01*
G37*
G36*
X84725483Y-89278335D02*
G01*
X84894240Y-89348236D01*
X85046118Y-89449718D01*
X85175282Y-89578882D01*
X85276764Y-89730760D01*
X85346665Y-89899517D01*
X85382300Y-90078668D01*
X85382300Y-90261332D01*
X85346665Y-90440483D01*
X85276764Y-90609240D01*
X85175282Y-90761118D01*
X85046118Y-90890282D01*
X84894240Y-90991764D01*
X84725483Y-91061665D01*
X84546332Y-91097300D01*
X84363668Y-91097300D01*
X84184517Y-91061665D01*
X84015760Y-90991764D01*
X83863882Y-90890282D01*
X83734718Y-90761118D01*
X83633236Y-90609240D01*
X83563335Y-90440483D01*
X83527700Y-90261332D01*
X83527700Y-90078668D01*
X83563335Y-89899517D01*
X83633236Y-89730760D01*
X83734718Y-89578882D01*
X83863882Y-89449718D01*
X84015760Y-89348236D01*
X84184517Y-89278335D01*
X84363668Y-89242700D01*
X84546332Y-89242700D01*
X84725483Y-89278335D01*
G37*
G36*
X70174575Y-86776286D02*
G01*
X70425086Y-86830333D01*
X70558357Y-86888074D01*
X70660239Y-86932215D01*
X70771688Y-87009314D01*
X70870996Y-87078014D01*
X70870998Y-87078016D01*
X71049262Y-87262130D01*
X71188180Y-87477483D01*
X71282419Y-87715804D01*
X71315019Y-87894753D01*
X71328351Y-87967928D01*
X71324213Y-88224169D01*
X71270166Y-88474680D01*
X71193813Y-88650911D01*
X70320846Y-90222549D01*
X70211579Y-90380497D01*
X70211577Y-90380499D01*
X70027463Y-90558763D01*
X69842953Y-90677785D01*
X69812108Y-90697682D01*
X69804928Y-90700521D01*
X69573789Y-90791920D01*
X69394840Y-90824520D01*
X69321665Y-90837852D01*
X69065425Y-90833714D01*
X68814914Y-90779667D01*
X68681643Y-90721926D01*
X68579761Y-90677785D01*
X68443620Y-90583604D01*
X68369004Y-90531986D01*
X68361272Y-90524000D01*
X68190738Y-90347870D01*
X68051820Y-90132517D01*
X67957581Y-89894196D01*
X67924981Y-89715247D01*
X67911649Y-89642072D01*
X67915787Y-89385832D01*
X67969834Y-89135321D01*
X68046187Y-88959090D01*
X68919154Y-87387451D01*
X69028421Y-87229503D01*
X69028423Y-87229501D01*
X69212537Y-87051237D01*
X69427889Y-86912318D01*
X69666210Y-86818080D01*
X69845159Y-86785480D01*
X69918334Y-86772148D01*
X70174575Y-86776286D01*
G37*
G36*
X51124575Y-86776286D02*
G01*
X51375086Y-86830333D01*
X51508357Y-86888074D01*
X51610239Y-86932215D01*
X51721688Y-87009314D01*
X51820996Y-87078014D01*
X51820998Y-87078016D01*
X51999262Y-87262130D01*
X52138180Y-87477483D01*
X52232419Y-87715804D01*
X52265019Y-87894753D01*
X52278351Y-87967928D01*
X52274213Y-88224169D01*
X52220166Y-88474680D01*
X52143813Y-88650911D01*
X51270846Y-90222549D01*
X51161579Y-90380497D01*
X51161577Y-90380499D01*
X50977463Y-90558763D01*
X50792953Y-90677785D01*
X50762108Y-90697682D01*
X50754928Y-90700521D01*
X50523789Y-90791920D01*
X50344840Y-90824520D01*
X50271665Y-90837852D01*
X50015425Y-90833714D01*
X49764914Y-90779667D01*
X49631643Y-90721926D01*
X49529761Y-90677785D01*
X49393620Y-90583604D01*
X49319004Y-90531986D01*
X49311272Y-90524000D01*
X49140738Y-90347870D01*
X49001820Y-90132517D01*
X48907581Y-89894196D01*
X48874981Y-89715247D01*
X48861649Y-89642072D01*
X48865787Y-89385832D01*
X48919834Y-89135321D01*
X48996187Y-88959090D01*
X49869154Y-87387451D01*
X49978421Y-87229503D01*
X49978423Y-87229501D01*
X50162537Y-87051237D01*
X50377889Y-86912318D01*
X50616210Y-86818080D01*
X50795159Y-86785480D01*
X50868334Y-86772148D01*
X51124575Y-86776286D01*
G37*
G36*
X89224575Y-86776286D02*
G01*
X89475086Y-86830333D01*
X89608357Y-86888074D01*
X89710239Y-86932215D01*
X89821688Y-87009314D01*
X89920996Y-87078014D01*
X89920998Y-87078016D01*
X90099262Y-87262130D01*
X90238180Y-87477483D01*
X90332419Y-87715804D01*
X90365019Y-87894753D01*
X90378351Y-87967928D01*
X90374213Y-88224169D01*
X90320166Y-88474680D01*
X90243813Y-88650911D01*
X89370846Y-90222549D01*
X89261579Y-90380497D01*
X89261577Y-90380499D01*
X89077463Y-90558763D01*
X88892953Y-90677785D01*
X88862108Y-90697682D01*
X88854928Y-90700521D01*
X88623789Y-90791920D01*
X88444840Y-90824520D01*
X88371665Y-90837852D01*
X88115425Y-90833714D01*
X87864914Y-90779667D01*
X87731643Y-90721926D01*
X87629761Y-90677785D01*
X87493620Y-90583604D01*
X87419004Y-90531986D01*
X87411272Y-90524000D01*
X87240738Y-90347870D01*
X87101820Y-90132517D01*
X87007581Y-89894196D01*
X86974981Y-89715247D01*
X86961649Y-89642072D01*
X86965787Y-89385832D01*
X87019834Y-89135321D01*
X87096187Y-88959090D01*
X87969154Y-87387451D01*
X88078421Y-87229503D01*
X88078423Y-87229501D01*
X88262537Y-87051237D01*
X88477889Y-86912318D01*
X88716210Y-86818080D01*
X88895159Y-86785480D01*
X88968334Y-86772148D01*
X89224575Y-86776286D01*
G37*
G36*
X94956379Y-85733813D02*
G01*
X95195991Y-85824713D01*
X95335166Y-85911764D01*
X95413265Y-85960613D01*
X95599852Y-86136288D01*
X95711209Y-86292550D01*
X95748580Y-86344990D01*
X95853735Y-86578697D01*
X95853736Y-86578701D01*
X95911276Y-86828428D01*
X95917058Y-87020394D01*
X95905443Y-87190760D01*
X95868916Y-87726571D01*
X95837135Y-87915983D01*
X95746235Y-88155595D01*
X95702817Y-88225010D01*
X95610335Y-88372869D01*
X95434660Y-88559456D01*
X95278398Y-88670813D01*
X95225958Y-88708184D01*
X94992251Y-88813339D01*
X94992247Y-88813340D01*
X94742521Y-88870880D01*
X94486366Y-88878594D01*
X94486362Y-88878594D01*
X94233621Y-88836187D01*
X93994009Y-88745287D01*
X93776735Y-88609387D01*
X93723703Y-88559456D01*
X93590148Y-88433712D01*
X93478791Y-88277450D01*
X93441420Y-88225010D01*
X93336265Y-87991303D01*
X93278724Y-87741571D01*
X93278272Y-87726571D01*
X93272942Y-87549608D01*
X93321084Y-86843428D01*
X93333044Y-86772148D01*
X93352865Y-86654017D01*
X93443765Y-86414405D01*
X93579665Y-86197131D01*
X93636950Y-86136288D01*
X93755340Y-86010544D01*
X93922578Y-85891365D01*
X93964042Y-85861816D01*
X94197749Y-85756661D01*
X94197753Y-85756660D01*
X94447479Y-85699120D01*
X94703634Y-85691406D01*
X94703638Y-85691406D01*
X94956379Y-85733813D01*
G37*
G36*
X75906379Y-85733813D02*
G01*
X76145991Y-85824713D01*
X76285166Y-85911764D01*
X76363265Y-85960613D01*
X76549852Y-86136288D01*
X76661209Y-86292550D01*
X76698580Y-86344990D01*
X76803735Y-86578697D01*
X76803736Y-86578701D01*
X76861276Y-86828428D01*
X76867058Y-87020394D01*
X76855443Y-87190760D01*
X76818916Y-87726571D01*
X76787135Y-87915983D01*
X76696235Y-88155595D01*
X76652817Y-88225010D01*
X76560335Y-88372869D01*
X76384660Y-88559456D01*
X76228398Y-88670813D01*
X76175958Y-88708184D01*
X75942251Y-88813339D01*
X75942247Y-88813340D01*
X75692521Y-88870880D01*
X75436366Y-88878594D01*
X75436362Y-88878594D01*
X75183621Y-88836187D01*
X74944009Y-88745287D01*
X74726735Y-88609387D01*
X74673703Y-88559456D01*
X74540148Y-88433712D01*
X74428791Y-88277450D01*
X74391420Y-88225010D01*
X74286265Y-87991303D01*
X74228724Y-87741571D01*
X74228272Y-87726571D01*
X74222942Y-87549608D01*
X74271084Y-86843428D01*
X74283044Y-86772148D01*
X74302865Y-86654017D01*
X74393765Y-86414405D01*
X74529665Y-86197131D01*
X74586950Y-86136288D01*
X74705340Y-86010544D01*
X74872578Y-85891365D01*
X74914042Y-85861816D01*
X75147749Y-85756661D01*
X75147753Y-85756660D01*
X75397479Y-85699120D01*
X75653634Y-85691406D01*
X75653638Y-85691406D01*
X75906379Y-85733813D01*
G37*
G36*
X56856379Y-85733813D02*
G01*
X57095991Y-85824713D01*
X57235166Y-85911764D01*
X57313265Y-85960613D01*
X57499852Y-86136288D01*
X57611209Y-86292550D01*
X57648580Y-86344990D01*
X57753735Y-86578697D01*
X57753736Y-86578701D01*
X57811276Y-86828428D01*
X57817058Y-87020394D01*
X57805443Y-87190760D01*
X57768916Y-87726571D01*
X57737135Y-87915983D01*
X57646235Y-88155595D01*
X57602817Y-88225010D01*
X57510335Y-88372869D01*
X57334660Y-88559456D01*
X57178398Y-88670813D01*
X57125958Y-88708184D01*
X56892251Y-88813339D01*
X56892247Y-88813340D01*
X56642521Y-88870880D01*
X56386366Y-88878594D01*
X56386362Y-88878594D01*
X56133621Y-88836187D01*
X55894009Y-88745287D01*
X55676735Y-88609387D01*
X55623703Y-88559456D01*
X55490148Y-88433712D01*
X55378791Y-88277450D01*
X55341420Y-88225010D01*
X55236265Y-87991303D01*
X55178724Y-87741571D01*
X55178272Y-87726571D01*
X55172942Y-87549608D01*
X55221084Y-86843428D01*
X55233044Y-86772148D01*
X55252865Y-86654017D01*
X55343765Y-86414405D01*
X55479665Y-86197131D01*
X55536950Y-86136288D01*
X55655340Y-86010544D01*
X55822578Y-85891365D01*
X55864042Y-85861816D01*
X56097749Y-85756661D01*
X56097753Y-85756660D01*
X56347479Y-85699120D01*
X56603634Y-85691406D01*
X56603638Y-85691406D01*
X56856379Y-85733813D01*
G37*
G36*
X99965483Y-86738335D02*
G01*
X100134240Y-86808236D01*
X100286118Y-86909718D01*
X100415282Y-87038882D01*
X100516764Y-87190760D01*
X100586665Y-87359517D01*
X100622300Y-87538668D01*
X100622300Y-87721332D01*
X100586665Y-87900483D01*
X100516764Y-88069240D01*
X100415282Y-88221118D01*
X100286118Y-88350282D01*
X100134240Y-88451764D01*
X99965483Y-88521665D01*
X99786332Y-88557300D01*
X99603668Y-88557300D01*
X99424517Y-88521665D01*
X99255760Y-88451764D01*
X99103882Y-88350282D01*
X98974718Y-88221118D01*
X98873236Y-88069240D01*
X98803335Y-87900483D01*
X98767700Y-87721332D01*
X98767700Y-87538668D01*
X98803335Y-87359517D01*
X98873236Y-87190760D01*
X98974718Y-87038882D01*
X99103882Y-86909718D01*
X99255760Y-86808236D01*
X99424517Y-86738335D01*
X99603668Y-86702700D01*
X99786332Y-86702700D01*
X99965483Y-86738335D01*
G37*
G36*
X84725483Y-86738335D02*
G01*
X84894240Y-86808236D01*
X85046118Y-86909718D01*
X85175282Y-87038882D01*
X85276764Y-87190760D01*
X85346665Y-87359517D01*
X85382300Y-87538668D01*
X85382300Y-87721332D01*
X85346665Y-87900483D01*
X85276764Y-88069240D01*
X85175282Y-88221118D01*
X85046118Y-88350282D01*
X84894240Y-88451764D01*
X84725483Y-88521665D01*
X84546332Y-88557300D01*
X84363668Y-88557300D01*
X84184517Y-88521665D01*
X84015760Y-88451764D01*
X83863882Y-88350282D01*
X83734718Y-88221118D01*
X83633236Y-88069240D01*
X83563335Y-87900483D01*
X83527700Y-87721332D01*
X83527700Y-87538668D01*
X83563335Y-87359517D01*
X83633236Y-87190760D01*
X83734718Y-87038882D01*
X83863882Y-86909718D01*
X84015760Y-86808236D01*
X84184517Y-86738335D01*
X84363668Y-86702700D01*
X84546332Y-86702700D01*
X84725483Y-86738335D01*
G37*
G36*
X132981564Y-84064389D02*
G01*
X133172833Y-84143615D01*
X133172835Y-84143616D01*
X133344973Y-84258635D01*
X133491365Y-84405027D01*
X133606385Y-84577167D01*
X133685611Y-84768436D01*
X133726000Y-84971484D01*
X133726000Y-85178516D01*
X133685611Y-85381564D01*
X133624441Y-85529241D01*
X133606384Y-85572835D01*
X133491365Y-85744973D01*
X133344973Y-85891365D01*
X133172835Y-86006384D01*
X133172834Y-86006385D01*
X133172833Y-86006385D01*
X132981564Y-86085611D01*
X132778516Y-86126000D01*
X132571484Y-86126000D01*
X132368436Y-86085611D01*
X132177167Y-86006385D01*
X132177166Y-86006385D01*
X132177165Y-86006384D01*
X132005027Y-85891365D01*
X131858635Y-85744973D01*
X131743616Y-85572835D01*
X131725559Y-85529241D01*
X131664389Y-85381564D01*
X131624000Y-85178516D01*
X131624000Y-84971484D01*
X131664389Y-84768436D01*
X131743615Y-84577167D01*
X131858635Y-84405027D01*
X132005027Y-84258635D01*
X132177165Y-84143616D01*
X132177167Y-84143615D01*
X132368436Y-84064389D01*
X132571484Y-84024000D01*
X132778516Y-84024000D01*
X132981564Y-84064389D01*
G37*
G36*
X127981564Y-84064389D02*
G01*
X128172833Y-84143615D01*
X128172835Y-84143616D01*
X128344973Y-84258635D01*
X128491365Y-84405027D01*
X128606385Y-84577167D01*
X128685611Y-84768436D01*
X128726000Y-84971484D01*
X128726000Y-85178516D01*
X128685611Y-85381564D01*
X128624441Y-85529241D01*
X128606384Y-85572835D01*
X128491365Y-85744973D01*
X128344973Y-85891365D01*
X128172835Y-86006384D01*
X128172834Y-86006385D01*
X128172833Y-86006385D01*
X127981564Y-86085611D01*
X127778516Y-86126000D01*
X127571484Y-86126000D01*
X127368436Y-86085611D01*
X127177167Y-86006385D01*
X127177166Y-86006385D01*
X127177165Y-86006384D01*
X127005027Y-85891365D01*
X126858635Y-85744973D01*
X126743616Y-85572835D01*
X126725559Y-85529241D01*
X126664389Y-85381564D01*
X126624000Y-85178516D01*
X126624000Y-84971484D01*
X126664389Y-84768436D01*
X126743615Y-84577167D01*
X126858635Y-84405027D01*
X127005027Y-84258635D01*
X127177165Y-84143616D01*
X127177167Y-84143615D01*
X127368436Y-84064389D01*
X127571484Y-84024000D01*
X127778516Y-84024000D01*
X127981564Y-84064389D01*
G37*
G36*
X99965483Y-84198335D02*
G01*
X100134240Y-84268236D01*
X100286118Y-84369718D01*
X100415282Y-84498882D01*
X100516764Y-84650760D01*
X100586665Y-84819517D01*
X100622300Y-84998668D01*
X100622300Y-85181332D01*
X100586665Y-85360483D01*
X100516764Y-85529240D01*
X100415282Y-85681118D01*
X100286118Y-85810282D01*
X100134240Y-85911764D01*
X99965483Y-85981665D01*
X99786332Y-86017300D01*
X99603668Y-86017300D01*
X99424517Y-85981665D01*
X99255760Y-85911764D01*
X99103882Y-85810282D01*
X98974718Y-85681118D01*
X98873236Y-85529240D01*
X98803335Y-85360483D01*
X98767700Y-85181332D01*
X98767700Y-84998668D01*
X98803335Y-84819517D01*
X98873236Y-84650760D01*
X98974718Y-84498882D01*
X99103882Y-84369718D01*
X99255760Y-84268236D01*
X99424517Y-84198335D01*
X99603668Y-84162700D01*
X99786332Y-84162700D01*
X99965483Y-84198335D01*
G37*
G36*
X84725483Y-84198335D02*
G01*
X84894240Y-84268236D01*
X85046118Y-84369718D01*
X85175282Y-84498882D01*
X85276764Y-84650760D01*
X85346665Y-84819517D01*
X85382300Y-84998668D01*
X85382300Y-85181332D01*
X85346665Y-85360483D01*
X85276764Y-85529240D01*
X85175282Y-85681118D01*
X85046118Y-85810282D01*
X84894240Y-85911764D01*
X84725483Y-85981665D01*
X84546332Y-86017300D01*
X84363668Y-86017300D01*
X84184517Y-85981665D01*
X84015760Y-85911764D01*
X83863882Y-85810282D01*
X83734718Y-85681118D01*
X83633236Y-85529240D01*
X83563335Y-85360483D01*
X83527700Y-85181332D01*
X83527700Y-84998668D01*
X83563335Y-84819517D01*
X83633236Y-84650760D01*
X83734718Y-84498882D01*
X83863882Y-84369718D01*
X84015760Y-84268236D01*
X84184517Y-84198335D01*
X84363668Y-84162700D01*
X84546332Y-84162700D01*
X84725483Y-84198335D01*
G37*
G36*
X99965483Y-81658335D02*
G01*
X100134240Y-81728236D01*
X100286118Y-81829718D01*
X100415282Y-81958882D01*
X100516764Y-82110760D01*
X100586665Y-82279517D01*
X100622300Y-82458668D01*
X100622300Y-82641332D01*
X100586665Y-82820483D01*
X100516764Y-82989240D01*
X100415282Y-83141118D01*
X100286118Y-83270282D01*
X100134240Y-83371764D01*
X99965483Y-83441665D01*
X99786332Y-83477300D01*
X99603668Y-83477300D01*
X99424517Y-83441665D01*
X99255760Y-83371764D01*
X99103882Y-83270282D01*
X98974718Y-83141118D01*
X98873236Y-82989240D01*
X98803335Y-82820483D01*
X98767700Y-82641332D01*
X98767700Y-82458668D01*
X98803335Y-82279517D01*
X98873236Y-82110760D01*
X98974718Y-81958882D01*
X99103882Y-81829718D01*
X99255760Y-81728236D01*
X99424517Y-81658335D01*
X99603668Y-81622700D01*
X99786332Y-81622700D01*
X99965483Y-81658335D01*
G37*
G36*
X84725483Y-81658335D02*
G01*
X84894240Y-81728236D01*
X85046118Y-81829718D01*
X85175282Y-81958882D01*
X85276764Y-82110760D01*
X85346665Y-82279517D01*
X85382300Y-82458668D01*
X85382300Y-82641332D01*
X85346665Y-82820483D01*
X85276764Y-82989240D01*
X85175282Y-83141118D01*
X85046118Y-83270282D01*
X84894240Y-83371764D01*
X84725483Y-83441665D01*
X84546332Y-83477300D01*
X84363668Y-83477300D01*
X84184517Y-83441665D01*
X84015760Y-83371764D01*
X83863882Y-83270282D01*
X83734718Y-83141118D01*
X83633236Y-82989240D01*
X83563335Y-82820483D01*
X83527700Y-82641332D01*
X83527700Y-82458668D01*
X83563335Y-82279517D01*
X83633236Y-82110760D01*
X83734718Y-81958882D01*
X83863882Y-81829718D01*
X84015760Y-81728236D01*
X84184517Y-81658335D01*
X84363668Y-81622700D01*
X84546332Y-81622700D01*
X84725483Y-81658335D01*
G37*
G36*
X126535997Y-81055342D02*
G01*
X126620666Y-81072183D01*
X126686738Y-81099551D01*
X126780177Y-81138255D01*
X126923736Y-81234178D01*
X127045822Y-81356264D01*
X127141745Y-81499823D01*
X127180449Y-81593262D01*
X127207817Y-81659334D01*
X127214947Y-81695178D01*
X127241500Y-81828671D01*
X127241500Y-82001329D01*
X127207817Y-82170665D01*
X127141745Y-82330177D01*
X127045822Y-82473736D01*
X126923736Y-82595822D01*
X126780177Y-82691745D01*
X126686738Y-82730449D01*
X126620666Y-82757817D01*
X126535997Y-82774659D01*
X126451329Y-82791500D01*
X126278671Y-82791500D01*
X126194003Y-82774659D01*
X126109334Y-82757817D01*
X126043262Y-82730449D01*
X125949823Y-82691745D01*
X125806264Y-82595822D01*
X125684178Y-82473736D01*
X125588255Y-82330177D01*
X125522183Y-82170665D01*
X125488500Y-82001329D01*
X125488500Y-81828671D01*
X125515053Y-81695178D01*
X125522183Y-81659334D01*
X125549551Y-81593262D01*
X125588255Y-81499823D01*
X125684178Y-81356264D01*
X125806264Y-81234178D01*
X125949823Y-81138255D01*
X126043262Y-81099551D01*
X126109334Y-81072183D01*
X126194003Y-81055342D01*
X126278671Y-81038500D01*
X126451329Y-81038500D01*
X126535997Y-81055342D01*
G37*
G36*
X134861500Y-82791500D02*
G01*
X133108500Y-82791500D01*
X133108500Y-81038500D01*
X134861500Y-81038500D01*
X134861500Y-82791500D01*
G37*
G36*
X96055997Y-80420342D02*
G01*
X96140666Y-80437183D01*
X96169776Y-80449241D01*
X96300177Y-80503255D01*
X96443736Y-80599178D01*
X96565822Y-80721264D01*
X96661745Y-80864823D01*
X96677005Y-80901665D01*
X96727817Y-81024334D01*
X96761500Y-81193672D01*
X96761500Y-81366328D01*
X96734947Y-81499823D01*
X96727817Y-81535665D01*
X96661745Y-81695177D01*
X96565822Y-81838736D01*
X96443736Y-81960822D01*
X96300177Y-82056745D01*
X96206738Y-82095449D01*
X96140666Y-82122817D01*
X96055997Y-82139658D01*
X95971329Y-82156500D01*
X95798671Y-82156500D01*
X95714003Y-82139658D01*
X95629334Y-82122817D01*
X95563262Y-82095449D01*
X95469823Y-82056745D01*
X95326264Y-81960822D01*
X95204178Y-81838736D01*
X95108255Y-81695177D01*
X95042183Y-81535665D01*
X95035054Y-81499823D01*
X95008500Y-81366328D01*
X95008500Y-81193672D01*
X95042183Y-81024334D01*
X95092995Y-80901665D01*
X95108255Y-80864823D01*
X95204178Y-80721264D01*
X95326264Y-80599178D01*
X95469823Y-80503255D01*
X95600224Y-80449241D01*
X95629334Y-80437183D01*
X95714003Y-80420342D01*
X95798671Y-80403500D01*
X95971329Y-80403500D01*
X96055997Y-80420342D01*
G37*
G36*
X89141500Y-82156500D02*
G01*
X87388500Y-82156500D01*
X87388500Y-80403500D01*
X89141500Y-80403500D01*
X89141500Y-82156500D01*
G37*
G36*
X77005997Y-80420342D02*
G01*
X77090666Y-80437183D01*
X77119776Y-80449241D01*
X77250177Y-80503255D01*
X77393736Y-80599178D01*
X77515822Y-80721264D01*
X77611745Y-80864823D01*
X77627005Y-80901665D01*
X77677817Y-81024334D01*
X77711500Y-81193672D01*
X77711500Y-81366328D01*
X77684947Y-81499823D01*
X77677817Y-81535665D01*
X77611745Y-81695177D01*
X77515822Y-81838736D01*
X77393736Y-81960822D01*
X77250177Y-82056745D01*
X77156738Y-82095449D01*
X77090666Y-82122817D01*
X77005997Y-82139658D01*
X76921329Y-82156500D01*
X76748671Y-82156500D01*
X76664003Y-82139658D01*
X76579334Y-82122817D01*
X76513262Y-82095449D01*
X76419823Y-82056745D01*
X76276264Y-81960822D01*
X76154178Y-81838736D01*
X76058255Y-81695177D01*
X75992183Y-81535665D01*
X75985054Y-81499823D01*
X75958500Y-81366328D01*
X75958500Y-81193672D01*
X75992183Y-81024334D01*
X76042995Y-80901665D01*
X76058255Y-80864823D01*
X76154178Y-80721264D01*
X76276264Y-80599178D01*
X76419823Y-80503255D01*
X76550224Y-80449241D01*
X76579334Y-80437183D01*
X76664003Y-80420342D01*
X76748671Y-80403500D01*
X76921329Y-80403500D01*
X77005997Y-80420342D01*
G37*
G36*
X70091500Y-82156500D02*
G01*
X68338500Y-82156500D01*
X68338500Y-80403500D01*
X70091500Y-80403500D01*
X70091500Y-82156500D01*
G37*
G36*
X57955997Y-80420342D02*
G01*
X58040666Y-80437183D01*
X58069776Y-80449241D01*
X58200177Y-80503255D01*
X58343736Y-80599178D01*
X58465822Y-80721264D01*
X58561745Y-80864823D01*
X58577005Y-80901665D01*
X58627817Y-81024334D01*
X58661500Y-81193672D01*
X58661500Y-81366328D01*
X58634947Y-81499823D01*
X58627817Y-81535665D01*
X58561745Y-81695177D01*
X58465822Y-81838736D01*
X58343736Y-81960822D01*
X58200177Y-82056745D01*
X58106738Y-82095449D01*
X58040666Y-82122817D01*
X57955997Y-82139658D01*
X57871329Y-82156500D01*
X57698671Y-82156500D01*
X57614003Y-82139658D01*
X57529334Y-82122817D01*
X57463262Y-82095449D01*
X57369823Y-82056745D01*
X57226264Y-81960822D01*
X57104178Y-81838736D01*
X57008255Y-81695177D01*
X56942183Y-81535665D01*
X56935054Y-81499823D01*
X56908500Y-81366328D01*
X56908500Y-81193672D01*
X56942183Y-81024334D01*
X56992995Y-80901665D01*
X57008255Y-80864823D01*
X57104178Y-80721264D01*
X57226264Y-80599178D01*
X57369823Y-80503255D01*
X57500224Y-80449241D01*
X57529334Y-80437183D01*
X57614003Y-80420342D01*
X57698671Y-80403500D01*
X57871329Y-80403500D01*
X57955997Y-80420342D01*
G37*
G36*
X51041500Y-82156500D02*
G01*
X49288500Y-82156500D01*
X49288500Y-80403500D01*
X51041500Y-80403500D01*
X51041500Y-82156500D01*
G37*
G36*
X99965483Y-79118335D02*
G01*
X100134240Y-79188236D01*
X100286118Y-79289718D01*
X100415282Y-79418882D01*
X100516764Y-79570760D01*
X100586665Y-79739517D01*
X100622300Y-79918668D01*
X100622300Y-80101332D01*
X100586665Y-80280483D01*
X100516764Y-80449240D01*
X100415282Y-80601118D01*
X100286118Y-80730282D01*
X100134240Y-80831764D01*
X99965483Y-80901665D01*
X99786332Y-80937300D01*
X99603668Y-80937300D01*
X99424517Y-80901665D01*
X99255760Y-80831764D01*
X99103882Y-80730282D01*
X98974718Y-80601118D01*
X98873236Y-80449240D01*
X98803335Y-80280483D01*
X98767700Y-80101332D01*
X98767700Y-79918668D01*
X98803335Y-79739517D01*
X98873236Y-79570760D01*
X98974718Y-79418882D01*
X99103882Y-79289718D01*
X99255760Y-79188236D01*
X99424517Y-79118335D01*
X99603668Y-79082700D01*
X99786332Y-79082700D01*
X99965483Y-79118335D01*
G37*
G36*
X84725483Y-79118335D02*
G01*
X84894240Y-79188236D01*
X85046118Y-79289718D01*
X85175282Y-79418882D01*
X85276764Y-79570760D01*
X85346665Y-79739517D01*
X85382300Y-79918668D01*
X85382300Y-80101332D01*
X85346665Y-80280483D01*
X85276764Y-80449240D01*
X85175282Y-80601118D01*
X85046118Y-80730282D01*
X84894240Y-80831764D01*
X84725483Y-80901665D01*
X84546332Y-80937300D01*
X84363668Y-80937300D01*
X84184517Y-80901665D01*
X84015760Y-80831764D01*
X83863882Y-80730282D01*
X83734718Y-80601118D01*
X83633236Y-80449240D01*
X83563335Y-80280483D01*
X83527700Y-80101332D01*
X83527700Y-79918668D01*
X83563335Y-79739517D01*
X83633236Y-79570760D01*
X83734718Y-79418882D01*
X83863882Y-79289718D01*
X84015760Y-79188236D01*
X84184517Y-79118335D01*
X84363668Y-79082700D01*
X84546332Y-79082700D01*
X84725483Y-79118335D01*
G37*
G36*
X84725483Y-76578335D02*
G01*
X84894240Y-76648236D01*
X85046118Y-76749718D01*
X85175282Y-76878882D01*
X85276764Y-77030760D01*
X85346665Y-77199517D01*
X85382300Y-77378668D01*
X85382300Y-77561332D01*
X85346665Y-77740483D01*
X85276764Y-77909240D01*
X85175282Y-78061118D01*
X85046118Y-78190282D01*
X84894240Y-78291764D01*
X84725483Y-78361665D01*
X84546332Y-78397300D01*
X84363668Y-78397300D01*
X84184517Y-78361665D01*
X84015760Y-78291764D01*
X83863882Y-78190282D01*
X83734718Y-78061118D01*
X83633236Y-77909240D01*
X83563335Y-77740483D01*
X83527700Y-77561332D01*
X83527700Y-77378668D01*
X83563335Y-77199517D01*
X83633236Y-77030760D01*
X83734718Y-76878882D01*
X83863882Y-76749718D01*
X84015760Y-76648236D01*
X84184517Y-76578335D01*
X84363668Y-76542700D01*
X84546332Y-76542700D01*
X84725483Y-76578335D01*
G37*
G36*
X99965483Y-76578335D02*
G01*
X100134240Y-76648236D01*
X100286118Y-76749718D01*
X100415282Y-76878882D01*
X100516764Y-77030760D01*
X100586665Y-77199517D01*
X100622300Y-77378668D01*
X100622300Y-77561332D01*
X100586665Y-77740483D01*
X100516764Y-77909240D01*
X100415282Y-78061118D01*
X100286118Y-78190282D01*
X100134240Y-78291764D01*
X99965483Y-78361665D01*
X99786332Y-78397300D01*
X99603668Y-78397300D01*
X99424517Y-78361665D01*
X99255760Y-78291764D01*
X99103882Y-78190282D01*
X98974718Y-78061118D01*
X98873236Y-77909240D01*
X98803335Y-77740483D01*
X98767700Y-77561332D01*
X98767700Y-77378668D01*
X98803335Y-77199517D01*
X98873236Y-77030760D01*
X98974718Y-76878882D01*
X99103882Y-76749718D01*
X99255760Y-76648236D01*
X99424517Y-76578335D01*
X99603668Y-76542700D01*
X99786332Y-76542700D01*
X99965483Y-76578335D01*
G37*
G36*
X84725483Y-74038335D02*
G01*
X84894240Y-74108236D01*
X85046118Y-74209718D01*
X85175282Y-74338882D01*
X85276764Y-74490760D01*
X85346665Y-74659517D01*
X85382300Y-74838668D01*
X85382300Y-75021332D01*
X85346665Y-75200483D01*
X85276764Y-75369240D01*
X85175282Y-75521118D01*
X85046118Y-75650282D01*
X84894240Y-75751764D01*
X84725483Y-75821665D01*
X84546332Y-75857300D01*
X84363668Y-75857300D01*
X84184517Y-75821665D01*
X84015760Y-75751764D01*
X83863882Y-75650282D01*
X83734718Y-75521118D01*
X83633236Y-75369240D01*
X83563335Y-75200483D01*
X83527700Y-75021332D01*
X83527700Y-74838668D01*
X83563335Y-74659517D01*
X83633236Y-74490760D01*
X83734718Y-74338882D01*
X83863882Y-74209718D01*
X84015760Y-74108236D01*
X84184517Y-74038335D01*
X84363668Y-74002700D01*
X84546332Y-74002700D01*
X84725483Y-74038335D01*
G37*
G36*
X99965483Y-74038335D02*
G01*
X100134240Y-74108236D01*
X100286118Y-74209718D01*
X100415282Y-74338882D01*
X100516764Y-74490760D01*
X100586665Y-74659517D01*
X100622300Y-74838668D01*
X100622300Y-75021332D01*
X100586665Y-75200483D01*
X100516764Y-75369240D01*
X100415282Y-75521118D01*
X100286118Y-75650282D01*
X100134240Y-75751764D01*
X99965483Y-75821665D01*
X99786332Y-75857300D01*
X99603668Y-75857300D01*
X99424517Y-75821665D01*
X99255760Y-75751764D01*
X99103882Y-75650282D01*
X98974718Y-75521118D01*
X98873236Y-75369240D01*
X98803335Y-75200483D01*
X98767700Y-75021332D01*
X98767700Y-74838668D01*
X98803335Y-74659517D01*
X98873236Y-74490760D01*
X98974718Y-74338882D01*
X99103882Y-74209718D01*
X99255760Y-74108236D01*
X99424517Y-74038335D01*
X99603668Y-74002700D01*
X99786332Y-74002700D01*
X99965483Y-74038335D01*
G37*
G36*
X84725483Y-71498335D02*
G01*
X84894240Y-71568236D01*
X85046118Y-71669718D01*
X85175282Y-71798882D01*
X85276764Y-71950760D01*
X85346665Y-72119517D01*
X85382300Y-72298668D01*
X85382300Y-72481332D01*
X85346665Y-72660483D01*
X85276764Y-72829240D01*
X85175282Y-72981118D01*
X85046118Y-73110282D01*
X84894240Y-73211764D01*
X84725483Y-73281665D01*
X84546332Y-73317300D01*
X84363668Y-73317300D01*
X84184517Y-73281665D01*
X84015760Y-73211764D01*
X83863882Y-73110282D01*
X83734718Y-72981118D01*
X83633236Y-72829240D01*
X83563335Y-72660483D01*
X83527700Y-72481332D01*
X83527700Y-72298668D01*
X83563335Y-72119517D01*
X83633236Y-71950760D01*
X83734718Y-71798882D01*
X83863882Y-71669718D01*
X84015760Y-71568236D01*
X84184517Y-71498335D01*
X84363668Y-71462700D01*
X84546332Y-71462700D01*
X84725483Y-71498335D01*
G37*
G36*
X99965483Y-71498335D02*
G01*
X100134240Y-71568236D01*
X100286118Y-71669718D01*
X100415282Y-71798882D01*
X100516764Y-71950760D01*
X100586665Y-72119517D01*
X100622300Y-72298668D01*
X100622300Y-72481332D01*
X100586665Y-72660483D01*
X100516764Y-72829240D01*
X100415282Y-72981118D01*
X100286118Y-73110282D01*
X100134240Y-73211764D01*
X99965483Y-73281665D01*
X99786332Y-73317300D01*
X99603668Y-73317300D01*
X99424517Y-73281665D01*
X99255760Y-73211764D01*
X99103882Y-73110282D01*
X98974718Y-72981118D01*
X98873236Y-72829240D01*
X98803335Y-72660483D01*
X98767700Y-72481332D01*
X98767700Y-72298668D01*
X98803335Y-72119517D01*
X98873236Y-71950760D01*
X98974718Y-71798882D01*
X99103882Y-71669718D01*
X99255760Y-71568236D01*
X99424517Y-71498335D01*
X99603668Y-71462700D01*
X99786332Y-71462700D01*
X99965483Y-71498335D01*
G37*
G36*
X89224575Y-67726286D02*
G01*
X89475086Y-67780333D01*
X89608357Y-67838074D01*
X89710239Y-67882215D01*
X89821688Y-67959314D01*
X89920996Y-68028014D01*
X89920998Y-68028016D01*
X90099262Y-68212130D01*
X90238180Y-68427483D01*
X90332419Y-68665804D01*
X90365019Y-68844753D01*
X90378351Y-68917928D01*
X90374213Y-69174169D01*
X90320166Y-69424680D01*
X90243813Y-69600911D01*
X89370846Y-71172549D01*
X89261579Y-71330497D01*
X89261577Y-71330499D01*
X89077463Y-71508763D01*
X88892953Y-71627785D01*
X88862108Y-71647682D01*
X88839546Y-71656603D01*
X88623789Y-71741920D01*
X88444840Y-71774520D01*
X88371665Y-71787852D01*
X88115425Y-71783714D01*
X87864914Y-71729667D01*
X87726547Y-71669718D01*
X87629761Y-71627785D01*
X87518203Y-71550610D01*
X87419004Y-71481986D01*
X87400331Y-71462700D01*
X87240738Y-71297870D01*
X87101820Y-71082517D01*
X87007581Y-70844196D01*
X86974981Y-70665247D01*
X86961649Y-70592072D01*
X86965787Y-70335832D01*
X87019834Y-70085321D01*
X87096187Y-69909090D01*
X87969154Y-68337451D01*
X88078421Y-68179503D01*
X88127728Y-68131763D01*
X88262537Y-68001237D01*
X88477889Y-67862318D01*
X88716210Y-67768080D01*
X88895159Y-67735480D01*
X88968334Y-67722148D01*
X89224575Y-67726286D01*
G37*
G36*
X51124575Y-67726286D02*
G01*
X51375086Y-67780333D01*
X51508357Y-67838074D01*
X51610239Y-67882215D01*
X51721688Y-67959314D01*
X51820996Y-68028014D01*
X51820998Y-68028016D01*
X51999262Y-68212130D01*
X52138180Y-68427483D01*
X52232419Y-68665804D01*
X52265019Y-68844753D01*
X52278351Y-68917928D01*
X52274213Y-69174169D01*
X52220166Y-69424680D01*
X52143813Y-69600911D01*
X51270846Y-71172549D01*
X51161579Y-71330497D01*
X51161577Y-71330499D01*
X50977463Y-71508763D01*
X50792953Y-71627785D01*
X50762108Y-71647682D01*
X50739546Y-71656603D01*
X50523789Y-71741920D01*
X50344840Y-71774520D01*
X50271665Y-71787852D01*
X50015425Y-71783714D01*
X49764914Y-71729667D01*
X49626547Y-71669718D01*
X49529761Y-71627785D01*
X49418203Y-71550610D01*
X49319004Y-71481986D01*
X49300331Y-71462700D01*
X49140738Y-71297870D01*
X49001820Y-71082517D01*
X48907581Y-70844196D01*
X48874981Y-70665247D01*
X48861649Y-70592072D01*
X48865787Y-70335832D01*
X48919834Y-70085321D01*
X48996187Y-69909090D01*
X49869154Y-68337451D01*
X49978421Y-68179503D01*
X50027728Y-68131763D01*
X50162537Y-68001237D01*
X50377889Y-67862318D01*
X50616210Y-67768080D01*
X50795159Y-67735480D01*
X50868334Y-67722148D01*
X51124575Y-67726286D01*
G37*
G36*
X70174575Y-67726286D02*
G01*
X70425086Y-67780333D01*
X70558357Y-67838074D01*
X70660239Y-67882215D01*
X70771688Y-67959314D01*
X70870996Y-68028014D01*
X70870998Y-68028016D01*
X71049262Y-68212130D01*
X71188180Y-68427483D01*
X71282419Y-68665804D01*
X71315019Y-68844753D01*
X71328351Y-68917928D01*
X71324213Y-69174169D01*
X71270166Y-69424680D01*
X71193813Y-69600911D01*
X70320846Y-71172549D01*
X70211579Y-71330497D01*
X70211577Y-71330499D01*
X70027463Y-71508763D01*
X69842953Y-71627785D01*
X69812108Y-71647682D01*
X69789546Y-71656603D01*
X69573789Y-71741920D01*
X69394840Y-71774520D01*
X69321665Y-71787852D01*
X69065425Y-71783714D01*
X68814914Y-71729667D01*
X68676547Y-71669718D01*
X68579761Y-71627785D01*
X68468203Y-71550610D01*
X68369004Y-71481986D01*
X68350331Y-71462700D01*
X68190738Y-71297870D01*
X68051820Y-71082517D01*
X67957581Y-70844196D01*
X67924981Y-70665247D01*
X67911649Y-70592072D01*
X67915787Y-70335832D01*
X67969834Y-70085321D01*
X68046187Y-69909090D01*
X68919154Y-68337451D01*
X69028421Y-68179503D01*
X69077728Y-68131763D01*
X69212537Y-68001237D01*
X69427889Y-67862318D01*
X69666210Y-67768080D01*
X69845159Y-67735480D01*
X69918334Y-67722148D01*
X70174575Y-67726286D01*
G37*
G36*
X127306564Y-69529389D02*
G01*
X127497833Y-69608615D01*
X127497835Y-69608616D01*
X127669973Y-69723635D01*
X127816365Y-69870027D01*
X127864010Y-69941332D01*
X127931385Y-70042167D01*
X128010611Y-70233436D01*
X128051000Y-70436484D01*
X128051000Y-70643516D01*
X128010611Y-70846564D01*
X127931385Y-71037833D01*
X127931384Y-71037835D01*
X127816365Y-71209973D01*
X127669973Y-71356365D01*
X127497835Y-71471384D01*
X127497834Y-71471385D01*
X127497833Y-71471385D01*
X127306564Y-71550611D01*
X127103516Y-71591000D01*
X126896484Y-71591000D01*
X126693436Y-71550611D01*
X126502167Y-71471385D01*
X126502166Y-71471385D01*
X126502165Y-71471384D01*
X126330027Y-71356365D01*
X126183635Y-71209973D01*
X126068616Y-71037835D01*
X126068615Y-71037833D01*
X125989389Y-70846564D01*
X125949000Y-70643516D01*
X125949000Y-70436484D01*
X125989389Y-70233436D01*
X126068615Y-70042167D01*
X126135991Y-69941332D01*
X126183635Y-69870027D01*
X126330027Y-69723635D01*
X126502165Y-69608616D01*
X126502167Y-69608615D01*
X126693436Y-69529389D01*
X126896484Y-69489000D01*
X127103516Y-69489000D01*
X127306564Y-69529389D01*
G37*
G36*
X133806564Y-69529389D02*
G01*
X133997833Y-69608615D01*
X133997835Y-69608616D01*
X134169973Y-69723635D01*
X134316365Y-69870027D01*
X134364010Y-69941332D01*
X134431385Y-70042167D01*
X134510611Y-70233436D01*
X134551000Y-70436484D01*
X134551000Y-70643516D01*
X134510611Y-70846564D01*
X134431385Y-71037833D01*
X134431384Y-71037835D01*
X134316365Y-71209973D01*
X134169973Y-71356365D01*
X133997835Y-71471384D01*
X133997834Y-71471385D01*
X133997833Y-71471385D01*
X133806564Y-71550611D01*
X133603516Y-71591000D01*
X133396484Y-71591000D01*
X133193436Y-71550611D01*
X133002167Y-71471385D01*
X133002166Y-71471385D01*
X133002165Y-71471384D01*
X132830027Y-71356365D01*
X132683635Y-71209973D01*
X132568616Y-71037835D01*
X132568615Y-71037833D01*
X132489389Y-70846564D01*
X132449000Y-70643516D01*
X132449000Y-70436484D01*
X132489389Y-70233436D01*
X132568615Y-70042167D01*
X132635991Y-69941332D01*
X132683635Y-69870027D01*
X132830027Y-69723635D01*
X133002165Y-69608616D01*
X133002167Y-69608615D01*
X133193436Y-69529389D01*
X133396484Y-69489000D01*
X133603516Y-69489000D01*
X133806564Y-69529389D01*
G37*
G36*
X99965483Y-68958335D02*
G01*
X100134240Y-69028236D01*
X100286118Y-69129718D01*
X100415282Y-69258882D01*
X100516764Y-69410760D01*
X100586665Y-69579517D01*
X100622300Y-69758668D01*
X100622300Y-69941332D01*
X100586665Y-70120483D01*
X100516764Y-70289240D01*
X100415282Y-70441118D01*
X100286118Y-70570282D01*
X100134240Y-70671764D01*
X99965483Y-70741665D01*
X99786332Y-70777300D01*
X99603668Y-70777300D01*
X99424517Y-70741665D01*
X99255760Y-70671764D01*
X99103882Y-70570282D01*
X98974718Y-70441118D01*
X98873236Y-70289240D01*
X98803335Y-70120483D01*
X98767700Y-69941332D01*
X98767700Y-69758668D01*
X98803335Y-69579517D01*
X98873236Y-69410760D01*
X98974718Y-69258882D01*
X99103882Y-69129718D01*
X99255760Y-69028236D01*
X99424517Y-68958335D01*
X99603668Y-68922700D01*
X99786332Y-68922700D01*
X99965483Y-68958335D01*
G37*
G36*
X84725483Y-68958335D02*
G01*
X84894240Y-69028236D01*
X85046118Y-69129718D01*
X85175282Y-69258882D01*
X85276764Y-69410760D01*
X85346665Y-69579517D01*
X85382300Y-69758668D01*
X85382300Y-69941332D01*
X85346665Y-70120483D01*
X85276764Y-70289240D01*
X85175282Y-70441118D01*
X85046118Y-70570282D01*
X84894240Y-70671764D01*
X84725483Y-70741665D01*
X84546332Y-70777300D01*
X84363668Y-70777300D01*
X84184517Y-70741665D01*
X84015760Y-70671764D01*
X83863882Y-70570282D01*
X83734718Y-70441118D01*
X83633236Y-70289240D01*
X83563335Y-70120483D01*
X83527700Y-69941332D01*
X83527700Y-69758668D01*
X83563335Y-69579517D01*
X83633236Y-69410760D01*
X83734718Y-69258882D01*
X83863882Y-69129718D01*
X84015760Y-69028236D01*
X84184517Y-68958335D01*
X84363668Y-68922700D01*
X84546332Y-68922700D01*
X84725483Y-68958335D01*
G37*
G36*
X94956379Y-66683813D02*
G01*
X95195991Y-66774713D01*
X95326534Y-66856365D01*
X95413265Y-66910613D01*
X95599852Y-67086288D01*
X95711209Y-67242550D01*
X95748580Y-67294990D01*
X95853735Y-67528697D01*
X95853736Y-67528701D01*
X95911276Y-67778428D01*
X95917058Y-67970394D01*
X95912975Y-68030281D01*
X95868916Y-68676571D01*
X95837135Y-68865983D01*
X95746235Y-69105595D01*
X95702817Y-69175010D01*
X95610335Y-69322869D01*
X95434660Y-69509456D01*
X95278398Y-69620813D01*
X95225958Y-69658184D01*
X94992251Y-69763339D01*
X94992247Y-69763340D01*
X94742521Y-69820880D01*
X94486366Y-69828594D01*
X94486362Y-69828594D01*
X94233621Y-69786187D01*
X93994009Y-69695287D01*
X93776735Y-69559387D01*
X93723703Y-69509456D01*
X93590148Y-69383712D01*
X93478791Y-69227450D01*
X93441420Y-69175010D01*
X93336265Y-68941303D01*
X93278724Y-68691571D01*
X93277948Y-68665804D01*
X93272942Y-68499608D01*
X93321084Y-67793428D01*
X93333044Y-67722148D01*
X93352865Y-67604017D01*
X93443765Y-67364405D01*
X93579665Y-67147131D01*
X93755340Y-66960544D01*
X93911602Y-66849187D01*
X93964042Y-66811816D01*
X94197749Y-66706661D01*
X94197753Y-66706660D01*
X94447479Y-66649120D01*
X94703634Y-66641406D01*
X94703638Y-66641406D01*
X94956379Y-66683813D01*
G37*
G36*
X56856379Y-66683813D02*
G01*
X57095991Y-66774713D01*
X57226534Y-66856365D01*
X57313265Y-66910613D01*
X57499852Y-67086288D01*
X57611209Y-67242550D01*
X57648580Y-67294990D01*
X57753735Y-67528697D01*
X57753736Y-67528701D01*
X57811276Y-67778428D01*
X57817058Y-67970394D01*
X57812975Y-68030281D01*
X57768916Y-68676571D01*
X57737135Y-68865983D01*
X57646235Y-69105595D01*
X57602817Y-69175010D01*
X57510335Y-69322869D01*
X57334660Y-69509456D01*
X57178398Y-69620813D01*
X57125958Y-69658184D01*
X56892251Y-69763339D01*
X56892247Y-69763340D01*
X56642521Y-69820880D01*
X56386366Y-69828594D01*
X56386362Y-69828594D01*
X56133621Y-69786187D01*
X55894009Y-69695287D01*
X55676735Y-69559387D01*
X55623703Y-69509456D01*
X55490148Y-69383712D01*
X55378791Y-69227450D01*
X55341420Y-69175010D01*
X55236265Y-68941303D01*
X55178724Y-68691571D01*
X55177948Y-68665804D01*
X55172942Y-68499608D01*
X55221084Y-67793428D01*
X55233044Y-67722148D01*
X55252865Y-67604017D01*
X55343765Y-67364405D01*
X55479665Y-67147131D01*
X55655340Y-66960544D01*
X55811602Y-66849187D01*
X55864042Y-66811816D01*
X56097749Y-66706661D01*
X56097753Y-66706660D01*
X56347479Y-66649120D01*
X56603634Y-66641406D01*
X56603638Y-66641406D01*
X56856379Y-66683813D01*
G37*
G36*
X75906379Y-66683813D02*
G01*
X76145991Y-66774713D01*
X76276534Y-66856365D01*
X76363265Y-66910613D01*
X76549852Y-67086288D01*
X76661209Y-67242550D01*
X76698580Y-67294990D01*
X76803735Y-67528697D01*
X76803736Y-67528701D01*
X76861276Y-67778428D01*
X76867058Y-67970394D01*
X76862975Y-68030281D01*
X76818916Y-68676571D01*
X76787135Y-68865983D01*
X76696235Y-69105595D01*
X76652817Y-69175010D01*
X76560335Y-69322869D01*
X76384660Y-69509456D01*
X76228398Y-69620813D01*
X76175958Y-69658184D01*
X75942251Y-69763339D01*
X75942247Y-69763340D01*
X75692521Y-69820880D01*
X75436366Y-69828594D01*
X75436362Y-69828594D01*
X75183621Y-69786187D01*
X74944009Y-69695287D01*
X74726735Y-69559387D01*
X74673703Y-69509456D01*
X74540148Y-69383712D01*
X74428791Y-69227450D01*
X74391420Y-69175010D01*
X74286265Y-68941303D01*
X74228724Y-68691571D01*
X74227948Y-68665804D01*
X74222942Y-68499608D01*
X74271084Y-67793428D01*
X74283044Y-67722148D01*
X74302865Y-67604017D01*
X74393765Y-67364405D01*
X74529665Y-67147131D01*
X74705340Y-66960544D01*
X74861602Y-66849187D01*
X74914042Y-66811816D01*
X75147749Y-66706661D01*
X75147753Y-66706660D01*
X75397479Y-66649120D01*
X75653634Y-66641406D01*
X75653638Y-66641406D01*
X75906379Y-66683813D01*
G37*
G36*
X85382300Y-68237300D02*
G01*
X83527700Y-68237300D01*
X83527700Y-66382700D01*
X85382300Y-66382700D01*
X85382300Y-68237300D01*
G37*
G36*
X99965483Y-66418335D02*
G01*
X100134240Y-66488236D01*
X100286118Y-66589718D01*
X100415282Y-66718882D01*
X100516764Y-66870760D01*
X100586665Y-67039517D01*
X100622300Y-67218668D01*
X100622300Y-67401332D01*
X100586665Y-67580483D01*
X100516764Y-67749240D01*
X100415282Y-67901118D01*
X100286118Y-68030282D01*
X100134240Y-68131764D01*
X99965483Y-68201665D01*
X99786332Y-68237300D01*
X99603668Y-68237300D01*
X99424517Y-68201665D01*
X99255760Y-68131764D01*
X99103882Y-68030282D01*
X98974718Y-67901118D01*
X98873236Y-67749240D01*
X98803335Y-67580483D01*
X98767700Y-67401332D01*
X98767700Y-67218668D01*
X98803335Y-67039517D01*
X98873236Y-66870760D01*
X98974718Y-66718882D01*
X99103882Y-66589718D01*
X99255760Y-66488236D01*
X99424517Y-66418335D01*
X99603668Y-66382700D01*
X99786332Y-66382700D01*
X99965483Y-66418335D01*
G37*
G36*
X127306564Y-65029389D02*
G01*
X127497833Y-65108615D01*
X127497835Y-65108616D01*
X127669973Y-65223635D01*
X127816365Y-65370027D01*
X127883067Y-65469853D01*
X127931385Y-65542167D01*
X128010611Y-65733436D01*
X128051000Y-65936484D01*
X128051000Y-66143516D01*
X128010611Y-66346564D01*
X127951928Y-66488237D01*
X127931384Y-66537835D01*
X127816365Y-66709973D01*
X127669973Y-66856365D01*
X127497835Y-66971384D01*
X127497834Y-66971385D01*
X127497833Y-66971385D01*
X127306564Y-67050611D01*
X127103516Y-67091000D01*
X126896484Y-67091000D01*
X126693436Y-67050611D01*
X126502167Y-66971385D01*
X126502166Y-66971385D01*
X126502165Y-66971384D01*
X126330027Y-66856365D01*
X126183635Y-66709973D01*
X126068616Y-66537835D01*
X126048072Y-66488237D01*
X125989389Y-66346564D01*
X125949000Y-66143516D01*
X125949000Y-65936484D01*
X125989389Y-65733436D01*
X126068615Y-65542167D01*
X126116934Y-65469853D01*
X126183635Y-65370027D01*
X126330027Y-65223635D01*
X126502165Y-65108616D01*
X126502167Y-65108615D01*
X126693436Y-65029389D01*
X126896484Y-64989000D01*
X127103516Y-64989000D01*
X127306564Y-65029389D01*
G37*
G36*
X133806564Y-65029389D02*
G01*
X133997833Y-65108615D01*
X133997835Y-65108616D01*
X134169973Y-65223635D01*
X134316365Y-65370027D01*
X134383067Y-65469853D01*
X134431385Y-65542167D01*
X134510611Y-65733436D01*
X134551000Y-65936484D01*
X134551000Y-66143516D01*
X134510611Y-66346564D01*
X134451928Y-66488237D01*
X134431384Y-66537835D01*
X134316365Y-66709973D01*
X134169973Y-66856365D01*
X133997835Y-66971384D01*
X133997834Y-66971385D01*
X133997833Y-66971385D01*
X133806564Y-67050611D01*
X133603516Y-67091000D01*
X133396484Y-67091000D01*
X133193436Y-67050611D01*
X133002167Y-66971385D01*
X133002166Y-66971385D01*
X133002165Y-66971384D01*
X132830027Y-66856365D01*
X132683635Y-66709973D01*
X132568616Y-66537835D01*
X132548072Y-66488237D01*
X132489389Y-66346564D01*
X132449000Y-66143516D01*
X132449000Y-65936484D01*
X132489389Y-65733436D01*
X132568615Y-65542167D01*
X132616934Y-65469853D01*
X132683635Y-65370027D01*
X132830027Y-65223635D01*
X133002165Y-65108616D01*
X133002167Y-65108615D01*
X133193436Y-65029389D01*
X133396484Y-64989000D01*
X133603516Y-64989000D01*
X133806564Y-65029389D01*
G37*
G36*
X70116000Y-65671000D02*
G01*
X68314000Y-65671000D01*
X68314000Y-63869000D01*
X70116000Y-63869000D01*
X70116000Y-65671000D01*
G37*
G36*
X74408512Y-63873927D02*
G01*
X74557812Y-63903624D01*
X74721784Y-63971544D01*
X74869354Y-64070147D01*
X74994853Y-64195646D01*
X75093456Y-64343216D01*
X75161376Y-64507188D01*
X75196000Y-64681259D01*
X75196000Y-64858741D01*
X75161376Y-65032812D01*
X75093456Y-65196784D01*
X74994853Y-65344354D01*
X74869354Y-65469853D01*
X74721784Y-65568456D01*
X74557812Y-65636376D01*
X74408512Y-65666073D01*
X74383742Y-65671000D01*
X74206258Y-65671000D01*
X74181488Y-65666073D01*
X74032188Y-65636376D01*
X73868216Y-65568456D01*
X73720646Y-65469853D01*
X73595147Y-65344354D01*
X73496544Y-65196784D01*
X73428624Y-65032812D01*
X73394000Y-64858741D01*
X73394000Y-64681259D01*
X73428624Y-64507188D01*
X73496544Y-64343216D01*
X73595147Y-64195646D01*
X73720646Y-64070147D01*
X73868216Y-63971544D01*
X74032188Y-63903624D01*
X74181488Y-63873927D01*
X74206258Y-63869000D01*
X74383742Y-63869000D01*
X74408512Y-63873927D01*
G37*
G36*
X71868512Y-63873927D02*
G01*
X72017812Y-63903624D01*
X72181784Y-63971544D01*
X72329354Y-64070147D01*
X72454853Y-64195646D01*
X72553456Y-64343216D01*
X72621376Y-64507188D01*
X72656000Y-64681259D01*
X72656000Y-64858741D01*
X72621376Y-65032812D01*
X72553456Y-65196784D01*
X72454853Y-65344354D01*
X72329354Y-65469853D01*
X72181784Y-65568456D01*
X72017812Y-65636376D01*
X71868512Y-65666073D01*
X71843742Y-65671000D01*
X71666258Y-65671000D01*
X71641488Y-65666073D01*
X71492188Y-65636376D01*
X71328216Y-65568456D01*
X71180646Y-65469853D01*
X71055147Y-65344354D01*
X70956544Y-65196784D01*
X70888624Y-65032812D01*
X70854000Y-64858741D01*
X70854000Y-64681259D01*
X70888624Y-64507188D01*
X70956544Y-64343216D01*
X71055147Y-64195646D01*
X71180646Y-64070147D01*
X71328216Y-63971544D01*
X71492188Y-63903624D01*
X71641488Y-63873927D01*
X71666258Y-63869000D01*
X71843742Y-63869000D01*
X71868512Y-63873927D01*
G37*
G36*
X76948512Y-63873927D02*
G01*
X77097812Y-63903624D01*
X77261784Y-63971544D01*
X77409354Y-64070147D01*
X77534853Y-64195646D01*
X77633456Y-64343216D01*
X77701376Y-64507188D01*
X77736000Y-64681259D01*
X77736000Y-64858741D01*
X77701376Y-65032812D01*
X77633456Y-65196784D01*
X77534853Y-65344354D01*
X77409354Y-65469853D01*
X77261784Y-65568456D01*
X77097812Y-65636376D01*
X76948512Y-65666073D01*
X76923742Y-65671000D01*
X76746258Y-65671000D01*
X76721488Y-65666073D01*
X76572188Y-65636376D01*
X76408216Y-65568456D01*
X76260646Y-65469853D01*
X76135147Y-65344354D01*
X76036544Y-65196784D01*
X75968624Y-65032812D01*
X75934000Y-64858741D01*
X75934000Y-64681259D01*
X75968624Y-64507188D01*
X76036544Y-64343216D01*
X76135147Y-64195646D01*
X76260646Y-64070147D01*
X76408216Y-63971544D01*
X76572188Y-63903624D01*
X76721488Y-63873927D01*
X76746258Y-63869000D01*
X76923742Y-63869000D01*
X76948512Y-63873927D01*
G37*
M02*
