M48
; DRILL file {KiCad (5.1.5)-3} date 09/12/20 16:36:08
; FORMAT={-:-/ absolute / inch / decimal}
; #@! TF.CreationDate,2020-09-12T16:36:08+03:00
; #@! TF.GenerationSoftware,Kicad,Pcbnew,(5.1.5)-3
FMAT,2
INCH
T1C0.0157
T2C0.0390
T3C0.0394
T4C0.0430
T5C0.0433
T6C0.0591
T7C0.0670
T8C0.1570
%
G90
G05
T1
X2.55Y-3.125
X2.55Y-3.875
X2.55Y-4.625
X2.675Y-3.125
X2.675Y-3.875
X2.675Y-4.625
X3.225Y-3.875
X3.3Y-4.625
X3.425Y-3.875
X3.425Y-4.625
X4.0Y-3.65
X4.0285Y-3.6035
T2
X1.975Y-4.7
X2.275Y-4.7
X5.725Y-5.45
X6.025Y-5.45
X4.975Y-3.225
X5.275Y-3.225
X3.475Y-5.45
X3.775Y-5.45
X1.975Y-5.45
X2.275Y-5.45
X4.975Y-5.45
X5.275Y-5.45
X2.725Y-3.2
X3.025Y-3.2
X1.975Y-3.2
X2.275Y-3.2
X2.725Y-3.95
X3.025Y-3.95
X2.725Y-4.7
X3.025Y-4.7
X1.975Y-3.95
X2.275Y-3.95
X3.475Y-3.95
X3.775Y-3.95
X2.725Y-5.45
X3.025Y-5.45
X3.475Y-3.2
X3.775Y-3.2
X4.225Y-5.45
X4.525Y-5.45
X3.475Y-4.7
X3.775Y-4.7
T3
X5.0266Y-3.3494
X5.0266Y-3.9203
X5.125Y-3.9203
X5.2234Y-3.3494
X5.2234Y-3.9203
X2.725Y-2.55
X2.825Y-2.55
X2.925Y-2.55
X3.025Y-2.55
T4
X3.325Y-2.65
X3.325Y-2.75
X3.325Y-2.85
X3.325Y-2.95
X3.325Y-3.05
X3.325Y-3.15
X3.325Y-3.25
X3.325Y-3.35
X3.325Y-3.45
X3.325Y-3.55
X3.325Y-3.65
X3.325Y-3.75
X3.925Y-2.65
X3.925Y-2.75
X3.925Y-2.85
X3.925Y-2.95
X3.925Y-3.05
X3.925Y-3.15
X3.925Y-3.25
X3.925Y-3.35
X3.925Y-3.45
X3.925Y-3.55
X3.925Y-3.65
X3.925Y-3.75
T5
X5.0Y-2.6
X5.0Y-2.7772
X5.2559Y-2.6
X5.2559Y-2.7772
T7
X3.425Y-2.875
X3.825Y-2.875
X1.925Y-2.875
X2.325Y-2.875
X1.925Y-4.375
X2.325Y-4.375
X3.425Y-3.625
X3.825Y-3.625
X4.175Y-5.125
X4.575Y-5.125
X2.675Y-2.875
X3.075Y-2.875
X2.675Y-4.375
X3.075Y-4.375
X3.425Y-4.375
X3.825Y-4.375
X2.675Y-5.125
X3.075Y-5.125
X3.425Y-5.125
X3.825Y-5.125
X4.925Y-5.125
X5.325Y-5.125
X1.925Y-3.625
X2.325Y-3.625
X2.675Y-3.625
X3.075Y-3.625
X5.675Y-5.125
X6.075Y-5.125
X1.925Y-5.125
X2.325Y-5.125
T8
X5.125Y-5.125
X2.125Y-3.625
X2.875Y-3.625
X5.875Y-5.125
X2.125Y-5.125
X3.625Y-2.875
X2.125Y-2.875
X2.125Y-4.375
X3.625Y-3.625
X4.375Y-5.125
X2.875Y-2.875
X2.875Y-4.375
X3.625Y-4.375
X2.875Y-5.125
X3.625Y-5.125
T6
G00X5.0069Y-4.9675
M15
G01X4.975Y-5.025
M16
G05
G00X5.225Y-4.925
M15
G01X5.2234Y-4.9478
M16
G05
G00X2.0069Y-3.4675
M15
G01X1.975Y-3.525
M16
G05
G00X2.225Y-3.425
M15
G01X2.2234Y-3.4478
M16
G05
G00X2.7569Y-3.4675
M15
G01X2.725Y-3.525
M16
G05
G00X2.975Y-3.425
M15
G01X2.9734Y-3.4478
M16
G05
G00X5.7569Y-4.9675
M15
G01X5.725Y-5.025
M16
G05
G00X5.975Y-4.925
M15
G01X5.9734Y-4.9478
M16
G05
G00X2.0069Y-4.9675
M15
G01X1.975Y-5.025
M16
G05
G00X2.225Y-4.925
M15
G01X2.2234Y-4.9478
M16
G05
G00X3.5069Y-2.7175
M15
G01X3.475Y-2.775
M16
G05
G00X3.725Y-2.675
M15
G01X3.7234Y-2.6978
M16
G05
G00X2.0069Y-2.7175
M15
G01X1.975Y-2.775
M16
G05
G00X2.225Y-2.675
M15
G01X2.2234Y-2.6978
M16
G05
G00X4.9045Y-3.6506
M15
G01X4.9045Y-3.5994
M16
G05
G00X5.3455Y-3.6506
M15
G01X5.3455Y-3.5994
M16
G05
G00X2.0069Y-4.2175
M15
G01X1.975Y-4.275
M16
G05
G00X2.225Y-4.175
M15
G01X2.2234Y-4.1978
M16
G05
G00X3.5069Y-3.4675
M15
G01X3.475Y-3.525
M16
G05
G00X3.725Y-3.425
M15
G01X3.7234Y-3.4478
M16
G05
G00X4.2569Y-4.9675
M15
G01X4.225Y-5.025
M16
G05
G00X4.475Y-4.925
M15
G01X4.4734Y-4.9478
M16
G05
G00X2.7569Y-2.7175
M15
G01X2.725Y-2.775
M16
G05
G00X2.975Y-2.675
M15
G01X2.9734Y-2.6978
M16
G05
G00X2.7569Y-4.2175
M15
G01X2.725Y-4.275
M16
G05
G00X2.975Y-4.175
M15
G01X2.9734Y-4.1978
M16
G05
G00X3.5069Y-4.2175
M15
G01X3.475Y-4.275
M16
G05
G00X3.725Y-4.175
M15
G01X3.7234Y-4.1978
M16
G05
G00X2.7569Y-4.9675
M15
G01X2.725Y-5.025
M16
G05
G00X2.975Y-4.925
M15
G01X2.9734Y-4.9478
M16
G05
G00X3.5069Y-4.9675
M15
G01X3.475Y-5.025
M16
G05
G00X3.725Y-4.925
M15
G01X3.7234Y-4.9478
M16
G05
T0
M30
