G04 #@! TF.GenerationSoftware,KiCad,Pcbnew,(5.1.5)-3*
G04 #@! TF.CreationDate,2020-09-11T01:00:18+03:00*
G04 #@! TF.ProjectId,taro,7461726f-2e6b-4696-9361-645f70636258,rev?*
G04 #@! TF.SameCoordinates,Original*
G04 #@! TF.FileFunction,Legend,Top*
G04 #@! TF.FilePolarity,Positive*
%FSLAX46Y46*%
G04 Gerber Fmt 4.6, Leading zero omitted, Abs format (unit mm)*
G04 Created by KiCad (PCBNEW (5.1.5)-3) date 2020-09-11 01:00:18*
%MOMM*%
%LPD*%
G04 APERTURE LIST*
%ADD10C,0.050000*%
%ADD11C,0.381000*%
%ADD12C,0.150000*%
%ADD13C,0.120000*%
%ADD14C,0.203200*%
G04 APERTURE END LIST*
D10*
X46355000Y-140335000D02*
X156845000Y-140335000D01*
X43815000Y-65405000D02*
X43815000Y-137795000D01*
X156845000Y-62865000D02*
X46355000Y-62865000D01*
X159385000Y-137795000D02*
X159385000Y-65405000D01*
X159385000Y-137795000D02*
G75*
G02X156845000Y-140335000I-2540000J0D01*
G01*
X46355000Y-140335000D02*
G75*
G02X43815000Y-137795000I0J2540000D01*
G01*
X43815000Y-65405000D02*
G75*
G02X46355000Y-62865000I2540000J0D01*
G01*
X156845000Y-62865000D02*
G75*
G02X159385000Y-65405000I0J-2540000D01*
G01*
D11*
X83185000Y-66040000D02*
X83185000Y-96520000D01*
X83185000Y-96520000D02*
X100965000Y-96520000D01*
X100965000Y-96520000D02*
X100965000Y-66040000D01*
X85725000Y-66040000D02*
X85725000Y-68580000D01*
X85725000Y-68580000D02*
X83185000Y-68580000D01*
D12*
G36*
X97006568Y-71919360D02*
G01*
X97006568Y-72219360D01*
X96906568Y-72219360D01*
X96906568Y-71919360D01*
X97006568Y-71919360D01*
G37*
X97006568Y-71919360D02*
X97006568Y-72219360D01*
X96906568Y-72219360D01*
X96906568Y-71919360D01*
X97006568Y-71919360D01*
G36*
X96806568Y-72319360D02*
G01*
X96806568Y-72419360D01*
X96706568Y-72419360D01*
X96706568Y-72319360D01*
X96806568Y-72319360D01*
G37*
X96806568Y-72319360D02*
X96806568Y-72419360D01*
X96706568Y-72419360D01*
X96706568Y-72319360D01*
X96806568Y-72319360D01*
G36*
X97006568Y-71919360D02*
G01*
X97006568Y-72019360D01*
X96506568Y-72019360D01*
X96506568Y-71919360D01*
X97006568Y-71919360D01*
G37*
X97006568Y-71919360D02*
X97006568Y-72019360D01*
X96506568Y-72019360D01*
X96506568Y-71919360D01*
X97006568Y-71919360D01*
G36*
X96606568Y-71919360D02*
G01*
X96606568Y-72719360D01*
X96506568Y-72719360D01*
X96506568Y-71919360D01*
X96606568Y-71919360D01*
G37*
X96606568Y-71919360D02*
X96606568Y-72719360D01*
X96506568Y-72719360D01*
X96506568Y-71919360D01*
X96606568Y-71919360D01*
G36*
X97006568Y-72519360D02*
G01*
X97006568Y-72719360D01*
X96906568Y-72719360D01*
X96906568Y-72519360D01*
X97006568Y-72519360D01*
G37*
X97006568Y-72519360D02*
X97006568Y-72719360D01*
X96906568Y-72719360D01*
X96906568Y-72519360D01*
X97006568Y-72519360D01*
D11*
X100965000Y-66040000D02*
X100965000Y-63500000D01*
X100965000Y-63500000D02*
X83185000Y-63500000D01*
X83185000Y-63500000D02*
X83185000Y-66040000D01*
X85725000Y-66040000D02*
X83185000Y-66040000D01*
X142875000Y-123825000D02*
X144653000Y-123825000D01*
X153797000Y-123825000D02*
X155575000Y-123825000D01*
X155575000Y-123825000D02*
X155575000Y-125603000D01*
X155575000Y-134747000D02*
X155575000Y-136525000D01*
X155575000Y-136525000D02*
X153797000Y-136525000D01*
X144653000Y-136525000D02*
X142875000Y-136525000D01*
X142875000Y-136525000D02*
X142875000Y-134747000D01*
X142875000Y-125603000D02*
X142875000Y-123825000D01*
X123825000Y-123825000D02*
X125603000Y-123825000D01*
X134747000Y-123825000D02*
X136525000Y-123825000D01*
X136525000Y-123825000D02*
X136525000Y-125603000D01*
X136525000Y-134747000D02*
X136525000Y-136525000D01*
X136525000Y-136525000D02*
X134747000Y-136525000D01*
X125603000Y-136525000D02*
X123825000Y-136525000D01*
X123825000Y-136525000D02*
X123825000Y-134747000D01*
X123825000Y-125603000D02*
X123825000Y-123825000D01*
X104775000Y-123825000D02*
X106553000Y-123825000D01*
X115697000Y-123825000D02*
X117475000Y-123825000D01*
X117475000Y-123825000D02*
X117475000Y-125603000D01*
X117475000Y-134747000D02*
X117475000Y-136525000D01*
X117475000Y-136525000D02*
X115697000Y-136525000D01*
X106553000Y-136525000D02*
X104775000Y-136525000D01*
X104775000Y-136525000D02*
X104775000Y-134747000D01*
X104775000Y-125603000D02*
X104775000Y-123825000D01*
D13*
X133175000Y-92075000D02*
G75*
G03X133175000Y-92075000I-3000000J0D01*
G01*
X124275000Y-90075000D02*
X124275000Y-85975000D01*
X136075000Y-85975000D02*
X136075000Y-90075000D01*
X136075000Y-94075000D02*
X136075000Y-98175000D01*
X124275000Y-94075000D02*
X124275000Y-98175000D01*
X124275000Y-98175000D02*
X136075000Y-98175000D01*
X126375000Y-99575000D02*
X126075000Y-99875000D01*
X126075000Y-99875000D02*
X126075000Y-99275000D01*
X126075000Y-99275000D02*
X126375000Y-99575000D01*
X124275000Y-85975000D02*
X126675000Y-85975000D01*
X128875000Y-85975000D02*
X131475000Y-85975000D01*
X133675000Y-85975000D02*
X136075000Y-85975000D01*
X129675000Y-92075000D02*
X130675000Y-92075000D01*
X130175000Y-92575000D02*
X130175000Y-91575000D01*
D11*
X85725000Y-123825000D02*
X87503000Y-123825000D01*
X96647000Y-123825000D02*
X98425000Y-123825000D01*
X98425000Y-123825000D02*
X98425000Y-125603000D01*
X98425000Y-134747000D02*
X98425000Y-136525000D01*
X98425000Y-136525000D02*
X96647000Y-136525000D01*
X87503000Y-136525000D02*
X85725000Y-136525000D01*
X85725000Y-136525000D02*
X85725000Y-134747000D01*
X85725000Y-125603000D02*
X85725000Y-123825000D01*
X85725000Y-104775000D02*
X87503000Y-104775000D01*
X96647000Y-104775000D02*
X98425000Y-104775000D01*
X98425000Y-104775000D02*
X98425000Y-106553000D01*
X98425000Y-115697000D02*
X98425000Y-117475000D01*
X98425000Y-117475000D02*
X96647000Y-117475000D01*
X87503000Y-117475000D02*
X85725000Y-117475000D01*
X85725000Y-117475000D02*
X85725000Y-115697000D01*
X85725000Y-106553000D02*
X85725000Y-104775000D01*
X85725000Y-85725000D02*
X87503000Y-85725000D01*
X96647000Y-85725000D02*
X98425000Y-85725000D01*
X98425000Y-85725000D02*
X98425000Y-87503000D01*
X98425000Y-96647000D02*
X98425000Y-98425000D01*
X98425000Y-98425000D02*
X96647000Y-98425000D01*
X87503000Y-98425000D02*
X85725000Y-98425000D01*
X85725000Y-98425000D02*
X85725000Y-96647000D01*
X85725000Y-87503000D02*
X85725000Y-85725000D01*
X85725000Y-66675000D02*
X87503000Y-66675000D01*
X96647000Y-66675000D02*
X98425000Y-66675000D01*
X98425000Y-66675000D02*
X98425000Y-68453000D01*
X98425000Y-77597000D02*
X98425000Y-79375000D01*
X98425000Y-79375000D02*
X96647000Y-79375000D01*
X87503000Y-79375000D02*
X85725000Y-79375000D01*
X85725000Y-79375000D02*
X85725000Y-77597000D01*
X85725000Y-68453000D02*
X85725000Y-66675000D01*
X66675000Y-123825000D02*
X68453000Y-123825000D01*
X77597000Y-123825000D02*
X79375000Y-123825000D01*
X79375000Y-123825000D02*
X79375000Y-125603000D01*
X79375000Y-134747000D02*
X79375000Y-136525000D01*
X79375000Y-136525000D02*
X77597000Y-136525000D01*
X68453000Y-136525000D02*
X66675000Y-136525000D01*
X66675000Y-136525000D02*
X66675000Y-134747000D01*
X66675000Y-125603000D02*
X66675000Y-123825000D01*
X66675000Y-104775000D02*
X68453000Y-104775000D01*
X77597000Y-104775000D02*
X79375000Y-104775000D01*
X79375000Y-104775000D02*
X79375000Y-106553000D01*
X79375000Y-115697000D02*
X79375000Y-117475000D01*
X79375000Y-117475000D02*
X77597000Y-117475000D01*
X68453000Y-117475000D02*
X66675000Y-117475000D01*
X66675000Y-117475000D02*
X66675000Y-115697000D01*
X66675000Y-106553000D02*
X66675000Y-104775000D01*
X66675000Y-85725000D02*
X68453000Y-85725000D01*
X77597000Y-85725000D02*
X79375000Y-85725000D01*
X79375000Y-85725000D02*
X79375000Y-87503000D01*
X79375000Y-96647000D02*
X79375000Y-98425000D01*
X79375000Y-98425000D02*
X77597000Y-98425000D01*
X68453000Y-98425000D02*
X66675000Y-98425000D01*
X66675000Y-98425000D02*
X66675000Y-96647000D01*
X66675000Y-87503000D02*
X66675000Y-85725000D01*
X66675000Y-66675000D02*
X68453000Y-66675000D01*
X77597000Y-66675000D02*
X79375000Y-66675000D01*
X79375000Y-66675000D02*
X79375000Y-68453000D01*
X79375000Y-77597000D02*
X79375000Y-79375000D01*
X79375000Y-79375000D02*
X77597000Y-79375000D01*
X68453000Y-79375000D02*
X66675000Y-79375000D01*
X66675000Y-79375000D02*
X66675000Y-77597000D01*
X66675000Y-68453000D02*
X66675000Y-66675000D01*
X47625000Y-123825000D02*
X49403000Y-123825000D01*
X58547000Y-123825000D02*
X60325000Y-123825000D01*
X60325000Y-123825000D02*
X60325000Y-125603000D01*
X60325000Y-134747000D02*
X60325000Y-136525000D01*
X60325000Y-136525000D02*
X58547000Y-136525000D01*
X49403000Y-136525000D02*
X47625000Y-136525000D01*
X47625000Y-136525000D02*
X47625000Y-134747000D01*
X47625000Y-125603000D02*
X47625000Y-123825000D01*
X47625000Y-104775000D02*
X49403000Y-104775000D01*
X58547000Y-104775000D02*
X60325000Y-104775000D01*
X60325000Y-104775000D02*
X60325000Y-106553000D01*
X60325000Y-115697000D02*
X60325000Y-117475000D01*
X60325000Y-117475000D02*
X58547000Y-117475000D01*
X49403000Y-117475000D02*
X47625000Y-117475000D01*
X47625000Y-117475000D02*
X47625000Y-115697000D01*
X47625000Y-106553000D02*
X47625000Y-104775000D01*
X47625000Y-85725000D02*
X49403000Y-85725000D01*
X58547000Y-85725000D02*
X60325000Y-85725000D01*
X60325000Y-85725000D02*
X60325000Y-87503000D01*
X60325000Y-96647000D02*
X60325000Y-98425000D01*
X60325000Y-98425000D02*
X58547000Y-98425000D01*
X49403000Y-98425000D02*
X47625000Y-98425000D01*
X47625000Y-98425000D02*
X47625000Y-96647000D01*
X47625000Y-87503000D02*
X47625000Y-85725000D01*
X47625000Y-66675000D02*
X49403000Y-66675000D01*
X58547000Y-66675000D02*
X60325000Y-66675000D01*
X60325000Y-66675000D02*
X60325000Y-68453000D01*
X60325000Y-77597000D02*
X60325000Y-79375000D01*
X60325000Y-79375000D02*
X58547000Y-79375000D01*
X49403000Y-79375000D02*
X47625000Y-79375000D01*
X47625000Y-79375000D02*
X47625000Y-77597000D01*
X47625000Y-68453000D02*
X47625000Y-66675000D01*
D13*
X128000000Y-119165000D02*
X132500000Y-119165000D01*
X126750000Y-115165000D02*
X126750000Y-116665000D01*
X132500000Y-112665000D02*
X128000000Y-112665000D01*
X133750000Y-116665000D02*
X133750000Y-115165000D01*
X78165000Y-66100000D02*
X78165000Y-63440000D01*
X70485000Y-66100000D02*
X78165000Y-66100000D01*
X70485000Y-63440000D02*
X78165000Y-63440000D01*
X70485000Y-66100000D02*
X70485000Y-63440000D01*
X69215000Y-66100000D02*
X67885000Y-66100000D01*
X67885000Y-66100000D02*
X67885000Y-64770000D01*
D12*
X148325000Y-137330000D02*
X148325000Y-139530000D01*
X148125000Y-139530000D02*
X148125000Y-137330000D01*
X147925000Y-139430000D02*
X147925000Y-139530000D01*
X147925000Y-139530000D02*
X147925000Y-139430000D01*
X147925000Y-137330000D02*
X147925000Y-139430000D01*
D14*
X150749000Y-139573000D02*
X147701000Y-139573000D01*
X147701000Y-139573000D02*
X147701000Y-137287000D01*
X147701000Y-137287000D02*
X150749000Y-137287000D01*
X150749000Y-137287000D02*
X150749000Y-139573000D01*
D12*
X129275000Y-137330000D02*
X129275000Y-139530000D01*
X129075000Y-139530000D02*
X129075000Y-137330000D01*
X128875000Y-139430000D02*
X128875000Y-139530000D01*
X128875000Y-139530000D02*
X128875000Y-139430000D01*
X128875000Y-137330000D02*
X128875000Y-139430000D01*
D14*
X131699000Y-139573000D02*
X128651000Y-139573000D01*
X128651000Y-139573000D02*
X128651000Y-137287000D01*
X128651000Y-137287000D02*
X131699000Y-137287000D01*
X131699000Y-137287000D02*
X131699000Y-139573000D01*
D12*
X129275000Y-80815000D02*
X129275000Y-83015000D01*
X129075000Y-83015000D02*
X129075000Y-80815000D01*
X128875000Y-82915000D02*
X128875000Y-83015000D01*
X128875000Y-83015000D02*
X128875000Y-82915000D01*
X128875000Y-80815000D02*
X128875000Y-82915000D01*
D14*
X131699000Y-83058000D02*
X128651000Y-83058000D01*
X128651000Y-83058000D02*
X128651000Y-80772000D01*
X128651000Y-80772000D02*
X131699000Y-80772000D01*
X131699000Y-80772000D02*
X131699000Y-83058000D01*
D12*
X110225000Y-137330000D02*
X110225000Y-139530000D01*
X110025000Y-139530000D02*
X110025000Y-137330000D01*
X109825000Y-139430000D02*
X109825000Y-139530000D01*
X109825000Y-139530000D02*
X109825000Y-139430000D01*
X109825000Y-137330000D02*
X109825000Y-139430000D01*
D14*
X112649000Y-139573000D02*
X109601000Y-139573000D01*
X109601000Y-139573000D02*
X109601000Y-137287000D01*
X109601000Y-137287000D02*
X112649000Y-137287000D01*
X112649000Y-137287000D02*
X112649000Y-139573000D01*
D12*
X91175000Y-137330000D02*
X91175000Y-139530000D01*
X90975000Y-139530000D02*
X90975000Y-137330000D01*
X90775000Y-139430000D02*
X90775000Y-139530000D01*
X90775000Y-139530000D02*
X90775000Y-139430000D01*
X90775000Y-137330000D02*
X90775000Y-139430000D01*
D14*
X93599000Y-139573000D02*
X90551000Y-139573000D01*
X90551000Y-139573000D02*
X90551000Y-137287000D01*
X90551000Y-137287000D02*
X93599000Y-137287000D01*
X93599000Y-137287000D02*
X93599000Y-139573000D01*
D12*
X91175000Y-118280000D02*
X91175000Y-120480000D01*
X90975000Y-120480000D02*
X90975000Y-118280000D01*
X90775000Y-120380000D02*
X90775000Y-120480000D01*
X90775000Y-120480000D02*
X90775000Y-120380000D01*
X90775000Y-118280000D02*
X90775000Y-120380000D01*
D14*
X93599000Y-120523000D02*
X90551000Y-120523000D01*
X90551000Y-120523000D02*
X90551000Y-118237000D01*
X90551000Y-118237000D02*
X93599000Y-118237000D01*
X93599000Y-118237000D02*
X93599000Y-120523000D01*
D12*
X91175000Y-99230000D02*
X91175000Y-101430000D01*
X90975000Y-101430000D02*
X90975000Y-99230000D01*
X90775000Y-101330000D02*
X90775000Y-101430000D01*
X90775000Y-101430000D02*
X90775000Y-101330000D01*
X90775000Y-99230000D02*
X90775000Y-101330000D01*
D14*
X93599000Y-101473000D02*
X90551000Y-101473000D01*
X90551000Y-101473000D02*
X90551000Y-99187000D01*
X90551000Y-99187000D02*
X93599000Y-99187000D01*
X93599000Y-99187000D02*
X93599000Y-101473000D01*
D12*
X91175000Y-80180000D02*
X91175000Y-82380000D01*
X90975000Y-82380000D02*
X90975000Y-80180000D01*
X90775000Y-82280000D02*
X90775000Y-82380000D01*
X90775000Y-82380000D02*
X90775000Y-82280000D01*
X90775000Y-80180000D02*
X90775000Y-82280000D01*
D14*
X93599000Y-82423000D02*
X90551000Y-82423000D01*
X90551000Y-82423000D02*
X90551000Y-80137000D01*
X90551000Y-80137000D02*
X93599000Y-80137000D01*
X93599000Y-80137000D02*
X93599000Y-82423000D01*
D12*
X72125000Y-137330000D02*
X72125000Y-139530000D01*
X71925000Y-139530000D02*
X71925000Y-137330000D01*
X71725000Y-139430000D02*
X71725000Y-139530000D01*
X71725000Y-139530000D02*
X71725000Y-139430000D01*
X71725000Y-137330000D02*
X71725000Y-139430000D01*
D14*
X74549000Y-139573000D02*
X71501000Y-139573000D01*
X71501000Y-139573000D02*
X71501000Y-137287000D01*
X71501000Y-137287000D02*
X74549000Y-137287000D01*
X74549000Y-137287000D02*
X74549000Y-139573000D01*
D12*
X72125000Y-118280000D02*
X72125000Y-120480000D01*
X71925000Y-120480000D02*
X71925000Y-118280000D01*
X71725000Y-120380000D02*
X71725000Y-120480000D01*
X71725000Y-120480000D02*
X71725000Y-120380000D01*
X71725000Y-118280000D02*
X71725000Y-120380000D01*
D14*
X74549000Y-120523000D02*
X71501000Y-120523000D01*
X71501000Y-120523000D02*
X71501000Y-118237000D01*
X71501000Y-118237000D02*
X74549000Y-118237000D01*
X74549000Y-118237000D02*
X74549000Y-120523000D01*
D12*
X72125000Y-99230000D02*
X72125000Y-101430000D01*
X71925000Y-101430000D02*
X71925000Y-99230000D01*
X71725000Y-101330000D02*
X71725000Y-101430000D01*
X71725000Y-101430000D02*
X71725000Y-101330000D01*
X71725000Y-99230000D02*
X71725000Y-101330000D01*
D14*
X74549000Y-101473000D02*
X71501000Y-101473000D01*
X71501000Y-101473000D02*
X71501000Y-99187000D01*
X71501000Y-99187000D02*
X74549000Y-99187000D01*
X74549000Y-99187000D02*
X74549000Y-101473000D01*
D12*
X72125000Y-80180000D02*
X72125000Y-82380000D01*
X71925000Y-82380000D02*
X71925000Y-80180000D01*
X71725000Y-82280000D02*
X71725000Y-82380000D01*
X71725000Y-82380000D02*
X71725000Y-82280000D01*
X71725000Y-80180000D02*
X71725000Y-82280000D01*
D14*
X74549000Y-82423000D02*
X71501000Y-82423000D01*
X71501000Y-82423000D02*
X71501000Y-80137000D01*
X71501000Y-80137000D02*
X74549000Y-80137000D01*
X74549000Y-80137000D02*
X74549000Y-82423000D01*
D12*
X53075000Y-137330000D02*
X53075000Y-139530000D01*
X52875000Y-139530000D02*
X52875000Y-137330000D01*
X52675000Y-139430000D02*
X52675000Y-139530000D01*
X52675000Y-139530000D02*
X52675000Y-139430000D01*
X52675000Y-137330000D02*
X52675000Y-139430000D01*
D14*
X55499000Y-139573000D02*
X52451000Y-139573000D01*
X52451000Y-139573000D02*
X52451000Y-137287000D01*
X52451000Y-137287000D02*
X55499000Y-137287000D01*
X55499000Y-137287000D02*
X55499000Y-139573000D01*
D12*
X53075000Y-118280000D02*
X53075000Y-120480000D01*
X52875000Y-120480000D02*
X52875000Y-118280000D01*
X52675000Y-120380000D02*
X52675000Y-120480000D01*
X52675000Y-120480000D02*
X52675000Y-120380000D01*
X52675000Y-118280000D02*
X52675000Y-120380000D01*
D14*
X55499000Y-120523000D02*
X52451000Y-120523000D01*
X52451000Y-120523000D02*
X52451000Y-118237000D01*
X52451000Y-118237000D02*
X55499000Y-118237000D01*
X55499000Y-118237000D02*
X55499000Y-120523000D01*
D12*
X53075000Y-99230000D02*
X53075000Y-101430000D01*
X52875000Y-101430000D02*
X52875000Y-99230000D01*
X52675000Y-101330000D02*
X52675000Y-101430000D01*
X52675000Y-101430000D02*
X52675000Y-101330000D01*
X52675000Y-99230000D02*
X52675000Y-101330000D01*
D14*
X55499000Y-101473000D02*
X52451000Y-101473000D01*
X52451000Y-101473000D02*
X52451000Y-99187000D01*
X52451000Y-99187000D02*
X55499000Y-99187000D01*
X55499000Y-99187000D02*
X55499000Y-101473000D01*
D12*
X53075000Y-80180000D02*
X53075000Y-82380000D01*
X52875000Y-82380000D02*
X52875000Y-80180000D01*
X52675000Y-82280000D02*
X52675000Y-82380000D01*
X52675000Y-82380000D02*
X52675000Y-82280000D01*
X52675000Y-80180000D02*
X52675000Y-82280000D01*
D14*
X55499000Y-82423000D02*
X52451000Y-82423000D01*
X52451000Y-82423000D02*
X52451000Y-80137000D01*
X52451000Y-80137000D02*
X55499000Y-80137000D01*
X55499000Y-80137000D02*
X55499000Y-82423000D01*
D12*
X97212190Y-92652857D02*
X97326476Y-92690952D01*
X97364571Y-92729047D01*
X97402666Y-92805238D01*
X97402666Y-92919523D01*
X97364571Y-92995714D01*
X97326476Y-93033809D01*
X97250285Y-93071904D01*
X96945523Y-93071904D01*
X96945523Y-92271904D01*
X97212190Y-92271904D01*
X97288380Y-92310000D01*
X97326476Y-92348095D01*
X97364571Y-92424285D01*
X97364571Y-92500476D01*
X97326476Y-92576666D01*
X97288380Y-92614761D01*
X97212190Y-92652857D01*
X96945523Y-92652857D01*
X97707428Y-92348095D02*
X97745523Y-92310000D01*
X97821714Y-92271904D01*
X98012190Y-92271904D01*
X98088380Y-92310000D01*
X98126476Y-92348095D01*
X98164571Y-92424285D01*
X98164571Y-92500476D01*
X98126476Y-92614761D01*
X97669333Y-93071904D01*
X98164571Y-93071904D01*
X97269333Y-85032857D02*
X97002666Y-85032857D01*
X97002666Y-85451904D02*
X97002666Y-84651904D01*
X97383619Y-84651904D01*
X97612190Y-84651904D02*
X98145523Y-84651904D01*
X97802666Y-85451904D01*
X97269333Y-82492857D02*
X97002666Y-82492857D01*
X97002666Y-82911904D02*
X97002666Y-82111904D01*
X97383619Y-82111904D01*
X98031238Y-82111904D02*
X97878857Y-82111904D01*
X97802666Y-82150000D01*
X97764571Y-82188095D01*
X97688380Y-82302380D01*
X97650285Y-82454761D01*
X97650285Y-82759523D01*
X97688380Y-82835714D01*
X97726476Y-82873809D01*
X97802666Y-82911904D01*
X97955047Y-82911904D01*
X98031238Y-82873809D01*
X98069333Y-82835714D01*
X98107428Y-82759523D01*
X98107428Y-82569047D01*
X98069333Y-82492857D01*
X98031238Y-82454761D01*
X97955047Y-82416666D01*
X97802666Y-82416666D01*
X97726476Y-82454761D01*
X97688380Y-82492857D01*
X97650285Y-82569047D01*
X97269333Y-79952857D02*
X97002666Y-79952857D01*
X97002666Y-80371904D02*
X97002666Y-79571904D01*
X97383619Y-79571904D01*
X98069333Y-79571904D02*
X97688380Y-79571904D01*
X97650285Y-79952857D01*
X97688380Y-79914761D01*
X97764571Y-79876666D01*
X97955047Y-79876666D01*
X98031238Y-79914761D01*
X98069333Y-79952857D01*
X98107428Y-80029047D01*
X98107428Y-80219523D01*
X98069333Y-80295714D01*
X98031238Y-80333809D01*
X97955047Y-80371904D01*
X97764571Y-80371904D01*
X97688380Y-80333809D01*
X97650285Y-80295714D01*
X96983619Y-67671904D02*
X96716952Y-67290952D01*
X96526476Y-67671904D02*
X96526476Y-66871904D01*
X96831238Y-66871904D01*
X96907428Y-66910000D01*
X96945523Y-66948095D01*
X96983619Y-67024285D01*
X96983619Y-67138571D01*
X96945523Y-67214761D01*
X96907428Y-67252857D01*
X96831238Y-67290952D01*
X96526476Y-67290952D01*
X97288380Y-67443333D02*
X97669333Y-67443333D01*
X97212190Y-67671904D02*
X97478857Y-66871904D01*
X97745523Y-67671904D01*
X97936000Y-66871904D02*
X98126476Y-67671904D01*
X98278857Y-67100476D01*
X98431238Y-67671904D01*
X98621714Y-66871904D01*
X96926476Y-69450000D02*
X96850285Y-69411904D01*
X96736000Y-69411904D01*
X96621714Y-69450000D01*
X96545523Y-69526190D01*
X96507428Y-69602380D01*
X96469333Y-69754761D01*
X96469333Y-69869047D01*
X96507428Y-70021428D01*
X96545523Y-70097619D01*
X96621714Y-70173809D01*
X96736000Y-70211904D01*
X96812190Y-70211904D01*
X96926476Y-70173809D01*
X96964571Y-70135714D01*
X96964571Y-69869047D01*
X96812190Y-69869047D01*
X97307428Y-70211904D02*
X97307428Y-69411904D01*
X97764571Y-70211904D01*
X97764571Y-69411904D01*
X98145523Y-70211904D02*
X98145523Y-69411904D01*
X98336000Y-69411904D01*
X98450285Y-69450000D01*
X98526476Y-69526190D01*
X98564571Y-69602380D01*
X98602666Y-69754761D01*
X98602666Y-69869047D01*
X98564571Y-70021428D01*
X98526476Y-70097619D01*
X98450285Y-70173809D01*
X98336000Y-70211904D01*
X98145523Y-70211904D01*
X97274786Y-72683809D02*
X97389072Y-72721904D01*
X97579548Y-72721904D01*
X97655739Y-72683809D01*
X97693834Y-72645714D01*
X97731929Y-72569523D01*
X97731929Y-72493333D01*
X97693834Y-72417142D01*
X97655739Y-72379047D01*
X97579548Y-72340952D01*
X97427167Y-72302857D01*
X97350977Y-72264761D01*
X97312881Y-72226666D01*
X97274786Y-72150476D01*
X97274786Y-72074285D01*
X97312881Y-71998095D01*
X97350977Y-71960000D01*
X97427167Y-71921904D01*
X97617643Y-71921904D01*
X97731929Y-71960000D01*
X97960500Y-71921904D02*
X98417643Y-71921904D01*
X98189072Y-72721904D02*
X98189072Y-71921904D01*
X96469333Y-74491904D02*
X96736000Y-75291904D01*
X97002666Y-74491904D01*
X97726476Y-75215714D02*
X97688380Y-75253809D01*
X97574095Y-75291904D01*
X97497904Y-75291904D01*
X97383619Y-75253809D01*
X97307428Y-75177619D01*
X97269333Y-75101428D01*
X97231238Y-74949047D01*
X97231238Y-74834761D01*
X97269333Y-74682380D01*
X97307428Y-74606190D01*
X97383619Y-74530000D01*
X97497904Y-74491904D01*
X97574095Y-74491904D01*
X97688380Y-74530000D01*
X97726476Y-74568095D01*
X98526476Y-75215714D02*
X98488380Y-75253809D01*
X98374095Y-75291904D01*
X98297904Y-75291904D01*
X98183619Y-75253809D01*
X98107428Y-75177619D01*
X98069333Y-75101428D01*
X98031238Y-74949047D01*
X98031238Y-74834761D01*
X98069333Y-74682380D01*
X98107428Y-74606190D01*
X98183619Y-74530000D01*
X98297904Y-74491904D01*
X98374095Y-74491904D01*
X98488380Y-74530000D01*
X98526476Y-74568095D01*
X97269333Y-77412857D02*
X97002666Y-77412857D01*
X97002666Y-77831904D02*
X97002666Y-77031904D01*
X97383619Y-77031904D01*
X98031238Y-77298571D02*
X98031238Y-77831904D01*
X97840761Y-76993809D02*
X97650285Y-77565238D01*
X98145523Y-77565238D01*
X97212190Y-87572857D02*
X97326476Y-87610952D01*
X97364571Y-87649047D01*
X97402666Y-87725238D01*
X97402666Y-87839523D01*
X97364571Y-87915714D01*
X97326476Y-87953809D01*
X97250285Y-87991904D01*
X96945523Y-87991904D01*
X96945523Y-87191904D01*
X97212190Y-87191904D01*
X97288380Y-87230000D01*
X97326476Y-87268095D01*
X97364571Y-87344285D01*
X97364571Y-87420476D01*
X97326476Y-87496666D01*
X97288380Y-87534761D01*
X97212190Y-87572857D01*
X96945523Y-87572857D01*
X98164571Y-87991904D02*
X97707428Y-87991904D01*
X97936000Y-87991904D02*
X97936000Y-87191904D01*
X97859809Y-87306190D01*
X97783619Y-87382380D01*
X97707428Y-87420476D01*
X97212190Y-90112857D02*
X97326476Y-90150952D01*
X97364571Y-90189047D01*
X97402666Y-90265238D01*
X97402666Y-90379523D01*
X97364571Y-90455714D01*
X97326476Y-90493809D01*
X97250285Y-90531904D01*
X96945523Y-90531904D01*
X96945523Y-89731904D01*
X97212190Y-89731904D01*
X97288380Y-89770000D01*
X97326476Y-89808095D01*
X97364571Y-89884285D01*
X97364571Y-89960476D01*
X97326476Y-90036666D01*
X97288380Y-90074761D01*
X97212190Y-90112857D01*
X96945523Y-90112857D01*
X97669333Y-89731904D02*
X98164571Y-89731904D01*
X97897904Y-90036666D01*
X98012190Y-90036666D01*
X98088380Y-90074761D01*
X98126476Y-90112857D01*
X98164571Y-90189047D01*
X98164571Y-90379523D01*
X98126476Y-90455714D01*
X98088380Y-90493809D01*
X98012190Y-90531904D01*
X97783619Y-90531904D01*
X97707428Y-90493809D01*
X97669333Y-90455714D01*
X97212190Y-95192857D02*
X97326476Y-95230952D01*
X97364571Y-95269047D01*
X97402666Y-95345238D01*
X97402666Y-95459523D01*
X97364571Y-95535714D01*
X97326476Y-95573809D01*
X97250285Y-95611904D01*
X96945523Y-95611904D01*
X96945523Y-94811904D01*
X97212190Y-94811904D01*
X97288380Y-94850000D01*
X97326476Y-94888095D01*
X97364571Y-94964285D01*
X97364571Y-95040476D01*
X97326476Y-95116666D01*
X97288380Y-95154761D01*
X97212190Y-95192857D01*
X96945523Y-95192857D01*
X98088380Y-94811904D02*
X97936000Y-94811904D01*
X97859809Y-94850000D01*
X97821714Y-94888095D01*
X97745523Y-95002380D01*
X97707428Y-95154761D01*
X97707428Y-95459523D01*
X97745523Y-95535714D01*
X97783619Y-95573809D01*
X97859809Y-95611904D01*
X98012190Y-95611904D01*
X98088380Y-95573809D01*
X98126476Y-95535714D01*
X98164571Y-95459523D01*
X98164571Y-95269047D01*
X98126476Y-95192857D01*
X98088380Y-95154761D01*
X98012190Y-95116666D01*
X97859809Y-95116666D01*
X97783619Y-95154761D01*
X97745523Y-95192857D01*
X97707428Y-95269047D01*
X86290190Y-95192857D02*
X86404476Y-95230952D01*
X86442571Y-95269047D01*
X86480666Y-95345238D01*
X86480666Y-95459523D01*
X86442571Y-95535714D01*
X86404476Y-95573809D01*
X86328285Y-95611904D01*
X86023523Y-95611904D01*
X86023523Y-94811904D01*
X86290190Y-94811904D01*
X86366380Y-94850000D01*
X86404476Y-94888095D01*
X86442571Y-94964285D01*
X86442571Y-95040476D01*
X86404476Y-95116666D01*
X86366380Y-95154761D01*
X86290190Y-95192857D01*
X86023523Y-95192857D01*
X87204476Y-94811904D02*
X86823523Y-94811904D01*
X86785428Y-95192857D01*
X86823523Y-95154761D01*
X86899714Y-95116666D01*
X87090190Y-95116666D01*
X87166380Y-95154761D01*
X87204476Y-95192857D01*
X87242571Y-95269047D01*
X87242571Y-95459523D01*
X87204476Y-95535714D01*
X87166380Y-95573809D01*
X87090190Y-95611904D01*
X86899714Y-95611904D01*
X86823523Y-95573809D01*
X86785428Y-95535714D01*
X86290190Y-92652857D02*
X86404476Y-92690952D01*
X86442571Y-92729047D01*
X86480666Y-92805238D01*
X86480666Y-92919523D01*
X86442571Y-92995714D01*
X86404476Y-93033809D01*
X86328285Y-93071904D01*
X86023523Y-93071904D01*
X86023523Y-92271904D01*
X86290190Y-92271904D01*
X86366380Y-92310000D01*
X86404476Y-92348095D01*
X86442571Y-92424285D01*
X86442571Y-92500476D01*
X86404476Y-92576666D01*
X86366380Y-92614761D01*
X86290190Y-92652857D01*
X86023523Y-92652857D01*
X87166380Y-92538571D02*
X87166380Y-93071904D01*
X86975904Y-92233809D02*
X86785428Y-92805238D01*
X87280666Y-92805238D01*
X86061619Y-90112857D02*
X86328285Y-90112857D01*
X86442571Y-90531904D02*
X86061619Y-90531904D01*
X86061619Y-89731904D01*
X86442571Y-89731904D01*
X87128285Y-89731904D02*
X86975904Y-89731904D01*
X86899714Y-89770000D01*
X86861619Y-89808095D01*
X86785428Y-89922380D01*
X86747333Y-90074761D01*
X86747333Y-90379523D01*
X86785428Y-90455714D01*
X86823523Y-90493809D01*
X86899714Y-90531904D01*
X87052095Y-90531904D01*
X87128285Y-90493809D01*
X87166380Y-90455714D01*
X87204476Y-90379523D01*
X87204476Y-90189047D01*
X87166380Y-90112857D01*
X87128285Y-90074761D01*
X87052095Y-90036666D01*
X86899714Y-90036666D01*
X86823523Y-90074761D01*
X86785428Y-90112857D01*
X86747333Y-90189047D01*
X86023523Y-87991904D02*
X86023523Y-87191904D01*
X86214000Y-87191904D01*
X86328285Y-87230000D01*
X86404476Y-87306190D01*
X86442571Y-87382380D01*
X86480666Y-87534761D01*
X86480666Y-87649047D01*
X86442571Y-87801428D01*
X86404476Y-87877619D01*
X86328285Y-87953809D01*
X86214000Y-87991904D01*
X86023523Y-87991904D01*
X86747333Y-87191904D02*
X87280666Y-87191904D01*
X86937809Y-87991904D01*
X86480666Y-85375714D02*
X86442571Y-85413809D01*
X86328285Y-85451904D01*
X86252095Y-85451904D01*
X86137809Y-85413809D01*
X86061619Y-85337619D01*
X86023523Y-85261428D01*
X85985428Y-85109047D01*
X85985428Y-84994761D01*
X86023523Y-84842380D01*
X86061619Y-84766190D01*
X86137809Y-84690000D01*
X86252095Y-84651904D01*
X86328285Y-84651904D01*
X86442571Y-84690000D01*
X86480666Y-84728095D01*
X87166380Y-84651904D02*
X87014000Y-84651904D01*
X86937809Y-84690000D01*
X86899714Y-84728095D01*
X86823523Y-84842380D01*
X86785428Y-84994761D01*
X86785428Y-85299523D01*
X86823523Y-85375714D01*
X86861619Y-85413809D01*
X86937809Y-85451904D01*
X87090190Y-85451904D01*
X87166380Y-85413809D01*
X87204476Y-85375714D01*
X87242571Y-85299523D01*
X87242571Y-85109047D01*
X87204476Y-85032857D01*
X87166380Y-84994761D01*
X87090190Y-84956666D01*
X86937809Y-84956666D01*
X86861619Y-84994761D01*
X86823523Y-85032857D01*
X86785428Y-85109047D01*
X86023523Y-82911904D02*
X86023523Y-82111904D01*
X86214000Y-82111904D01*
X86328285Y-82150000D01*
X86404476Y-82226190D01*
X86442571Y-82302380D01*
X86480666Y-82454761D01*
X86480666Y-82569047D01*
X86442571Y-82721428D01*
X86404476Y-82797619D01*
X86328285Y-82873809D01*
X86214000Y-82911904D01*
X86023523Y-82911904D01*
X87166380Y-82378571D02*
X87166380Y-82911904D01*
X86975904Y-82073809D02*
X86785428Y-82645238D01*
X87280666Y-82645238D01*
X86004476Y-71990000D02*
X85928285Y-71951904D01*
X85814000Y-71951904D01*
X85699714Y-71990000D01*
X85623523Y-72066190D01*
X85585428Y-72142380D01*
X85547333Y-72294761D01*
X85547333Y-72409047D01*
X85585428Y-72561428D01*
X85623523Y-72637619D01*
X85699714Y-72713809D01*
X85814000Y-72751904D01*
X85890190Y-72751904D01*
X86004476Y-72713809D01*
X86042571Y-72675714D01*
X86042571Y-72409047D01*
X85890190Y-72409047D01*
X86385428Y-72751904D02*
X86385428Y-71951904D01*
X86842571Y-72751904D01*
X86842571Y-71951904D01*
X87223523Y-72751904D02*
X87223523Y-71951904D01*
X87414000Y-71951904D01*
X87528285Y-71990000D01*
X87604476Y-72066190D01*
X87642571Y-72142380D01*
X87680666Y-72294761D01*
X87680666Y-72409047D01*
X87642571Y-72561428D01*
X87604476Y-72637619D01*
X87528285Y-72713809D01*
X87414000Y-72751904D01*
X87223523Y-72751904D01*
X86004476Y-74530000D02*
X85928285Y-74491904D01*
X85814000Y-74491904D01*
X85699714Y-74530000D01*
X85623523Y-74606190D01*
X85585428Y-74682380D01*
X85547333Y-74834761D01*
X85547333Y-74949047D01*
X85585428Y-75101428D01*
X85623523Y-75177619D01*
X85699714Y-75253809D01*
X85814000Y-75291904D01*
X85890190Y-75291904D01*
X86004476Y-75253809D01*
X86042571Y-75215714D01*
X86042571Y-74949047D01*
X85890190Y-74949047D01*
X86385428Y-75291904D02*
X86385428Y-74491904D01*
X86842571Y-75291904D01*
X86842571Y-74491904D01*
X87223523Y-75291904D02*
X87223523Y-74491904D01*
X87414000Y-74491904D01*
X87528285Y-74530000D01*
X87604476Y-74606190D01*
X87642571Y-74682380D01*
X87680666Y-74834761D01*
X87680666Y-74949047D01*
X87642571Y-75101428D01*
X87604476Y-75177619D01*
X87528285Y-75253809D01*
X87414000Y-75291904D01*
X87223523Y-75291904D01*
X86023523Y-77831904D02*
X86023523Y-77031904D01*
X86214000Y-77031904D01*
X86328285Y-77070000D01*
X86404476Y-77146190D01*
X86442571Y-77222380D01*
X86480666Y-77374761D01*
X86480666Y-77489047D01*
X86442571Y-77641428D01*
X86404476Y-77717619D01*
X86328285Y-77793809D01*
X86214000Y-77831904D01*
X86023523Y-77831904D01*
X87242571Y-77831904D02*
X86785428Y-77831904D01*
X87014000Y-77831904D02*
X87014000Y-77031904D01*
X86937809Y-77146190D01*
X86861619Y-77222380D01*
X86785428Y-77260476D01*
X86023523Y-80371904D02*
X86023523Y-79571904D01*
X86214000Y-79571904D01*
X86328285Y-79610000D01*
X86404476Y-79686190D01*
X86442571Y-79762380D01*
X86480666Y-79914761D01*
X86480666Y-80029047D01*
X86442571Y-80181428D01*
X86404476Y-80257619D01*
X86328285Y-80333809D01*
X86214000Y-80371904D01*
X86023523Y-80371904D01*
X86975904Y-79571904D02*
X87052095Y-79571904D01*
X87128285Y-79610000D01*
X87166380Y-79648095D01*
X87204476Y-79724285D01*
X87242571Y-79876666D01*
X87242571Y-80067142D01*
X87204476Y-80219523D01*
X87166380Y-80295714D01*
X87128285Y-80333809D01*
X87052095Y-80371904D01*
X86975904Y-80371904D01*
X86899714Y-80333809D01*
X86861619Y-80295714D01*
X86823523Y-80219523D01*
X86785428Y-80067142D01*
X86785428Y-79876666D01*
X86823523Y-79724285D01*
X86861619Y-79648095D01*
X86899714Y-79610000D01*
X86975904Y-79571904D01*
X86023523Y-70211904D02*
X86023523Y-69411904D01*
X86214000Y-69411904D01*
X86328285Y-69450000D01*
X86404476Y-69526190D01*
X86442571Y-69602380D01*
X86480666Y-69754761D01*
X86480666Y-69869047D01*
X86442571Y-70021428D01*
X86404476Y-70097619D01*
X86328285Y-70173809D01*
X86214000Y-70211904D01*
X86023523Y-70211904D01*
X86785428Y-69488095D02*
X86823523Y-69450000D01*
X86899714Y-69411904D01*
X87090190Y-69411904D01*
X87166380Y-69450000D01*
X87204476Y-69488095D01*
X87242571Y-69564285D01*
X87242571Y-69640476D01*
X87204476Y-69754761D01*
X86747333Y-70211904D01*
X87242571Y-70211904D01*
X86312651Y-66871904D02*
X86769794Y-66871904D01*
X86541223Y-67671904D02*
X86541223Y-66871904D01*
X86960270Y-66871904D02*
X87493604Y-67671904D01*
X87493604Y-66871904D02*
X86960270Y-67671904D01*
X87950747Y-66871904D02*
X88026937Y-66871904D01*
X88103128Y-66910000D01*
X88141223Y-66948095D01*
X88179318Y-67024285D01*
X88217413Y-67176666D01*
X88217413Y-67367142D01*
X88179318Y-67519523D01*
X88141223Y-67595714D01*
X88103128Y-67633809D01*
X88026937Y-67671904D01*
X87950747Y-67671904D01*
X87874556Y-67633809D01*
X87836461Y-67595714D01*
X87798366Y-67519523D01*
X87760270Y-67367142D01*
X87760270Y-67176666D01*
X87798366Y-67024285D01*
X87836461Y-66948095D01*
X87874556Y-66910000D01*
X87950747Y-66871904D01*
X89131699Y-66833809D02*
X88445985Y-67862380D01*
X89398366Y-67671904D02*
X89398366Y-66871904D01*
X89588842Y-66871904D01*
X89703128Y-66910000D01*
X89779318Y-66986190D01*
X89817413Y-67062380D01*
X89855508Y-67214761D01*
X89855508Y-67329047D01*
X89817413Y-67481428D01*
X89779318Y-67557619D01*
X89703128Y-67633809D01*
X89588842Y-67671904D01*
X89398366Y-67671904D01*
X90122175Y-66871904D02*
X90617413Y-66871904D01*
X90350747Y-67176666D01*
X90465032Y-67176666D01*
X90541223Y-67214761D01*
X90579318Y-67252857D01*
X90617413Y-67329047D01*
X90617413Y-67519523D01*
X90579318Y-67595714D01*
X90541223Y-67633809D01*
X90465032Y-67671904D01*
X90236461Y-67671904D01*
X90160270Y-67633809D01*
X90122175Y-67595714D01*
M02*
